M48
; DRILL file {KiCad (5.99.0-1165-gc29c3d9cc)} date Sun Mar 29 18:02:50 2020
; FORMAT={-:-/ absolute / inch / decimal}
; #@! TF.CreationDate,2020-03-29T18:02:50+03:00
; #@! TF.GenerationSoftware,Kicad,Pcbnew,(5.99.0-1165-gc29c3d9cc)
; #@! TF.FileFunction,Plated,1,2,PTH
FMAT,2
INCH
T1C0.0315
T2C0.0354
T3C0.0394
T4C0.0433
T5C0.0551
%
G90
G05
T1
X4.078Y-3.484
X4.214Y-3.2596
X4.798Y-2.84
X4.798Y-3.14
X4.052Y-2.849
X4.352Y-2.849
X4.052Y-2.974
X4.352Y-2.974
X4.544Y-3.2811
X4.544Y-3.478
X4.848Y-3.268
X4.848Y-3.568
X4.078Y-3.784
X4.214Y-3.358
X4.052Y-3.099
X4.352Y-3.099
X4.423Y-3.281
X4.423Y-3.4779
T2
X4.765Y-3.755
X4.865Y-3.755
T3
X4.5Y-2.98
X4.5Y-3.08
X4.5Y-3.18
T4
X4.669Y-2.85
X4.669Y-3.25
X4.45Y-2.836
X4.55Y-2.836
X4.35Y-3.77
X4.45Y-3.77
X4.55Y-3.77
X4.65Y-3.77
T5
X4.3Y-3.6
X4.5Y-3.6
X4.7Y-3.6
T0
M30
