G04 #@! TF.GenerationSoftware,KiCad,Pcbnew,(5.99.0-1165-gc29c3d9cc)*
G04 #@! TF.CreationDate,2020-03-29T18:02:48+03:00*
G04 #@! TF.ProjectId,salero-1,73616c65-726f-42d3-912e-6b696361645f,rev?*
G04 #@! TF.SameCoordinates,Original*
G04 #@! TF.FileFunction,Copper,L2,Bot*
G04 #@! TF.FilePolarity,Positive*
%FSLAX46Y46*%
G04 Gerber Fmt 4.6, Leading zero omitted, Abs format (unit mm)*
G04 Created by KiCad (PCBNEW (5.99.0-1165-gc29c3d9cc)) date 2020-03-29 18:02:48*
%MOMM*%
%LPD*%
G01*
G04 APERTURE LIST*
G04 #@! TA.AperFunction,ComponentPad*
%ADD10O,1.930400X1.930400*%
G04 #@! TD*
G04 #@! TA.AperFunction,ComponentPad*
%ADD11R,1.930400X1.930400*%
G04 #@! TD*
G04 #@! TA.AperFunction,ComponentPad*
%ADD12O,1.600000X1.600000*%
G04 #@! TD*
G04 #@! TA.AperFunction,ComponentPad*
%ADD13C,1.600000*%
G04 #@! TD*
G04 #@! TA.AperFunction,ComponentPad*
%ADD14O,2.540000X2.540000*%
G04 #@! TD*
G04 #@! TA.AperFunction,ComponentPad*
%ADD15R,2.540000X2.540000*%
G04 #@! TD*
G04 #@! TA.AperFunction,ComponentPad*
%ADD16C,1.800000*%
G04 #@! TD*
G04 #@! TA.AperFunction,ComponentPad*
%ADD17R,1.800000X1.800000*%
G04 #@! TD*
G04 #@! TA.AperFunction,ComponentPad*
%ADD18O,2.200000X2.200000*%
G04 #@! TD*
G04 #@! TA.AperFunction,ComponentPad*
%ADD19R,2.200000X2.200000*%
G04 #@! TD*
G04 #@! TA.AperFunction,ComponentPad*
%ADD20R,1.600000X1.600000*%
G04 #@! TD*
G04 #@! TA.AperFunction,Conductor*
%ADD21C,0.508000*%
G04 #@! TD*
G04 #@! TA.AperFunction,Conductor*
%ADD22C,0.254000*%
G04 #@! TD*
G04 APERTURE END LIST*
D10*
X115570000Y-72034400D03*
D11*
X113030000Y-72034400D03*
D12*
X110540800Y-78714600D03*
D13*
X102920800Y-78714600D03*
D14*
X109220000Y-91440000D03*
X114300000Y-91440000D03*
D15*
X119380000Y-91440000D03*
D12*
X123139200Y-83007200D03*
D13*
X123139200Y-90627200D03*
D12*
X121869200Y-72136000D03*
D13*
X121869200Y-79756000D03*
D12*
X102920800Y-75539600D03*
D13*
X110540800Y-75539600D03*
D12*
X110540800Y-72364600D03*
D13*
X102920800Y-72364600D03*
D12*
X103581200Y-88493600D03*
D13*
X103581200Y-96113600D03*
D10*
X114300000Y-80772000D03*
X114300000Y-78232000D03*
D11*
X114300000Y-75692000D03*
D10*
X118110000Y-95758000D03*
X115570000Y-95758000D03*
X113030000Y-95758000D03*
D11*
X110490000Y-95758000D03*
D16*
X123571000Y-95377000D03*
D17*
X121031000Y-95377000D03*
D18*
X118592600Y-72390000D03*
D19*
X118592600Y-82550000D03*
D13*
X112344200Y-88337400D03*
X112344200Y-83337400D03*
X107035600Y-82793200D03*
D20*
X107035600Y-85293200D03*
D13*
X115417600Y-83341200D03*
X115417600Y-88341200D03*
D21*
X110540800Y-75539600D02*
X113233200Y-78232000D01*
X113233200Y-78232000D02*
X114300000Y-78232000D01*
X114300000Y-80772000D02*
X114300000Y-81381600D01*
X114300000Y-81381600D02*
X112344200Y-83337400D01*
X123139200Y-83007200D02*
X123139200Y-76936600D01*
X123139200Y-76936600D02*
X118592600Y-72390000D01*
X113030000Y-72034400D02*
X114449201Y-73453601D01*
X114449201Y-73453601D02*
X117528999Y-73453601D01*
X117528999Y-73453601D02*
X118592600Y-72390000D01*
X115570000Y-95758000D02*
X116989201Y-94338799D01*
X116989201Y-94338799D02*
X119992799Y-94338799D01*
X119992799Y-94338799D02*
X121031000Y-95377000D01*
G36*
X109719932Y-71182688D02*
G01*
X109710919Y-71188999D01*
X109527166Y-71343187D01*
X109519387Y-71350966D01*
X109365199Y-71534719D01*
X109358888Y-71543732D01*
X109238952Y-71751468D01*
X109234302Y-71761440D01*
X109152260Y-71986847D01*
X109149413Y-71997474D01*
X109107759Y-72233703D01*
X109106800Y-72244664D01*
X109106800Y-72484536D01*
X109107759Y-72495497D01*
X109149413Y-72731726D01*
X109152260Y-72742353D01*
X109234302Y-72967760D01*
X109238952Y-72977732D01*
X109358888Y-73185468D01*
X109365199Y-73194481D01*
X109519387Y-73378234D01*
X109527166Y-73386013D01*
X109710919Y-73540201D01*
X109719932Y-73546512D01*
X109927668Y-73666448D01*
X109937640Y-73671098D01*
X110163047Y-73753140D01*
X110173674Y-73755987D01*
X110409903Y-73797641D01*
X110420864Y-73798600D01*
X110660736Y-73798600D01*
X110671697Y-73797641D01*
X110907926Y-73755987D01*
X110918553Y-73753140D01*
X111143960Y-73671098D01*
X111153932Y-73666448D01*
X111361668Y-73546512D01*
X111370681Y-73540201D01*
X111554434Y-73386013D01*
X111558227Y-73382220D01*
X111643790Y-73484190D01*
X111660679Y-73498361D01*
X111834920Y-73598959D01*
X111855637Y-73606500D01*
X112048338Y-73640478D01*
X112059299Y-73641437D01*
X113378388Y-73641437D01*
X113749369Y-74012418D01*
X113759632Y-74028684D01*
X113771267Y-74042355D01*
X113819511Y-74084963D01*
X113326542Y-74084963D01*
X113310166Y-74087119D01*
X113030942Y-74161937D01*
X113006462Y-74174680D01*
X112850210Y-74305790D01*
X112836039Y-74322679D01*
X112735441Y-74496920D01*
X112727900Y-74517637D01*
X112693922Y-74710338D01*
X112692963Y-74721299D01*
X112692963Y-76433114D01*
X111967321Y-75707472D01*
X111973841Y-75670497D01*
X111974800Y-75659536D01*
X111974800Y-75419664D01*
X111973841Y-75408703D01*
X111932187Y-75172474D01*
X111929340Y-75161847D01*
X111847298Y-74936440D01*
X111842648Y-74926468D01*
X111722712Y-74718732D01*
X111716401Y-74709719D01*
X111562213Y-74525966D01*
X111554434Y-74518187D01*
X111370681Y-74363999D01*
X111361668Y-74357688D01*
X111153932Y-74237752D01*
X111143960Y-74233102D01*
X110918553Y-74151060D01*
X110907926Y-74148213D01*
X110671697Y-74106559D01*
X110660736Y-74105600D01*
X110420864Y-74105600D01*
X110409903Y-74106559D01*
X110173674Y-74148213D01*
X110163047Y-74151060D01*
X109937640Y-74233102D01*
X109927668Y-74237752D01*
X109719932Y-74357688D01*
X109710919Y-74363999D01*
X109527166Y-74518187D01*
X109519387Y-74525966D01*
X109365199Y-74709719D01*
X109358888Y-74718732D01*
X109238952Y-74926468D01*
X109234302Y-74936440D01*
X109152260Y-75161847D01*
X109149413Y-75172474D01*
X109107759Y-75408703D01*
X109106800Y-75419664D01*
X109106800Y-75659536D01*
X109107759Y-75670497D01*
X109149413Y-75906726D01*
X109152260Y-75917353D01*
X109234302Y-76142760D01*
X109238952Y-76152732D01*
X109358888Y-76360468D01*
X109365199Y-76369481D01*
X109519387Y-76553234D01*
X109527166Y-76561013D01*
X109710919Y-76715201D01*
X109719932Y-76721512D01*
X109927668Y-76841448D01*
X109937640Y-76846098D01*
X110163047Y-76928140D01*
X110173674Y-76930987D01*
X110409903Y-76972641D01*
X110420864Y-76973600D01*
X110660736Y-76973600D01*
X110671697Y-76972641D01*
X110708672Y-76966121D01*
X111157176Y-77414625D01*
X111153932Y-77412752D01*
X111143960Y-77408102D01*
X110918553Y-77326060D01*
X110907926Y-77323213D01*
X110671697Y-77281559D01*
X110660736Y-77280600D01*
X110420864Y-77280600D01*
X110409903Y-77281559D01*
X110173674Y-77323213D01*
X110163047Y-77326060D01*
X109937640Y-77408102D01*
X109927668Y-77412752D01*
X109719932Y-77532688D01*
X109710919Y-77538999D01*
X109527166Y-77693187D01*
X109519387Y-77700966D01*
X109365199Y-77884719D01*
X109358888Y-77893732D01*
X109238952Y-78101468D01*
X109234302Y-78111440D01*
X109152260Y-78336847D01*
X109149413Y-78347474D01*
X109107759Y-78583703D01*
X109106800Y-78594664D01*
X109106800Y-78834536D01*
X109107759Y-78845497D01*
X109149413Y-79081726D01*
X109152260Y-79092353D01*
X109234302Y-79317760D01*
X109238952Y-79327732D01*
X109358888Y-79535468D01*
X109365199Y-79544481D01*
X109519387Y-79728234D01*
X109527166Y-79736013D01*
X109710919Y-79890201D01*
X109719932Y-79896512D01*
X109927668Y-80016448D01*
X109937640Y-80021098D01*
X110163047Y-80103140D01*
X110173674Y-80105987D01*
X110409903Y-80147641D01*
X110420864Y-80148600D01*
X110660736Y-80148600D01*
X110671697Y-80147641D01*
X110907926Y-80105987D01*
X110918553Y-80103140D01*
X111143960Y-80021098D01*
X111153932Y-80016448D01*
X111361668Y-79896512D01*
X111370681Y-79890201D01*
X111554434Y-79736013D01*
X111562213Y-79728234D01*
X111716401Y-79544481D01*
X111722712Y-79535468D01*
X111842648Y-79327732D01*
X111847298Y-79317760D01*
X111929340Y-79092353D01*
X111932187Y-79081726D01*
X111973841Y-78845497D01*
X111974800Y-78834536D01*
X111974800Y-78594664D01*
X111973841Y-78583703D01*
X111932187Y-78347474D01*
X111929340Y-78336847D01*
X111847298Y-78111440D01*
X111842648Y-78101468D01*
X111840774Y-78098223D01*
X112533367Y-78790815D01*
X112543629Y-78807080D01*
X112555265Y-78820753D01*
X112624077Y-78881526D01*
X112645833Y-78903283D01*
X112652607Y-78909156D01*
X112670799Y-78922790D01*
X112732754Y-78977506D01*
X112747759Y-78987363D01*
X112772388Y-78998926D01*
X112794155Y-79015240D01*
X112809902Y-79023861D01*
X112887280Y-79052868D01*
X112935500Y-79075508D01*
X113084038Y-79278458D01*
X113090809Y-79286275D01*
X113271280Y-79463004D01*
X113279236Y-79469610D01*
X113323326Y-79500483D01*
X113143754Y-79659914D01*
X113136609Y-79667391D01*
X112977647Y-79863693D01*
X112971820Y-79872236D01*
X112847054Y-80091864D01*
X112842699Y-80101244D01*
X112755479Y-80338300D01*
X112752716Y-80348266D01*
X112705385Y-80596384D01*
X112704286Y-80606667D01*
X112698114Y-80859185D01*
X112698710Y-80869509D01*
X112733864Y-81119643D01*
X112736137Y-81129732D01*
X112811673Y-81370766D01*
X112815564Y-81380348D01*
X112891760Y-81531191D01*
X112512072Y-81910879D01*
X112475097Y-81904359D01*
X112464136Y-81903400D01*
X112224264Y-81903400D01*
X112213303Y-81904359D01*
X111977074Y-81946013D01*
X111966447Y-81948860D01*
X111741040Y-82030902D01*
X111731068Y-82035552D01*
X111523332Y-82155488D01*
X111514319Y-82161799D01*
X111330566Y-82315987D01*
X111322787Y-82323766D01*
X111168599Y-82507519D01*
X111162288Y-82516532D01*
X111042352Y-82724268D01*
X111037702Y-82734240D01*
X110955660Y-82959647D01*
X110952813Y-82970274D01*
X110911159Y-83206503D01*
X110910200Y-83217464D01*
X110910200Y-83457336D01*
X110911159Y-83468297D01*
X110952813Y-83704526D01*
X110955660Y-83715153D01*
X111037702Y-83940560D01*
X111042352Y-83950532D01*
X111162288Y-84158268D01*
X111168599Y-84167281D01*
X111322787Y-84351034D01*
X111330566Y-84358813D01*
X111514319Y-84513001D01*
X111523332Y-84519312D01*
X111731068Y-84639248D01*
X111741040Y-84643898D01*
X111966447Y-84725940D01*
X111977074Y-84728787D01*
X112213303Y-84770441D01*
X112224264Y-84771400D01*
X112464136Y-84771400D01*
X112475097Y-84770441D01*
X112711326Y-84728787D01*
X112721953Y-84725940D01*
X112947360Y-84643898D01*
X112957332Y-84639248D01*
X113165068Y-84519312D01*
X113174081Y-84513001D01*
X113357834Y-84358813D01*
X113365613Y-84351034D01*
X113519801Y-84167281D01*
X113526112Y-84158268D01*
X113646048Y-83950532D01*
X113650698Y-83940560D01*
X113732740Y-83715153D01*
X113735587Y-83704526D01*
X113777241Y-83468297D01*
X113778200Y-83457336D01*
X113778200Y-83217464D01*
X113777241Y-83206503D01*
X113770722Y-83169529D01*
X114058964Y-82881286D01*
X114029060Y-82963447D01*
X114026213Y-82974074D01*
X113984559Y-83210303D01*
X113983600Y-83221264D01*
X113983600Y-83461136D01*
X113984559Y-83472097D01*
X114026213Y-83708326D01*
X114029060Y-83718953D01*
X114111102Y-83944360D01*
X114115752Y-83954332D01*
X114235688Y-84162068D01*
X114241999Y-84171081D01*
X114396187Y-84354834D01*
X114403966Y-84362613D01*
X114587719Y-84516801D01*
X114596732Y-84523112D01*
X114804468Y-84643048D01*
X114814440Y-84647698D01*
X115039847Y-84729740D01*
X115050474Y-84732587D01*
X115286703Y-84774241D01*
X115297664Y-84775200D01*
X115537536Y-84775200D01*
X115548497Y-84774241D01*
X115784726Y-84732587D01*
X115795353Y-84729740D01*
X116020760Y-84647698D01*
X116030732Y-84643048D01*
X116238468Y-84523112D01*
X116247481Y-84516801D01*
X116431234Y-84362613D01*
X116439013Y-84354834D01*
X116593201Y-84171081D01*
X116599512Y-84162068D01*
X116719448Y-83954332D01*
X116724098Y-83944360D01*
X116806140Y-83718953D01*
X116808987Y-83708326D01*
X116850641Y-83472097D01*
X116850763Y-83470703D01*
X116850763Y-83658258D01*
X116852919Y-83674634D01*
X116927737Y-83953859D01*
X116940480Y-83978339D01*
X117071590Y-84134590D01*
X117088479Y-84148761D01*
X117262720Y-84249359D01*
X117283437Y-84256900D01*
X117476138Y-84290878D01*
X117487099Y-84291837D01*
X119700858Y-84291837D01*
X119717234Y-84289681D01*
X119996459Y-84214863D01*
X120020939Y-84202120D01*
X120177190Y-84071010D01*
X120191361Y-84054121D01*
X120291959Y-83879880D01*
X120299500Y-83859163D01*
X120333478Y-83666462D01*
X120334437Y-83655501D01*
X120334437Y-81441742D01*
X120332281Y-81425366D01*
X120257463Y-81146142D01*
X120244720Y-81121662D01*
X120113610Y-80965410D01*
X120096721Y-80951239D01*
X119922480Y-80850641D01*
X119901763Y-80843100D01*
X119709062Y-80809122D01*
X119698101Y-80808163D01*
X117484342Y-80808163D01*
X117467966Y-80810319D01*
X117188742Y-80885137D01*
X117164262Y-80897880D01*
X117008010Y-81028990D01*
X116993839Y-81045879D01*
X116893241Y-81220120D01*
X116885700Y-81240837D01*
X116851722Y-81433538D01*
X116850763Y-81444499D01*
X116850763Y-83211697D01*
X116850641Y-83210303D01*
X116808987Y-82974074D01*
X116806140Y-82963447D01*
X116724098Y-82738040D01*
X116719448Y-82728068D01*
X116599512Y-82520332D01*
X116593201Y-82511319D01*
X116439013Y-82327566D01*
X116431234Y-82319787D01*
X116247481Y-82165599D01*
X116238468Y-82159288D01*
X116030732Y-82039352D01*
X116020760Y-82034702D01*
X115795353Y-81952660D01*
X115784726Y-81949813D01*
X115548497Y-81908159D01*
X115537536Y-81907200D01*
X115433549Y-81907200D01*
X115436055Y-81904703D01*
X115599766Y-81712344D01*
X115605801Y-81703946D01*
X115735895Y-81487431D01*
X115740477Y-81478161D01*
X115833463Y-81243306D01*
X115836470Y-81233411D01*
X115890011Y-80985769D01*
X115891418Y-80973969D01*
X115899385Y-80648013D01*
X115898556Y-80636158D01*
X115857175Y-80386197D01*
X115854655Y-80376167D01*
X115773253Y-80137050D01*
X115769130Y-80127566D01*
X115649767Y-79904955D01*
X115644149Y-79896271D01*
X115490031Y-79696146D01*
X115483072Y-79688497D01*
X115298337Y-79516229D01*
X115290221Y-79509819D01*
X115276463Y-79500679D01*
X115428730Y-79372003D01*
X115436055Y-79364703D01*
X115599766Y-79172344D01*
X115605801Y-79163946D01*
X115735895Y-78947431D01*
X115740477Y-78938161D01*
X115833463Y-78703306D01*
X115836470Y-78693411D01*
X115890011Y-78445769D01*
X115891418Y-78433969D01*
X115899385Y-78108013D01*
X115898556Y-78096158D01*
X115857175Y-77846197D01*
X115854655Y-77836167D01*
X115773253Y-77597050D01*
X115769130Y-77587566D01*
X115649767Y-77364955D01*
X115644149Y-77356271D01*
X115545629Y-77228341D01*
X115569059Y-77222063D01*
X115593539Y-77209320D01*
X115749790Y-77078210D01*
X115763961Y-77061321D01*
X115864559Y-76887080D01*
X115872100Y-76866363D01*
X115906078Y-76673662D01*
X115907037Y-76662701D01*
X115907037Y-74718542D01*
X115904881Y-74702166D01*
X115830063Y-74422942D01*
X115817320Y-74398462D01*
X115771287Y-74343601D01*
X117429293Y-74343601D01*
X117448045Y-74347844D01*
X117465939Y-74349284D01*
X117557544Y-74343601D01*
X117588336Y-74343601D01*
X117597278Y-74342964D01*
X117619799Y-74339739D01*
X117702283Y-74334622D01*
X117719863Y-74330981D01*
X117745449Y-74321744D01*
X117772381Y-74317887D01*
X117789612Y-74312848D01*
X117864848Y-74278641D01*
X117942773Y-74250509D01*
X117958940Y-74241849D01*
X117979933Y-74226315D01*
X118005175Y-74214838D01*
X118020299Y-74205166D01*
X118091959Y-74143420D01*
X118110765Y-74129504D01*
X118117848Y-74123401D01*
X118134384Y-74106864D01*
X118170212Y-74075993D01*
X118181831Y-74079768D01*
X118191458Y-74082079D01*
X118451227Y-74123223D01*
X118461097Y-74124000D01*
X118724103Y-74124000D01*
X118733973Y-74123223D01*
X118993742Y-74082079D01*
X119003369Y-74079768D01*
X119018729Y-74074777D01*
X122249201Y-77305250D01*
X122249201Y-78368278D01*
X122246953Y-78367460D01*
X122236325Y-78364613D01*
X122000097Y-78322959D01*
X121989136Y-78322000D01*
X121749264Y-78322000D01*
X121738303Y-78322959D01*
X121502074Y-78364613D01*
X121491447Y-78367460D01*
X121266040Y-78449502D01*
X121256068Y-78454152D01*
X121048332Y-78574088D01*
X121039319Y-78580399D01*
X120855566Y-78734587D01*
X120847787Y-78742366D01*
X120693599Y-78926119D01*
X120687288Y-78935132D01*
X120567352Y-79142868D01*
X120562702Y-79152840D01*
X120480660Y-79378247D01*
X120477813Y-79388874D01*
X120436159Y-79625103D01*
X120435200Y-79636064D01*
X120435200Y-79875936D01*
X120436159Y-79886897D01*
X120477813Y-80123126D01*
X120480660Y-80133753D01*
X120562702Y-80359160D01*
X120567352Y-80369132D01*
X120687288Y-80576868D01*
X120693599Y-80585881D01*
X120847787Y-80769634D01*
X120855566Y-80777413D01*
X121039319Y-80931601D01*
X121048332Y-80937912D01*
X121256068Y-81057848D01*
X121266040Y-81062498D01*
X121491447Y-81144540D01*
X121502074Y-81147387D01*
X121738303Y-81189041D01*
X121749264Y-81190000D01*
X121989136Y-81190000D01*
X122000097Y-81189041D01*
X122236325Y-81147387D01*
X122246953Y-81144540D01*
X122249200Y-81143722D01*
X122249200Y-81882046D01*
X122125566Y-81985787D01*
X122117787Y-81993566D01*
X121963599Y-82177319D01*
X121957288Y-82186332D01*
X121837352Y-82394068D01*
X121832702Y-82404040D01*
X121750660Y-82629447D01*
X121747813Y-82640074D01*
X121706159Y-82876303D01*
X121705200Y-82887264D01*
X121705200Y-83127136D01*
X121706159Y-83138097D01*
X121747813Y-83374326D01*
X121750660Y-83384953D01*
X121832702Y-83610360D01*
X121837352Y-83620332D01*
X121957288Y-83828068D01*
X121963599Y-83837081D01*
X122117787Y-84020834D01*
X122125566Y-84028613D01*
X122309319Y-84182801D01*
X122318332Y-84189112D01*
X122526068Y-84309048D01*
X122536040Y-84313698D01*
X122761447Y-84395740D01*
X122772074Y-84398587D01*
X123008303Y-84440241D01*
X123019264Y-84441200D01*
X123259136Y-84441200D01*
X123270097Y-84440241D01*
X123506326Y-84398587D01*
X123516953Y-84395740D01*
X123742360Y-84313698D01*
X123752332Y-84309048D01*
X123960068Y-84189112D01*
X123969081Y-84182801D01*
X124152834Y-84028613D01*
X124160613Y-84020834D01*
X124314801Y-83837081D01*
X124321112Y-83828068D01*
X124441048Y-83620332D01*
X124445698Y-83610360D01*
X124461001Y-83568317D01*
X124461001Y-90066084D01*
X124445698Y-90024040D01*
X124441048Y-90014068D01*
X124321112Y-89806332D01*
X124314801Y-89797319D01*
X124160613Y-89613566D01*
X124152834Y-89605787D01*
X123969081Y-89451599D01*
X123960068Y-89445288D01*
X123752332Y-89325352D01*
X123742360Y-89320702D01*
X123516953Y-89238660D01*
X123506326Y-89235813D01*
X123270097Y-89194159D01*
X123259136Y-89193200D01*
X123019264Y-89193200D01*
X123008303Y-89194159D01*
X122772074Y-89235813D01*
X122761447Y-89238660D01*
X122536040Y-89320702D01*
X122526068Y-89325352D01*
X122318332Y-89445288D01*
X122309319Y-89451599D01*
X122125566Y-89605787D01*
X122117787Y-89613566D01*
X121963599Y-89797319D01*
X121957288Y-89806332D01*
X121837352Y-90014068D01*
X121832702Y-90024040D01*
X121750660Y-90249447D01*
X121747813Y-90260074D01*
X121706159Y-90496303D01*
X121705200Y-90507264D01*
X121705200Y-90747136D01*
X121706159Y-90758097D01*
X121747813Y-90994326D01*
X121750660Y-91004953D01*
X121832702Y-91230360D01*
X121837352Y-91240332D01*
X121957288Y-91448068D01*
X121963599Y-91457081D01*
X122117787Y-91640834D01*
X122125566Y-91648613D01*
X122309319Y-91802801D01*
X122318332Y-91809112D01*
X122526068Y-91929048D01*
X122536040Y-91933698D01*
X122761447Y-92015740D01*
X122772074Y-92018587D01*
X123008303Y-92060241D01*
X123019264Y-92061200D01*
X123259136Y-92061200D01*
X123270097Y-92060241D01*
X123506326Y-92018587D01*
X123516953Y-92015740D01*
X123742360Y-91933698D01*
X123752332Y-91929048D01*
X123960068Y-91809112D01*
X123969081Y-91802801D01*
X124152834Y-91648613D01*
X124160613Y-91640834D01*
X124314801Y-91457081D01*
X124321112Y-91448068D01*
X124441048Y-91240332D01*
X124445698Y-91230360D01*
X124461001Y-91188316D01*
X124461001Y-94123854D01*
X124273291Y-94007470D01*
X124263778Y-94002633D01*
X124032500Y-93908721D01*
X124022308Y-93905556D01*
X123778513Y-93851954D01*
X123767934Y-93850552D01*
X123518592Y-93838794D01*
X123507928Y-93839194D01*
X123260170Y-93869614D01*
X123249725Y-93871806D01*
X123010635Y-93943537D01*
X123000709Y-93947457D01*
X122777123Y-94058446D01*
X122768000Y-94063982D01*
X122566311Y-94211056D01*
X122558250Y-94218051D01*
X122518774Y-94258645D01*
X122495863Y-94173142D01*
X122483120Y-94148662D01*
X122352010Y-93992410D01*
X122335121Y-93978239D01*
X122160880Y-93877641D01*
X122140163Y-93870100D01*
X121947462Y-93836122D01*
X121936501Y-93835163D01*
X120747811Y-93835163D01*
X120692634Y-93779986D01*
X120682369Y-93763717D01*
X120670733Y-93750045D01*
X120601914Y-93689266D01*
X120580166Y-93667517D01*
X120573392Y-93661644D01*
X120555208Y-93648016D01*
X120493245Y-93593293D01*
X120478240Y-93583436D01*
X120453605Y-93571870D01*
X120431844Y-93555561D01*
X120416097Y-93546939D01*
X120338718Y-93517930D01*
X120263716Y-93482717D01*
X120246160Y-93477408D01*
X120220328Y-93473548D01*
X120194369Y-93463816D01*
X120176834Y-93459961D01*
X120082512Y-93452951D01*
X120059366Y-93449492D01*
X120050041Y-93448799D01*
X120026640Y-93448799D01*
X119940688Y-93442412D01*
X119922776Y-93443633D01*
X119898576Y-93448799D01*
X117088907Y-93448799D01*
X117070155Y-93444556D01*
X117052261Y-93443116D01*
X116960655Y-93448799D01*
X116929863Y-93448799D01*
X116920921Y-93449436D01*
X116898410Y-93452660D01*
X116815917Y-93457778D01*
X116798337Y-93461418D01*
X116772743Y-93470657D01*
X116745819Y-93474513D01*
X116728588Y-93479552D01*
X116653346Y-93513761D01*
X116575426Y-93541891D01*
X116559258Y-93550551D01*
X116538264Y-93566086D01*
X116513027Y-93577561D01*
X116497901Y-93587234D01*
X116426257Y-93648966D01*
X116407435Y-93662894D01*
X116400351Y-93668998D01*
X116383801Y-93685549D01*
X116318511Y-93741806D01*
X116306709Y-93755335D01*
X116293251Y-93776098D01*
X115882849Y-94186501D01*
X115856423Y-94179519D01*
X115846242Y-94177706D01*
X115594770Y-94153935D01*
X115584429Y-94153808D01*
X115332451Y-94171429D01*
X115322229Y-94172993D01*
X115076513Y-94231531D01*
X115066683Y-94234743D01*
X114833827Y-94332627D01*
X114824654Y-94337402D01*
X114610912Y-94472003D01*
X114602642Y-94478212D01*
X114413754Y-94645914D01*
X114406609Y-94653391D01*
X114299627Y-94785503D01*
X114220031Y-94682146D01*
X114213072Y-94674497D01*
X114028337Y-94502229D01*
X114020221Y-94495819D01*
X113809832Y-94356036D01*
X113800778Y-94351038D01*
X113570383Y-94247495D01*
X113560634Y-94244043D01*
X113316423Y-94179519D01*
X113306242Y-94177706D01*
X113240402Y-94171482D01*
X113158000Y-94246461D01*
X113158000Y-95886000D01*
X112902000Y-95886000D01*
X112902000Y-94242957D01*
X112806184Y-94167286D01*
X112536513Y-94231531D01*
X112526683Y-94234743D01*
X112293827Y-94332627D01*
X112284654Y-94337402D01*
X112070912Y-94472003D01*
X112062642Y-94478212D01*
X112025923Y-94510812D01*
X112020063Y-94488942D01*
X112007320Y-94464462D01*
X111876210Y-94308210D01*
X111859321Y-94294039D01*
X111685080Y-94193441D01*
X111664363Y-94185900D01*
X111471662Y-94151922D01*
X111460701Y-94150963D01*
X109516542Y-94150963D01*
X109500166Y-94153119D01*
X109220942Y-94227937D01*
X109196462Y-94240680D01*
X109040210Y-94371790D01*
X109026039Y-94388679D01*
X108925441Y-94562920D01*
X108917900Y-94583637D01*
X108883922Y-94776338D01*
X108882963Y-94787299D01*
X108882963Y-96731458D01*
X108885119Y-96747834D01*
X108959937Y-97027059D01*
X108972680Y-97051539D01*
X109060333Y-97156000D01*
X104569823Y-97156000D01*
X104594834Y-97135013D01*
X104602613Y-97127234D01*
X104756801Y-96943481D01*
X104763112Y-96934468D01*
X104883048Y-96726732D01*
X104887698Y-96716760D01*
X104969740Y-96491353D01*
X104972587Y-96480726D01*
X105014241Y-96244497D01*
X105015200Y-96233536D01*
X105015200Y-95993664D01*
X105014241Y-95982703D01*
X104972587Y-95746474D01*
X104969740Y-95735847D01*
X104887698Y-95510440D01*
X104883048Y-95500468D01*
X104763112Y-95292732D01*
X104756801Y-95283719D01*
X104602613Y-95099966D01*
X104594834Y-95092187D01*
X104411081Y-94937999D01*
X104402068Y-94931688D01*
X104194332Y-94811752D01*
X104184360Y-94807102D01*
X103958953Y-94725060D01*
X103948326Y-94722213D01*
X103712097Y-94680559D01*
X103701136Y-94679600D01*
X103461264Y-94679600D01*
X103450303Y-94680559D01*
X103214074Y-94722213D01*
X103203447Y-94725060D01*
X102978040Y-94807102D01*
X102968068Y-94811752D01*
X102760332Y-94931688D01*
X102751319Y-94937999D01*
X102567566Y-95092187D01*
X102559787Y-95099966D01*
X102405599Y-95283719D01*
X102399288Y-95292732D01*
X102279352Y-95500468D01*
X102274702Y-95510440D01*
X102234000Y-95622267D01*
X102234000Y-91526919D01*
X107312989Y-91526919D01*
X107313437Y-91536259D01*
X107346784Y-91807839D01*
X107348608Y-91817010D01*
X107421729Y-92080677D01*
X107424889Y-92089478D01*
X107536180Y-92339442D01*
X107540606Y-92347679D01*
X107687621Y-92578447D01*
X107693215Y-92585939D01*
X107872726Y-92792442D01*
X107879367Y-92799025D01*
X108087429Y-92976727D01*
X108094969Y-92982256D01*
X108327011Y-93127252D01*
X108335286Y-93131605D01*
X108586212Y-93240711D01*
X108595040Y-93243794D01*
X108859335Y-93314611D01*
X108868521Y-93316355D01*
X109140382Y-93347329D01*
X109149725Y-93347696D01*
X109423178Y-93338148D01*
X109432473Y-93337130D01*
X109701510Y-93287266D01*
X109710552Y-93284885D01*
X109969264Y-93195804D01*
X109977855Y-93192113D01*
X110220559Y-93065770D01*
X110228511Y-93060849D01*
X110449872Y-92900020D01*
X110457009Y-92893979D01*
X110652168Y-92702197D01*
X110658333Y-92695166D01*
X110823002Y-92476644D01*
X110828060Y-92468780D01*
X110958620Y-92228319D01*
X110962460Y-92219794D01*
X111056043Y-91962675D01*
X111058581Y-91953676D01*
X111113297Y-91684741D01*
X111114543Y-91673809D01*
X111118389Y-91526919D01*
X112392989Y-91526919D01*
X112393437Y-91536259D01*
X112426784Y-91807839D01*
X112428608Y-91817010D01*
X112501729Y-92080677D01*
X112504889Y-92089478D01*
X112616180Y-92339442D01*
X112620606Y-92347679D01*
X112767621Y-92578447D01*
X112773215Y-92585939D01*
X112952726Y-92792442D01*
X112959367Y-92799025D01*
X113167429Y-92976727D01*
X113174969Y-92982256D01*
X113407011Y-93127252D01*
X113415286Y-93131605D01*
X113666212Y-93240711D01*
X113675040Y-93243794D01*
X113939335Y-93314611D01*
X113948521Y-93316355D01*
X114220382Y-93347329D01*
X114229725Y-93347696D01*
X114503178Y-93338148D01*
X114512473Y-93337130D01*
X114781510Y-93287266D01*
X114790552Y-93284885D01*
X115049264Y-93195804D01*
X115057855Y-93192113D01*
X115300559Y-93065770D01*
X115308511Y-93060849D01*
X115529872Y-92900020D01*
X115537009Y-92893979D01*
X115732168Y-92702197D01*
X115738333Y-92695166D01*
X115903002Y-92476644D01*
X115908060Y-92468780D01*
X116038620Y-92228319D01*
X116042460Y-92219794D01*
X116136043Y-91962675D01*
X116138581Y-91953676D01*
X116193297Y-91684741D01*
X116194543Y-91673809D01*
X116195380Y-91641808D01*
X117468163Y-91641808D01*
X117468163Y-92718258D01*
X117470319Y-92734634D01*
X117545137Y-93013859D01*
X117557880Y-93038339D01*
X117688990Y-93194590D01*
X117705879Y-93208761D01*
X117880120Y-93309359D01*
X117900837Y-93316900D01*
X118093538Y-93350878D01*
X118104499Y-93351837D01*
X119178191Y-93351837D01*
X119252000Y-93278028D01*
X119507999Y-93278028D01*
X119581808Y-93351837D01*
X120658258Y-93351837D01*
X120674634Y-93349681D01*
X120953859Y-93274863D01*
X120978339Y-93262120D01*
X121134590Y-93131010D01*
X121148761Y-93114121D01*
X121249359Y-92939880D01*
X121256900Y-92919163D01*
X121290878Y-92726462D01*
X121291837Y-92715501D01*
X121291837Y-91641809D01*
X121218028Y-91568000D01*
X119581809Y-91567999D01*
X119508000Y-91641808D01*
X119507999Y-93278028D01*
X119252000Y-93278028D01*
X119252001Y-91641809D01*
X119178192Y-91568000D01*
X117541972Y-91567999D01*
X117468163Y-91641808D01*
X116195380Y-91641808D01*
X116204183Y-91305665D01*
X116203511Y-91294683D01*
X116162946Y-91023252D01*
X116160882Y-91014132D01*
X116080883Y-90752468D01*
X116077494Y-90743753D01*
X115959698Y-90496789D01*
X115955058Y-90488671D01*
X115802052Y-90261831D01*
X115796264Y-90254488D01*
X115713805Y-90164499D01*
X117468163Y-90164499D01*
X117468163Y-91238191D01*
X117541972Y-91312000D01*
X119178191Y-91312001D01*
X119252000Y-91238192D01*
X119252000Y-91238191D01*
X119507999Y-91238191D01*
X119581808Y-91312000D01*
X121218028Y-91312001D01*
X121291837Y-91238192D01*
X121291837Y-90161742D01*
X121289681Y-90145366D01*
X121214863Y-89866142D01*
X121202120Y-89841662D01*
X121071010Y-89685410D01*
X121054121Y-89671239D01*
X120879880Y-89570641D01*
X120859163Y-89563100D01*
X120666462Y-89529122D01*
X120655501Y-89528163D01*
X119581809Y-89528163D01*
X119508000Y-89601972D01*
X119507999Y-91238191D01*
X119252000Y-91238191D01*
X119252001Y-89601972D01*
X119178192Y-89528163D01*
X118101742Y-89528163D01*
X118085366Y-89530319D01*
X117806142Y-89605137D01*
X117781662Y-89617880D01*
X117625410Y-89748990D01*
X117611239Y-89765879D01*
X117510641Y-89940120D01*
X117503100Y-89960837D01*
X117469122Y-90153538D01*
X117468163Y-90164499D01*
X115713805Y-90164499D01*
X115611410Y-90052754D01*
X115604599Y-90046347D01*
X115391957Y-89874153D01*
X115384274Y-89868824D01*
X115196789Y-89758387D01*
X115286703Y-89774241D01*
X115297664Y-89775200D01*
X115537536Y-89775200D01*
X115548497Y-89774241D01*
X115784726Y-89732587D01*
X115795353Y-89729740D01*
X116020760Y-89647698D01*
X116030732Y-89643048D01*
X116238468Y-89523112D01*
X116247481Y-89516801D01*
X116431234Y-89362613D01*
X116439013Y-89354834D01*
X116593201Y-89171081D01*
X116599512Y-89162068D01*
X116719448Y-88954332D01*
X116724098Y-88944360D01*
X116806140Y-88718953D01*
X116808987Y-88708326D01*
X116850641Y-88472097D01*
X116851600Y-88461136D01*
X116851600Y-88221264D01*
X116850641Y-88210303D01*
X116808987Y-87974074D01*
X116806140Y-87963447D01*
X116724098Y-87738040D01*
X116719448Y-87728068D01*
X116599512Y-87520332D01*
X116593201Y-87511319D01*
X116439013Y-87327566D01*
X116431234Y-87319787D01*
X116247481Y-87165599D01*
X116238468Y-87159288D01*
X116030732Y-87039352D01*
X116020760Y-87034702D01*
X115795353Y-86952660D01*
X115784726Y-86949813D01*
X115548497Y-86908159D01*
X115537536Y-86907200D01*
X115297664Y-86907200D01*
X115286703Y-86908159D01*
X115050474Y-86949813D01*
X115039847Y-86952660D01*
X114814440Y-87034702D01*
X114804468Y-87039352D01*
X114596732Y-87159288D01*
X114587719Y-87165599D01*
X114403966Y-87319787D01*
X114396187Y-87327566D01*
X114241999Y-87511319D01*
X114235688Y-87520332D01*
X114115752Y-87728068D01*
X114111102Y-87738040D01*
X114029060Y-87963447D01*
X114026213Y-87974074D01*
X113984559Y-88210303D01*
X113983600Y-88221264D01*
X113983600Y-88461136D01*
X113984559Y-88472097D01*
X114026213Y-88708326D01*
X114029060Y-88718953D01*
X114111102Y-88944360D01*
X114115752Y-88954332D01*
X114235688Y-89162068D01*
X114241999Y-89171081D01*
X114396187Y-89354834D01*
X114403966Y-89362613D01*
X114587719Y-89516801D01*
X114596732Y-89523112D01*
X114685504Y-89574364D01*
X114611470Y-89556590D01*
X114602241Y-89555087D01*
X114329663Y-89531240D01*
X114320313Y-89531118D01*
X114047204Y-89547821D01*
X114037939Y-89549082D01*
X113770299Y-89605971D01*
X113761322Y-89608588D01*
X113505031Y-89704411D01*
X113496539Y-89708325D01*
X113257226Y-89840979D01*
X113249406Y-89846105D01*
X113032330Y-90012675D01*
X113025354Y-90018901D01*
X112835282Y-90215726D01*
X112829303Y-90222915D01*
X112670412Y-90445673D01*
X112665561Y-90453667D01*
X112541341Y-90697463D01*
X112537725Y-90706086D01*
X112450904Y-90965565D01*
X112448602Y-90974628D01*
X112401088Y-91244090D01*
X112400152Y-91253394D01*
X112392989Y-91526919D01*
X111118389Y-91526919D01*
X111124183Y-91305665D01*
X111123511Y-91294683D01*
X111082946Y-91023252D01*
X111080882Y-91014132D01*
X111000883Y-90752468D01*
X110997494Y-90743753D01*
X110879698Y-90496789D01*
X110875058Y-90488671D01*
X110722052Y-90261831D01*
X110716264Y-90254488D01*
X110531410Y-90052754D01*
X110524599Y-90046347D01*
X110311957Y-89874153D01*
X110304274Y-89868824D01*
X110068515Y-89729951D01*
X110060129Y-89725815D01*
X109806433Y-89623316D01*
X109797528Y-89620466D01*
X109531470Y-89556590D01*
X109522241Y-89555087D01*
X109249663Y-89531240D01*
X109240313Y-89531118D01*
X108967204Y-89547821D01*
X108957939Y-89549082D01*
X108690299Y-89605971D01*
X108681322Y-89608588D01*
X108425031Y-89704411D01*
X108416539Y-89708325D01*
X108177226Y-89840979D01*
X108169406Y-89846105D01*
X107952330Y-90012675D01*
X107945354Y-90018901D01*
X107755282Y-90215726D01*
X107749303Y-90222915D01*
X107590412Y-90445673D01*
X107585561Y-90453667D01*
X107461341Y-90697463D01*
X107457725Y-90706086D01*
X107370904Y-90965565D01*
X107368602Y-90974628D01*
X107321088Y-91244090D01*
X107320152Y-91253394D01*
X107312989Y-91526919D01*
X102234000Y-91526919D01*
X102234000Y-88984933D01*
X102274702Y-89096760D01*
X102279352Y-89106732D01*
X102399288Y-89314468D01*
X102405599Y-89323481D01*
X102559787Y-89507234D01*
X102567566Y-89515013D01*
X102751319Y-89669201D01*
X102760332Y-89675512D01*
X102968068Y-89795448D01*
X102978040Y-89800098D01*
X103203447Y-89882140D01*
X103214074Y-89884987D01*
X103363182Y-89911280D01*
X103453200Y-89835746D01*
X103709199Y-89835746D01*
X103799217Y-89911279D01*
X103948325Y-89884987D01*
X103958953Y-89882140D01*
X104184360Y-89800098D01*
X104194332Y-89795448D01*
X104402068Y-89675512D01*
X104411081Y-89669201D01*
X104594834Y-89515013D01*
X104602613Y-89507234D01*
X104756801Y-89323481D01*
X104763112Y-89314468D01*
X104883048Y-89106732D01*
X104887698Y-89096760D01*
X104969740Y-88871353D01*
X104972587Y-88860726D01*
X104998880Y-88711618D01*
X104923346Y-88621600D01*
X103783009Y-88621599D01*
X103709200Y-88695408D01*
X103709199Y-89835746D01*
X103453200Y-89835746D01*
X103453201Y-88695408D01*
X103453200Y-88695407D01*
X103453200Y-88291791D01*
X103709199Y-88291791D01*
X103783008Y-88365600D01*
X104923346Y-88365601D01*
X104998879Y-88275583D01*
X104988631Y-88217464D01*
X110910200Y-88217464D01*
X110910200Y-88457336D01*
X110911159Y-88468297D01*
X110952813Y-88704526D01*
X110955660Y-88715153D01*
X111037702Y-88940560D01*
X111042352Y-88950532D01*
X111162288Y-89158268D01*
X111168599Y-89167281D01*
X111322787Y-89351034D01*
X111330566Y-89358813D01*
X111514319Y-89513001D01*
X111523332Y-89519312D01*
X111731068Y-89639248D01*
X111741040Y-89643898D01*
X111966447Y-89725940D01*
X111977074Y-89728787D01*
X112213303Y-89770441D01*
X112224264Y-89771400D01*
X112464136Y-89771400D01*
X112475097Y-89770441D01*
X112711326Y-89728787D01*
X112721953Y-89725940D01*
X112947360Y-89643898D01*
X112957332Y-89639248D01*
X113165068Y-89519312D01*
X113174081Y-89513001D01*
X113357834Y-89358813D01*
X113365613Y-89351034D01*
X113519801Y-89167281D01*
X113526112Y-89158268D01*
X113646048Y-88950532D01*
X113650698Y-88940560D01*
X113732740Y-88715153D01*
X113735587Y-88704526D01*
X113777241Y-88468297D01*
X113778200Y-88457336D01*
X113778200Y-88217464D01*
X113777241Y-88206503D01*
X113735587Y-87970274D01*
X113732740Y-87959647D01*
X113650698Y-87734240D01*
X113646048Y-87724268D01*
X113526112Y-87516532D01*
X113519801Y-87507519D01*
X113365613Y-87323766D01*
X113357834Y-87315987D01*
X113174081Y-87161799D01*
X113165068Y-87155488D01*
X112957332Y-87035552D01*
X112947360Y-87030902D01*
X112721953Y-86948860D01*
X112711326Y-86946013D01*
X112475097Y-86904359D01*
X112464136Y-86903400D01*
X112224264Y-86903400D01*
X112213303Y-86904359D01*
X111977074Y-86946013D01*
X111966447Y-86948860D01*
X111741040Y-87030902D01*
X111731068Y-87035552D01*
X111523332Y-87155488D01*
X111514319Y-87161799D01*
X111330566Y-87315987D01*
X111322787Y-87323766D01*
X111168599Y-87507519D01*
X111162288Y-87516532D01*
X111042352Y-87724268D01*
X111037702Y-87734240D01*
X110955660Y-87959647D01*
X110952813Y-87970274D01*
X110911159Y-88206503D01*
X110910200Y-88217464D01*
X104988631Y-88217464D01*
X104972587Y-88126475D01*
X104969740Y-88115847D01*
X104887698Y-87890440D01*
X104883048Y-87880468D01*
X104763112Y-87672732D01*
X104756801Y-87663719D01*
X104602613Y-87479966D01*
X104594834Y-87472187D01*
X104411081Y-87317999D01*
X104402068Y-87311688D01*
X104194332Y-87191752D01*
X104184360Y-87187102D01*
X103958953Y-87105060D01*
X103948326Y-87102213D01*
X103799218Y-87075920D01*
X103709200Y-87151454D01*
X103709199Y-88291791D01*
X103453200Y-88291791D01*
X103453201Y-87151454D01*
X103363183Y-87075921D01*
X103214075Y-87102213D01*
X103203447Y-87105060D01*
X102978040Y-87187102D01*
X102968068Y-87191752D01*
X102760332Y-87311688D01*
X102751319Y-87317999D01*
X102567566Y-87472187D01*
X102559787Y-87479966D01*
X102405599Y-87663719D01*
X102399288Y-87672732D01*
X102279352Y-87880468D01*
X102274702Y-87890440D01*
X102234000Y-88002267D01*
X102234000Y-84487699D01*
X105593763Y-84487699D01*
X105593763Y-86101458D01*
X105595919Y-86117834D01*
X105670737Y-86397059D01*
X105683480Y-86421539D01*
X105814590Y-86577790D01*
X105831479Y-86591961D01*
X106005720Y-86692559D01*
X106026437Y-86700100D01*
X106219138Y-86734078D01*
X106230099Y-86735037D01*
X107843858Y-86735037D01*
X107860234Y-86732881D01*
X108139459Y-86658063D01*
X108163939Y-86645320D01*
X108320190Y-86514210D01*
X108334361Y-86497321D01*
X108434959Y-86323080D01*
X108442500Y-86302363D01*
X108476478Y-86109662D01*
X108477437Y-86098701D01*
X108477437Y-84484942D01*
X108475281Y-84468566D01*
X108400463Y-84189342D01*
X108387720Y-84164862D01*
X108256610Y-84008610D01*
X108239721Y-83994439D01*
X108065480Y-83893841D01*
X108044763Y-83886300D01*
X107895406Y-83859965D01*
X107898423Y-83837044D01*
X107087791Y-83026410D01*
X106983409Y-83026410D01*
X106172777Y-83837044D01*
X106176173Y-83862842D01*
X105931742Y-83928337D01*
X105907262Y-83941080D01*
X105751010Y-84072190D01*
X105736839Y-84089079D01*
X105636241Y-84263320D01*
X105628700Y-84284037D01*
X105594722Y-84476738D01*
X105593763Y-84487699D01*
X102234000Y-84487699D01*
X102234000Y-82673264D01*
X105601600Y-82673264D01*
X105601600Y-82913136D01*
X105602559Y-82924097D01*
X105644213Y-83160326D01*
X105647060Y-83170953D01*
X105729102Y-83396360D01*
X105733752Y-83406332D01*
X105868547Y-83639803D01*
X105991756Y-83656023D01*
X106802390Y-82845391D01*
X106802390Y-82741009D01*
X107268810Y-82741009D01*
X107268810Y-82845391D01*
X108079444Y-83656023D01*
X108202653Y-83639803D01*
X108337448Y-83406332D01*
X108342098Y-83396360D01*
X108424140Y-83170953D01*
X108426987Y-83160326D01*
X108468641Y-82924097D01*
X108469600Y-82913136D01*
X108469600Y-82673264D01*
X108468641Y-82662303D01*
X108426987Y-82426074D01*
X108424140Y-82415447D01*
X108342098Y-82190040D01*
X108337448Y-82180068D01*
X108202653Y-81946597D01*
X108079444Y-81930377D01*
X107268810Y-82741009D01*
X106802390Y-82741009D01*
X105991756Y-81930377D01*
X105868547Y-81946597D01*
X105733752Y-82180068D01*
X105729102Y-82190040D01*
X105647060Y-82415447D01*
X105644213Y-82426074D01*
X105602559Y-82662303D01*
X105601600Y-82673264D01*
X102234000Y-82673264D01*
X102234000Y-81749356D01*
X106172777Y-81749356D01*
X106983409Y-82559990D01*
X107087791Y-82559990D01*
X107898423Y-81749356D01*
X107882203Y-81626147D01*
X107648732Y-81491352D01*
X107638760Y-81486702D01*
X107413353Y-81404660D01*
X107402726Y-81401813D01*
X107166497Y-81360159D01*
X107155536Y-81359200D01*
X106915664Y-81359200D01*
X106904703Y-81360159D01*
X106668474Y-81401813D01*
X106657847Y-81404660D01*
X106432440Y-81486702D01*
X106422468Y-81491352D01*
X106188997Y-81626147D01*
X106172777Y-81749356D01*
X102234000Y-81749356D01*
X102234000Y-79973916D01*
X102307668Y-80016448D01*
X102317640Y-80021098D01*
X102543047Y-80103140D01*
X102553674Y-80105987D01*
X102789903Y-80147641D01*
X102800864Y-80148600D01*
X103040736Y-80148600D01*
X103051697Y-80147641D01*
X103287926Y-80105987D01*
X103298553Y-80103140D01*
X103523960Y-80021098D01*
X103533932Y-80016448D01*
X103741668Y-79896512D01*
X103750681Y-79890201D01*
X103934434Y-79736013D01*
X103942213Y-79728234D01*
X104096401Y-79544481D01*
X104102712Y-79535468D01*
X104222648Y-79327732D01*
X104227298Y-79317760D01*
X104309340Y-79092353D01*
X104312187Y-79081726D01*
X104353841Y-78845497D01*
X104354800Y-78834536D01*
X104354800Y-78594664D01*
X104353841Y-78583703D01*
X104312187Y-78347474D01*
X104309340Y-78336847D01*
X104227298Y-78111440D01*
X104222648Y-78101468D01*
X104102712Y-77893732D01*
X104096401Y-77884719D01*
X103942213Y-77700966D01*
X103934434Y-77693187D01*
X103750681Y-77538999D01*
X103741668Y-77532688D01*
X103533932Y-77412752D01*
X103523960Y-77408102D01*
X103298553Y-77326060D01*
X103287926Y-77323213D01*
X103051697Y-77281559D01*
X103040736Y-77280600D01*
X102800864Y-77280600D01*
X102789903Y-77281559D01*
X102553674Y-77323213D01*
X102543047Y-77326060D01*
X102317640Y-77408102D01*
X102307668Y-77412752D01*
X102234000Y-77455284D01*
X102234000Y-76798916D01*
X102307668Y-76841448D01*
X102317640Y-76846098D01*
X102543047Y-76928140D01*
X102553674Y-76930987D01*
X102702782Y-76957280D01*
X102792800Y-76881746D01*
X103048799Y-76881746D01*
X103138817Y-76957279D01*
X103287925Y-76930987D01*
X103298553Y-76928140D01*
X103523960Y-76846098D01*
X103533932Y-76841448D01*
X103741668Y-76721512D01*
X103750681Y-76715201D01*
X103934434Y-76561013D01*
X103942213Y-76553234D01*
X104096401Y-76369481D01*
X104102712Y-76360468D01*
X104222648Y-76152732D01*
X104227298Y-76142760D01*
X104309340Y-75917353D01*
X104312187Y-75906726D01*
X104338480Y-75757618D01*
X104262946Y-75667600D01*
X103122609Y-75667599D01*
X103048800Y-75741408D01*
X103048799Y-76881746D01*
X102792800Y-76881746D01*
X102792801Y-75741408D01*
X102792800Y-75741407D01*
X102792800Y-75337791D01*
X103048799Y-75337791D01*
X103122608Y-75411600D01*
X104262946Y-75411601D01*
X104338479Y-75321583D01*
X104312187Y-75172475D01*
X104309340Y-75161847D01*
X104227298Y-74936440D01*
X104222648Y-74926468D01*
X104102712Y-74718732D01*
X104096401Y-74709719D01*
X103942213Y-74525966D01*
X103934434Y-74518187D01*
X103750681Y-74363999D01*
X103741668Y-74357688D01*
X103533932Y-74237752D01*
X103523960Y-74233102D01*
X103298553Y-74151060D01*
X103287926Y-74148213D01*
X103138818Y-74121920D01*
X103048800Y-74197454D01*
X103048799Y-75337791D01*
X102792800Y-75337791D01*
X102792801Y-74197454D01*
X102702783Y-74121921D01*
X102553675Y-74148213D01*
X102543047Y-74151060D01*
X102317640Y-74233102D01*
X102307668Y-74237752D01*
X102234000Y-74280284D01*
X102234000Y-73623916D01*
X102307668Y-73666448D01*
X102317640Y-73671098D01*
X102543047Y-73753140D01*
X102553674Y-73755987D01*
X102789903Y-73797641D01*
X102800864Y-73798600D01*
X103040736Y-73798600D01*
X103051697Y-73797641D01*
X103287926Y-73755987D01*
X103298553Y-73753140D01*
X103523960Y-73671098D01*
X103533932Y-73666448D01*
X103741668Y-73546512D01*
X103750681Y-73540201D01*
X103934434Y-73386013D01*
X103942213Y-73378234D01*
X104096401Y-73194481D01*
X104102712Y-73185468D01*
X104222648Y-72977732D01*
X104227298Y-72967760D01*
X104309340Y-72742353D01*
X104312187Y-72731726D01*
X104353841Y-72495497D01*
X104354800Y-72484536D01*
X104354800Y-72244664D01*
X104353841Y-72233703D01*
X104312187Y-71997474D01*
X104309340Y-71986847D01*
X104227298Y-71761440D01*
X104222648Y-71751468D01*
X104102712Y-71543732D01*
X104096401Y-71534719D01*
X103942213Y-71350966D01*
X103934434Y-71343187D01*
X103750681Y-71188999D01*
X103741668Y-71182688D01*
X103631357Y-71119000D01*
X109830243Y-71119000D01*
X109719932Y-71182688D01*
G37*
D22*
X109719932Y-71182688D02*
X109710919Y-71188999D01*
X109527166Y-71343187D01*
X109519387Y-71350966D01*
X109365199Y-71534719D01*
X109358888Y-71543732D01*
X109238952Y-71751468D01*
X109234302Y-71761440D01*
X109152260Y-71986847D01*
X109149413Y-71997474D01*
X109107759Y-72233703D01*
X109106800Y-72244664D01*
X109106800Y-72484536D01*
X109107759Y-72495497D01*
X109149413Y-72731726D01*
X109152260Y-72742353D01*
X109234302Y-72967760D01*
X109238952Y-72977732D01*
X109358888Y-73185468D01*
X109365199Y-73194481D01*
X109519387Y-73378234D01*
X109527166Y-73386013D01*
X109710919Y-73540201D01*
X109719932Y-73546512D01*
X109927668Y-73666448D01*
X109937640Y-73671098D01*
X110163047Y-73753140D01*
X110173674Y-73755987D01*
X110409903Y-73797641D01*
X110420864Y-73798600D01*
X110660736Y-73798600D01*
X110671697Y-73797641D01*
X110907926Y-73755987D01*
X110918553Y-73753140D01*
X111143960Y-73671098D01*
X111153932Y-73666448D01*
X111361668Y-73546512D01*
X111370681Y-73540201D01*
X111554434Y-73386013D01*
X111558227Y-73382220D01*
X111643790Y-73484190D01*
X111660679Y-73498361D01*
X111834920Y-73598959D01*
X111855637Y-73606500D01*
X112048338Y-73640478D01*
X112059299Y-73641437D01*
X113378388Y-73641437D01*
X113749369Y-74012418D01*
X113759632Y-74028684D01*
X113771267Y-74042355D01*
X113819511Y-74084963D01*
X113326542Y-74084963D01*
X113310166Y-74087119D01*
X113030942Y-74161937D01*
X113006462Y-74174680D01*
X112850210Y-74305790D01*
X112836039Y-74322679D01*
X112735441Y-74496920D01*
X112727900Y-74517637D01*
X112693922Y-74710338D01*
X112692963Y-74721299D01*
X112692963Y-76433114D01*
X111967321Y-75707472D01*
X111973841Y-75670497D01*
X111974800Y-75659536D01*
X111974800Y-75419664D01*
X111973841Y-75408703D01*
X111932187Y-75172474D01*
X111929340Y-75161847D01*
X111847298Y-74936440D01*
X111842648Y-74926468D01*
X111722712Y-74718732D01*
X111716401Y-74709719D01*
X111562213Y-74525966D01*
X111554434Y-74518187D01*
X111370681Y-74363999D01*
X111361668Y-74357688D01*
X111153932Y-74237752D01*
X111143960Y-74233102D01*
X110918553Y-74151060D01*
X110907926Y-74148213D01*
X110671697Y-74106559D01*
X110660736Y-74105600D01*
X110420864Y-74105600D01*
X110409903Y-74106559D01*
X110173674Y-74148213D01*
X110163047Y-74151060D01*
X109937640Y-74233102D01*
X109927668Y-74237752D01*
X109719932Y-74357688D01*
X109710919Y-74363999D01*
X109527166Y-74518187D01*
X109519387Y-74525966D01*
X109365199Y-74709719D01*
X109358888Y-74718732D01*
X109238952Y-74926468D01*
X109234302Y-74936440D01*
X109152260Y-75161847D01*
X109149413Y-75172474D01*
X109107759Y-75408703D01*
X109106800Y-75419664D01*
X109106800Y-75659536D01*
X109107759Y-75670497D01*
X109149413Y-75906726D01*
X109152260Y-75917353D01*
X109234302Y-76142760D01*
X109238952Y-76152732D01*
X109358888Y-76360468D01*
X109365199Y-76369481D01*
X109519387Y-76553234D01*
X109527166Y-76561013D01*
X109710919Y-76715201D01*
X109719932Y-76721512D01*
X109927668Y-76841448D01*
X109937640Y-76846098D01*
X110163047Y-76928140D01*
X110173674Y-76930987D01*
X110409903Y-76972641D01*
X110420864Y-76973600D01*
X110660736Y-76973600D01*
X110671697Y-76972641D01*
X110708672Y-76966121D01*
X111157176Y-77414625D01*
X111153932Y-77412752D01*
X111143960Y-77408102D01*
X110918553Y-77326060D01*
X110907926Y-77323213D01*
X110671697Y-77281559D01*
X110660736Y-77280600D01*
X110420864Y-77280600D01*
X110409903Y-77281559D01*
X110173674Y-77323213D01*
X110163047Y-77326060D01*
X109937640Y-77408102D01*
X109927668Y-77412752D01*
X109719932Y-77532688D01*
X109710919Y-77538999D01*
X109527166Y-77693187D01*
X109519387Y-77700966D01*
X109365199Y-77884719D01*
X109358888Y-77893732D01*
X109238952Y-78101468D01*
X109234302Y-78111440D01*
X109152260Y-78336847D01*
X109149413Y-78347474D01*
X109107759Y-78583703D01*
X109106800Y-78594664D01*
X109106800Y-78834536D01*
X109107759Y-78845497D01*
X109149413Y-79081726D01*
X109152260Y-79092353D01*
X109234302Y-79317760D01*
X109238952Y-79327732D01*
X109358888Y-79535468D01*
X109365199Y-79544481D01*
X109519387Y-79728234D01*
X109527166Y-79736013D01*
X109710919Y-79890201D01*
X109719932Y-79896512D01*
X109927668Y-80016448D01*
X109937640Y-80021098D01*
X110163047Y-80103140D01*
X110173674Y-80105987D01*
X110409903Y-80147641D01*
X110420864Y-80148600D01*
X110660736Y-80148600D01*
X110671697Y-80147641D01*
X110907926Y-80105987D01*
X110918553Y-80103140D01*
X111143960Y-80021098D01*
X111153932Y-80016448D01*
X111361668Y-79896512D01*
X111370681Y-79890201D01*
X111554434Y-79736013D01*
X111562213Y-79728234D01*
X111716401Y-79544481D01*
X111722712Y-79535468D01*
X111842648Y-79327732D01*
X111847298Y-79317760D01*
X111929340Y-79092353D01*
X111932187Y-79081726D01*
X111973841Y-78845497D01*
X111974800Y-78834536D01*
X111974800Y-78594664D01*
X111973841Y-78583703D01*
X111932187Y-78347474D01*
X111929340Y-78336847D01*
X111847298Y-78111440D01*
X111842648Y-78101468D01*
X111840774Y-78098223D01*
X112533367Y-78790815D01*
X112543629Y-78807080D01*
X112555265Y-78820753D01*
X112624077Y-78881526D01*
X112645833Y-78903283D01*
X112652607Y-78909156D01*
X112670799Y-78922790D01*
X112732754Y-78977506D01*
X112747759Y-78987363D01*
X112772388Y-78998926D01*
X112794155Y-79015240D01*
X112809902Y-79023861D01*
X112887280Y-79052868D01*
X112935500Y-79075508D01*
X113084038Y-79278458D01*
X113090809Y-79286275D01*
X113271280Y-79463004D01*
X113279236Y-79469610D01*
X113323326Y-79500483D01*
X113143754Y-79659914D01*
X113136609Y-79667391D01*
X112977647Y-79863693D01*
X112971820Y-79872236D01*
X112847054Y-80091864D01*
X112842699Y-80101244D01*
X112755479Y-80338300D01*
X112752716Y-80348266D01*
X112705385Y-80596384D01*
X112704286Y-80606667D01*
X112698114Y-80859185D01*
X112698710Y-80869509D01*
X112733864Y-81119643D01*
X112736137Y-81129732D01*
X112811673Y-81370766D01*
X112815564Y-81380348D01*
X112891760Y-81531191D01*
X112512072Y-81910879D01*
X112475097Y-81904359D01*
X112464136Y-81903400D01*
X112224264Y-81903400D01*
X112213303Y-81904359D01*
X111977074Y-81946013D01*
X111966447Y-81948860D01*
X111741040Y-82030902D01*
X111731068Y-82035552D01*
X111523332Y-82155488D01*
X111514319Y-82161799D01*
X111330566Y-82315987D01*
X111322787Y-82323766D01*
X111168599Y-82507519D01*
X111162288Y-82516532D01*
X111042352Y-82724268D01*
X111037702Y-82734240D01*
X110955660Y-82959647D01*
X110952813Y-82970274D01*
X110911159Y-83206503D01*
X110910200Y-83217464D01*
X110910200Y-83457336D01*
X110911159Y-83468297D01*
X110952813Y-83704526D01*
X110955660Y-83715153D01*
X111037702Y-83940560D01*
X111042352Y-83950532D01*
X111162288Y-84158268D01*
X111168599Y-84167281D01*
X111322787Y-84351034D01*
X111330566Y-84358813D01*
X111514319Y-84513001D01*
X111523332Y-84519312D01*
X111731068Y-84639248D01*
X111741040Y-84643898D01*
X111966447Y-84725940D01*
X111977074Y-84728787D01*
X112213303Y-84770441D01*
X112224264Y-84771400D01*
X112464136Y-84771400D01*
X112475097Y-84770441D01*
X112711326Y-84728787D01*
X112721953Y-84725940D01*
X112947360Y-84643898D01*
X112957332Y-84639248D01*
X113165068Y-84519312D01*
X113174081Y-84513001D01*
X113357834Y-84358813D01*
X113365613Y-84351034D01*
X113519801Y-84167281D01*
X113526112Y-84158268D01*
X113646048Y-83950532D01*
X113650698Y-83940560D01*
X113732740Y-83715153D01*
X113735587Y-83704526D01*
X113777241Y-83468297D01*
X113778200Y-83457336D01*
X113778200Y-83217464D01*
X113777241Y-83206503D01*
X113770722Y-83169529D01*
X114058964Y-82881286D01*
X114029060Y-82963447D01*
X114026213Y-82974074D01*
X113984559Y-83210303D01*
X113983600Y-83221264D01*
X113983600Y-83461136D01*
X113984559Y-83472097D01*
X114026213Y-83708326D01*
X114029060Y-83718953D01*
X114111102Y-83944360D01*
X114115752Y-83954332D01*
X114235688Y-84162068D01*
X114241999Y-84171081D01*
X114396187Y-84354834D01*
X114403966Y-84362613D01*
X114587719Y-84516801D01*
X114596732Y-84523112D01*
X114804468Y-84643048D01*
X114814440Y-84647698D01*
X115039847Y-84729740D01*
X115050474Y-84732587D01*
X115286703Y-84774241D01*
X115297664Y-84775200D01*
X115537536Y-84775200D01*
X115548497Y-84774241D01*
X115784726Y-84732587D01*
X115795353Y-84729740D01*
X116020760Y-84647698D01*
X116030732Y-84643048D01*
X116238468Y-84523112D01*
X116247481Y-84516801D01*
X116431234Y-84362613D01*
X116439013Y-84354834D01*
X116593201Y-84171081D01*
X116599512Y-84162068D01*
X116719448Y-83954332D01*
X116724098Y-83944360D01*
X116806140Y-83718953D01*
X116808987Y-83708326D01*
X116850641Y-83472097D01*
X116850763Y-83470703D01*
X116850763Y-83658258D01*
X116852919Y-83674634D01*
X116927737Y-83953859D01*
X116940480Y-83978339D01*
X117071590Y-84134590D01*
X117088479Y-84148761D01*
X117262720Y-84249359D01*
X117283437Y-84256900D01*
X117476138Y-84290878D01*
X117487099Y-84291837D01*
X119700858Y-84291837D01*
X119717234Y-84289681D01*
X119996459Y-84214863D01*
X120020939Y-84202120D01*
X120177190Y-84071010D01*
X120191361Y-84054121D01*
X120291959Y-83879880D01*
X120299500Y-83859163D01*
X120333478Y-83666462D01*
X120334437Y-83655501D01*
X120334437Y-81441742D01*
X120332281Y-81425366D01*
X120257463Y-81146142D01*
X120244720Y-81121662D01*
X120113610Y-80965410D01*
X120096721Y-80951239D01*
X119922480Y-80850641D01*
X119901763Y-80843100D01*
X119709062Y-80809122D01*
X119698101Y-80808163D01*
X117484342Y-80808163D01*
X117467966Y-80810319D01*
X117188742Y-80885137D01*
X117164262Y-80897880D01*
X117008010Y-81028990D01*
X116993839Y-81045879D01*
X116893241Y-81220120D01*
X116885700Y-81240837D01*
X116851722Y-81433538D01*
X116850763Y-81444499D01*
X116850763Y-83211697D01*
X116850641Y-83210303D01*
X116808987Y-82974074D01*
X116806140Y-82963447D01*
X116724098Y-82738040D01*
X116719448Y-82728068D01*
X116599512Y-82520332D01*
X116593201Y-82511319D01*
X116439013Y-82327566D01*
X116431234Y-82319787D01*
X116247481Y-82165599D01*
X116238468Y-82159288D01*
X116030732Y-82039352D01*
X116020760Y-82034702D01*
X115795353Y-81952660D01*
X115784726Y-81949813D01*
X115548497Y-81908159D01*
X115537536Y-81907200D01*
X115433549Y-81907200D01*
X115436055Y-81904703D01*
X115599766Y-81712344D01*
X115605801Y-81703946D01*
X115735895Y-81487431D01*
X115740477Y-81478161D01*
X115833463Y-81243306D01*
X115836470Y-81233411D01*
X115890011Y-80985769D01*
X115891418Y-80973969D01*
X115899385Y-80648013D01*
X115898556Y-80636158D01*
X115857175Y-80386197D01*
X115854655Y-80376167D01*
X115773253Y-80137050D01*
X115769130Y-80127566D01*
X115649767Y-79904955D01*
X115644149Y-79896271D01*
X115490031Y-79696146D01*
X115483072Y-79688497D01*
X115298337Y-79516229D01*
X115290221Y-79509819D01*
X115276463Y-79500679D01*
X115428730Y-79372003D01*
X115436055Y-79364703D01*
X115599766Y-79172344D01*
X115605801Y-79163946D01*
X115735895Y-78947431D01*
X115740477Y-78938161D01*
X115833463Y-78703306D01*
X115836470Y-78693411D01*
X115890011Y-78445769D01*
X115891418Y-78433969D01*
X115899385Y-78108013D01*
X115898556Y-78096158D01*
X115857175Y-77846197D01*
X115854655Y-77836167D01*
X115773253Y-77597050D01*
X115769130Y-77587566D01*
X115649767Y-77364955D01*
X115644149Y-77356271D01*
X115545629Y-77228341D01*
X115569059Y-77222063D01*
X115593539Y-77209320D01*
X115749790Y-77078210D01*
X115763961Y-77061321D01*
X115864559Y-76887080D01*
X115872100Y-76866363D01*
X115906078Y-76673662D01*
X115907037Y-76662701D01*
X115907037Y-74718542D01*
X115904881Y-74702166D01*
X115830063Y-74422942D01*
X115817320Y-74398462D01*
X115771287Y-74343601D01*
X117429293Y-74343601D01*
X117448045Y-74347844D01*
X117465939Y-74349284D01*
X117557544Y-74343601D01*
X117588336Y-74343601D01*
X117597278Y-74342964D01*
X117619799Y-74339739D01*
X117702283Y-74334622D01*
X117719863Y-74330981D01*
X117745449Y-74321744D01*
X117772381Y-74317887D01*
X117789612Y-74312848D01*
X117864848Y-74278641D01*
X117942773Y-74250509D01*
X117958940Y-74241849D01*
X117979933Y-74226315D01*
X118005175Y-74214838D01*
X118020299Y-74205166D01*
X118091959Y-74143420D01*
X118110765Y-74129504D01*
X118117848Y-74123401D01*
X118134384Y-74106864D01*
X118170212Y-74075993D01*
X118181831Y-74079768D01*
X118191458Y-74082079D01*
X118451227Y-74123223D01*
X118461097Y-74124000D01*
X118724103Y-74124000D01*
X118733973Y-74123223D01*
X118993742Y-74082079D01*
X119003369Y-74079768D01*
X119018729Y-74074777D01*
X122249201Y-77305250D01*
X122249201Y-78368278D01*
X122246953Y-78367460D01*
X122236325Y-78364613D01*
X122000097Y-78322959D01*
X121989136Y-78322000D01*
X121749264Y-78322000D01*
X121738303Y-78322959D01*
X121502074Y-78364613D01*
X121491447Y-78367460D01*
X121266040Y-78449502D01*
X121256068Y-78454152D01*
X121048332Y-78574088D01*
X121039319Y-78580399D01*
X120855566Y-78734587D01*
X120847787Y-78742366D01*
X120693599Y-78926119D01*
X120687288Y-78935132D01*
X120567352Y-79142868D01*
X120562702Y-79152840D01*
X120480660Y-79378247D01*
X120477813Y-79388874D01*
X120436159Y-79625103D01*
X120435200Y-79636064D01*
X120435200Y-79875936D01*
X120436159Y-79886897D01*
X120477813Y-80123126D01*
X120480660Y-80133753D01*
X120562702Y-80359160D01*
X120567352Y-80369132D01*
X120687288Y-80576868D01*
X120693599Y-80585881D01*
X120847787Y-80769634D01*
X120855566Y-80777413D01*
X121039319Y-80931601D01*
X121048332Y-80937912D01*
X121256068Y-81057848D01*
X121266040Y-81062498D01*
X121491447Y-81144540D01*
X121502074Y-81147387D01*
X121738303Y-81189041D01*
X121749264Y-81190000D01*
X121989136Y-81190000D01*
X122000097Y-81189041D01*
X122236325Y-81147387D01*
X122246953Y-81144540D01*
X122249200Y-81143722D01*
X122249200Y-81882046D01*
X122125566Y-81985787D01*
X122117787Y-81993566D01*
X121963599Y-82177319D01*
X121957288Y-82186332D01*
X121837352Y-82394068D01*
X121832702Y-82404040D01*
X121750660Y-82629447D01*
X121747813Y-82640074D01*
X121706159Y-82876303D01*
X121705200Y-82887264D01*
X121705200Y-83127136D01*
X121706159Y-83138097D01*
X121747813Y-83374326D01*
X121750660Y-83384953D01*
X121832702Y-83610360D01*
X121837352Y-83620332D01*
X121957288Y-83828068D01*
X121963599Y-83837081D01*
X122117787Y-84020834D01*
X122125566Y-84028613D01*
X122309319Y-84182801D01*
X122318332Y-84189112D01*
X122526068Y-84309048D01*
X122536040Y-84313698D01*
X122761447Y-84395740D01*
X122772074Y-84398587D01*
X123008303Y-84440241D01*
X123019264Y-84441200D01*
X123259136Y-84441200D01*
X123270097Y-84440241D01*
X123506326Y-84398587D01*
X123516953Y-84395740D01*
X123742360Y-84313698D01*
X123752332Y-84309048D01*
X123960068Y-84189112D01*
X123969081Y-84182801D01*
X124152834Y-84028613D01*
X124160613Y-84020834D01*
X124314801Y-83837081D01*
X124321112Y-83828068D01*
X124441048Y-83620332D01*
X124445698Y-83610360D01*
X124461001Y-83568317D01*
X124461001Y-90066084D01*
X124445698Y-90024040D01*
X124441048Y-90014068D01*
X124321112Y-89806332D01*
X124314801Y-89797319D01*
X124160613Y-89613566D01*
X124152834Y-89605787D01*
X123969081Y-89451599D01*
X123960068Y-89445288D01*
X123752332Y-89325352D01*
X123742360Y-89320702D01*
X123516953Y-89238660D01*
X123506326Y-89235813D01*
X123270097Y-89194159D01*
X123259136Y-89193200D01*
X123019264Y-89193200D01*
X123008303Y-89194159D01*
X122772074Y-89235813D01*
X122761447Y-89238660D01*
X122536040Y-89320702D01*
X122526068Y-89325352D01*
X122318332Y-89445288D01*
X122309319Y-89451599D01*
X122125566Y-89605787D01*
X122117787Y-89613566D01*
X121963599Y-89797319D01*
X121957288Y-89806332D01*
X121837352Y-90014068D01*
X121832702Y-90024040D01*
X121750660Y-90249447D01*
X121747813Y-90260074D01*
X121706159Y-90496303D01*
X121705200Y-90507264D01*
X121705200Y-90747136D01*
X121706159Y-90758097D01*
X121747813Y-90994326D01*
X121750660Y-91004953D01*
X121832702Y-91230360D01*
X121837352Y-91240332D01*
X121957288Y-91448068D01*
X121963599Y-91457081D01*
X122117787Y-91640834D01*
X122125566Y-91648613D01*
X122309319Y-91802801D01*
X122318332Y-91809112D01*
X122526068Y-91929048D01*
X122536040Y-91933698D01*
X122761447Y-92015740D01*
X122772074Y-92018587D01*
X123008303Y-92060241D01*
X123019264Y-92061200D01*
X123259136Y-92061200D01*
X123270097Y-92060241D01*
X123506326Y-92018587D01*
X123516953Y-92015740D01*
X123742360Y-91933698D01*
X123752332Y-91929048D01*
X123960068Y-91809112D01*
X123969081Y-91802801D01*
X124152834Y-91648613D01*
X124160613Y-91640834D01*
X124314801Y-91457081D01*
X124321112Y-91448068D01*
X124441048Y-91240332D01*
X124445698Y-91230360D01*
X124461001Y-91188316D01*
X124461001Y-94123854D01*
X124273291Y-94007470D01*
X124263778Y-94002633D01*
X124032500Y-93908721D01*
X124022308Y-93905556D01*
X123778513Y-93851954D01*
X123767934Y-93850552D01*
X123518592Y-93838794D01*
X123507928Y-93839194D01*
X123260170Y-93869614D01*
X123249725Y-93871806D01*
X123010635Y-93943537D01*
X123000709Y-93947457D01*
X122777123Y-94058446D01*
X122768000Y-94063982D01*
X122566311Y-94211056D01*
X122558250Y-94218051D01*
X122518774Y-94258645D01*
X122495863Y-94173142D01*
X122483120Y-94148662D01*
X122352010Y-93992410D01*
X122335121Y-93978239D01*
X122160880Y-93877641D01*
X122140163Y-93870100D01*
X121947462Y-93836122D01*
X121936501Y-93835163D01*
X120747811Y-93835163D01*
X120692634Y-93779986D01*
X120682369Y-93763717D01*
X120670733Y-93750045D01*
X120601914Y-93689266D01*
X120580166Y-93667517D01*
X120573392Y-93661644D01*
X120555208Y-93648016D01*
X120493245Y-93593293D01*
X120478240Y-93583436D01*
X120453605Y-93571870D01*
X120431844Y-93555561D01*
X120416097Y-93546939D01*
X120338718Y-93517930D01*
X120263716Y-93482717D01*
X120246160Y-93477408D01*
X120220328Y-93473548D01*
X120194369Y-93463816D01*
X120176834Y-93459961D01*
X120082512Y-93452951D01*
X120059366Y-93449492D01*
X120050041Y-93448799D01*
X120026640Y-93448799D01*
X119940688Y-93442412D01*
X119922776Y-93443633D01*
X119898576Y-93448799D01*
X117088907Y-93448799D01*
X117070155Y-93444556D01*
X117052261Y-93443116D01*
X116960655Y-93448799D01*
X116929863Y-93448799D01*
X116920921Y-93449436D01*
X116898410Y-93452660D01*
X116815917Y-93457778D01*
X116798337Y-93461418D01*
X116772743Y-93470657D01*
X116745819Y-93474513D01*
X116728588Y-93479552D01*
X116653346Y-93513761D01*
X116575426Y-93541891D01*
X116559258Y-93550551D01*
X116538264Y-93566086D01*
X116513027Y-93577561D01*
X116497901Y-93587234D01*
X116426257Y-93648966D01*
X116407435Y-93662894D01*
X116400351Y-93668998D01*
X116383801Y-93685549D01*
X116318511Y-93741806D01*
X116306709Y-93755335D01*
X116293251Y-93776098D01*
X115882849Y-94186501D01*
X115856423Y-94179519D01*
X115846242Y-94177706D01*
X115594770Y-94153935D01*
X115584429Y-94153808D01*
X115332451Y-94171429D01*
X115322229Y-94172993D01*
X115076513Y-94231531D01*
X115066683Y-94234743D01*
X114833827Y-94332627D01*
X114824654Y-94337402D01*
X114610912Y-94472003D01*
X114602642Y-94478212D01*
X114413754Y-94645914D01*
X114406609Y-94653391D01*
X114299627Y-94785503D01*
X114220031Y-94682146D01*
X114213072Y-94674497D01*
X114028337Y-94502229D01*
X114020221Y-94495819D01*
X113809832Y-94356036D01*
X113800778Y-94351038D01*
X113570383Y-94247495D01*
X113560634Y-94244043D01*
X113316423Y-94179519D01*
X113306242Y-94177706D01*
X113240402Y-94171482D01*
X113158000Y-94246461D01*
X113158000Y-95886000D01*
X112902000Y-95886000D01*
X112902000Y-94242957D01*
X112806184Y-94167286D01*
X112536513Y-94231531D01*
X112526683Y-94234743D01*
X112293827Y-94332627D01*
X112284654Y-94337402D01*
X112070912Y-94472003D01*
X112062642Y-94478212D01*
X112025923Y-94510812D01*
X112020063Y-94488942D01*
X112007320Y-94464462D01*
X111876210Y-94308210D01*
X111859321Y-94294039D01*
X111685080Y-94193441D01*
X111664363Y-94185900D01*
X111471662Y-94151922D01*
X111460701Y-94150963D01*
X109516542Y-94150963D01*
X109500166Y-94153119D01*
X109220942Y-94227937D01*
X109196462Y-94240680D01*
X109040210Y-94371790D01*
X109026039Y-94388679D01*
X108925441Y-94562920D01*
X108917900Y-94583637D01*
X108883922Y-94776338D01*
X108882963Y-94787299D01*
X108882963Y-96731458D01*
X108885119Y-96747834D01*
X108959937Y-97027059D01*
X108972680Y-97051539D01*
X109060333Y-97156000D01*
X104569823Y-97156000D01*
X104594834Y-97135013D01*
X104602613Y-97127234D01*
X104756801Y-96943481D01*
X104763112Y-96934468D01*
X104883048Y-96726732D01*
X104887698Y-96716760D01*
X104969740Y-96491353D01*
X104972587Y-96480726D01*
X105014241Y-96244497D01*
X105015200Y-96233536D01*
X105015200Y-95993664D01*
X105014241Y-95982703D01*
X104972587Y-95746474D01*
X104969740Y-95735847D01*
X104887698Y-95510440D01*
X104883048Y-95500468D01*
X104763112Y-95292732D01*
X104756801Y-95283719D01*
X104602613Y-95099966D01*
X104594834Y-95092187D01*
X104411081Y-94937999D01*
X104402068Y-94931688D01*
X104194332Y-94811752D01*
X104184360Y-94807102D01*
X103958953Y-94725060D01*
X103948326Y-94722213D01*
X103712097Y-94680559D01*
X103701136Y-94679600D01*
X103461264Y-94679600D01*
X103450303Y-94680559D01*
X103214074Y-94722213D01*
X103203447Y-94725060D01*
X102978040Y-94807102D01*
X102968068Y-94811752D01*
X102760332Y-94931688D01*
X102751319Y-94937999D01*
X102567566Y-95092187D01*
X102559787Y-95099966D01*
X102405599Y-95283719D01*
X102399288Y-95292732D01*
X102279352Y-95500468D01*
X102274702Y-95510440D01*
X102234000Y-95622267D01*
X102234000Y-91526919D01*
X107312989Y-91526919D01*
X107313437Y-91536259D01*
X107346784Y-91807839D01*
X107348608Y-91817010D01*
X107421729Y-92080677D01*
X107424889Y-92089478D01*
X107536180Y-92339442D01*
X107540606Y-92347679D01*
X107687621Y-92578447D01*
X107693215Y-92585939D01*
X107872726Y-92792442D01*
X107879367Y-92799025D01*
X108087429Y-92976727D01*
X108094969Y-92982256D01*
X108327011Y-93127252D01*
X108335286Y-93131605D01*
X108586212Y-93240711D01*
X108595040Y-93243794D01*
X108859335Y-93314611D01*
X108868521Y-93316355D01*
X109140382Y-93347329D01*
X109149725Y-93347696D01*
X109423178Y-93338148D01*
X109432473Y-93337130D01*
X109701510Y-93287266D01*
X109710552Y-93284885D01*
X109969264Y-93195804D01*
X109977855Y-93192113D01*
X110220559Y-93065770D01*
X110228511Y-93060849D01*
X110449872Y-92900020D01*
X110457009Y-92893979D01*
X110652168Y-92702197D01*
X110658333Y-92695166D01*
X110823002Y-92476644D01*
X110828060Y-92468780D01*
X110958620Y-92228319D01*
X110962460Y-92219794D01*
X111056043Y-91962675D01*
X111058581Y-91953676D01*
X111113297Y-91684741D01*
X111114543Y-91673809D01*
X111118389Y-91526919D01*
X112392989Y-91526919D01*
X112393437Y-91536259D01*
X112426784Y-91807839D01*
X112428608Y-91817010D01*
X112501729Y-92080677D01*
X112504889Y-92089478D01*
X112616180Y-92339442D01*
X112620606Y-92347679D01*
X112767621Y-92578447D01*
X112773215Y-92585939D01*
X112952726Y-92792442D01*
X112959367Y-92799025D01*
X113167429Y-92976727D01*
X113174969Y-92982256D01*
X113407011Y-93127252D01*
X113415286Y-93131605D01*
X113666212Y-93240711D01*
X113675040Y-93243794D01*
X113939335Y-93314611D01*
X113948521Y-93316355D01*
X114220382Y-93347329D01*
X114229725Y-93347696D01*
X114503178Y-93338148D01*
X114512473Y-93337130D01*
X114781510Y-93287266D01*
X114790552Y-93284885D01*
X115049264Y-93195804D01*
X115057855Y-93192113D01*
X115300559Y-93065770D01*
X115308511Y-93060849D01*
X115529872Y-92900020D01*
X115537009Y-92893979D01*
X115732168Y-92702197D01*
X115738333Y-92695166D01*
X115903002Y-92476644D01*
X115908060Y-92468780D01*
X116038620Y-92228319D01*
X116042460Y-92219794D01*
X116136043Y-91962675D01*
X116138581Y-91953676D01*
X116193297Y-91684741D01*
X116194543Y-91673809D01*
X116195380Y-91641808D01*
X117468163Y-91641808D01*
X117468163Y-92718258D01*
X117470319Y-92734634D01*
X117545137Y-93013859D01*
X117557880Y-93038339D01*
X117688990Y-93194590D01*
X117705879Y-93208761D01*
X117880120Y-93309359D01*
X117900837Y-93316900D01*
X118093538Y-93350878D01*
X118104499Y-93351837D01*
X119178191Y-93351837D01*
X119252000Y-93278028D01*
X119507999Y-93278028D01*
X119581808Y-93351837D01*
X120658258Y-93351837D01*
X120674634Y-93349681D01*
X120953859Y-93274863D01*
X120978339Y-93262120D01*
X121134590Y-93131010D01*
X121148761Y-93114121D01*
X121249359Y-92939880D01*
X121256900Y-92919163D01*
X121290878Y-92726462D01*
X121291837Y-92715501D01*
X121291837Y-91641809D01*
X121218028Y-91568000D01*
X119581809Y-91567999D01*
X119508000Y-91641808D01*
X119507999Y-93278028D01*
X119252000Y-93278028D01*
X119252001Y-91641809D01*
X119178192Y-91568000D01*
X117541972Y-91567999D01*
X117468163Y-91641808D01*
X116195380Y-91641808D01*
X116204183Y-91305665D01*
X116203511Y-91294683D01*
X116162946Y-91023252D01*
X116160882Y-91014132D01*
X116080883Y-90752468D01*
X116077494Y-90743753D01*
X115959698Y-90496789D01*
X115955058Y-90488671D01*
X115802052Y-90261831D01*
X115796264Y-90254488D01*
X115713805Y-90164499D01*
X117468163Y-90164499D01*
X117468163Y-91238191D01*
X117541972Y-91312000D01*
X119178191Y-91312001D01*
X119252000Y-91238192D01*
X119252000Y-91238191D01*
X119507999Y-91238191D01*
X119581808Y-91312000D01*
X121218028Y-91312001D01*
X121291837Y-91238192D01*
X121291837Y-90161742D01*
X121289681Y-90145366D01*
X121214863Y-89866142D01*
X121202120Y-89841662D01*
X121071010Y-89685410D01*
X121054121Y-89671239D01*
X120879880Y-89570641D01*
X120859163Y-89563100D01*
X120666462Y-89529122D01*
X120655501Y-89528163D01*
X119581809Y-89528163D01*
X119508000Y-89601972D01*
X119507999Y-91238191D01*
X119252000Y-91238191D01*
X119252001Y-89601972D01*
X119178192Y-89528163D01*
X118101742Y-89528163D01*
X118085366Y-89530319D01*
X117806142Y-89605137D01*
X117781662Y-89617880D01*
X117625410Y-89748990D01*
X117611239Y-89765879D01*
X117510641Y-89940120D01*
X117503100Y-89960837D01*
X117469122Y-90153538D01*
X117468163Y-90164499D01*
X115713805Y-90164499D01*
X115611410Y-90052754D01*
X115604599Y-90046347D01*
X115391957Y-89874153D01*
X115384274Y-89868824D01*
X115196789Y-89758387D01*
X115286703Y-89774241D01*
X115297664Y-89775200D01*
X115537536Y-89775200D01*
X115548497Y-89774241D01*
X115784726Y-89732587D01*
X115795353Y-89729740D01*
X116020760Y-89647698D01*
X116030732Y-89643048D01*
X116238468Y-89523112D01*
X116247481Y-89516801D01*
X116431234Y-89362613D01*
X116439013Y-89354834D01*
X116593201Y-89171081D01*
X116599512Y-89162068D01*
X116719448Y-88954332D01*
X116724098Y-88944360D01*
X116806140Y-88718953D01*
X116808987Y-88708326D01*
X116850641Y-88472097D01*
X116851600Y-88461136D01*
X116851600Y-88221264D01*
X116850641Y-88210303D01*
X116808987Y-87974074D01*
X116806140Y-87963447D01*
X116724098Y-87738040D01*
X116719448Y-87728068D01*
X116599512Y-87520332D01*
X116593201Y-87511319D01*
X116439013Y-87327566D01*
X116431234Y-87319787D01*
X116247481Y-87165599D01*
X116238468Y-87159288D01*
X116030732Y-87039352D01*
X116020760Y-87034702D01*
X115795353Y-86952660D01*
X115784726Y-86949813D01*
X115548497Y-86908159D01*
X115537536Y-86907200D01*
X115297664Y-86907200D01*
X115286703Y-86908159D01*
X115050474Y-86949813D01*
X115039847Y-86952660D01*
X114814440Y-87034702D01*
X114804468Y-87039352D01*
X114596732Y-87159288D01*
X114587719Y-87165599D01*
X114403966Y-87319787D01*
X114396187Y-87327566D01*
X114241999Y-87511319D01*
X114235688Y-87520332D01*
X114115752Y-87728068D01*
X114111102Y-87738040D01*
X114029060Y-87963447D01*
X114026213Y-87974074D01*
X113984559Y-88210303D01*
X113983600Y-88221264D01*
X113983600Y-88461136D01*
X113984559Y-88472097D01*
X114026213Y-88708326D01*
X114029060Y-88718953D01*
X114111102Y-88944360D01*
X114115752Y-88954332D01*
X114235688Y-89162068D01*
X114241999Y-89171081D01*
X114396187Y-89354834D01*
X114403966Y-89362613D01*
X114587719Y-89516801D01*
X114596732Y-89523112D01*
X114685504Y-89574364D01*
X114611470Y-89556590D01*
X114602241Y-89555087D01*
X114329663Y-89531240D01*
X114320313Y-89531118D01*
X114047204Y-89547821D01*
X114037939Y-89549082D01*
X113770299Y-89605971D01*
X113761322Y-89608588D01*
X113505031Y-89704411D01*
X113496539Y-89708325D01*
X113257226Y-89840979D01*
X113249406Y-89846105D01*
X113032330Y-90012675D01*
X113025354Y-90018901D01*
X112835282Y-90215726D01*
X112829303Y-90222915D01*
X112670412Y-90445673D01*
X112665561Y-90453667D01*
X112541341Y-90697463D01*
X112537725Y-90706086D01*
X112450904Y-90965565D01*
X112448602Y-90974628D01*
X112401088Y-91244090D01*
X112400152Y-91253394D01*
X112392989Y-91526919D01*
X111118389Y-91526919D01*
X111124183Y-91305665D01*
X111123511Y-91294683D01*
X111082946Y-91023252D01*
X111080882Y-91014132D01*
X111000883Y-90752468D01*
X110997494Y-90743753D01*
X110879698Y-90496789D01*
X110875058Y-90488671D01*
X110722052Y-90261831D01*
X110716264Y-90254488D01*
X110531410Y-90052754D01*
X110524599Y-90046347D01*
X110311957Y-89874153D01*
X110304274Y-89868824D01*
X110068515Y-89729951D01*
X110060129Y-89725815D01*
X109806433Y-89623316D01*
X109797528Y-89620466D01*
X109531470Y-89556590D01*
X109522241Y-89555087D01*
X109249663Y-89531240D01*
X109240313Y-89531118D01*
X108967204Y-89547821D01*
X108957939Y-89549082D01*
X108690299Y-89605971D01*
X108681322Y-89608588D01*
X108425031Y-89704411D01*
X108416539Y-89708325D01*
X108177226Y-89840979D01*
X108169406Y-89846105D01*
X107952330Y-90012675D01*
X107945354Y-90018901D01*
X107755282Y-90215726D01*
X107749303Y-90222915D01*
X107590412Y-90445673D01*
X107585561Y-90453667D01*
X107461341Y-90697463D01*
X107457725Y-90706086D01*
X107370904Y-90965565D01*
X107368602Y-90974628D01*
X107321088Y-91244090D01*
X107320152Y-91253394D01*
X107312989Y-91526919D01*
X102234000Y-91526919D01*
X102234000Y-88984933D01*
X102274702Y-89096760D01*
X102279352Y-89106732D01*
X102399288Y-89314468D01*
X102405599Y-89323481D01*
X102559787Y-89507234D01*
X102567566Y-89515013D01*
X102751319Y-89669201D01*
X102760332Y-89675512D01*
X102968068Y-89795448D01*
X102978040Y-89800098D01*
X103203447Y-89882140D01*
X103214074Y-89884987D01*
X103363182Y-89911280D01*
X103453200Y-89835746D01*
X103709199Y-89835746D01*
X103799217Y-89911279D01*
X103948325Y-89884987D01*
X103958953Y-89882140D01*
X104184360Y-89800098D01*
X104194332Y-89795448D01*
X104402068Y-89675512D01*
X104411081Y-89669201D01*
X104594834Y-89515013D01*
X104602613Y-89507234D01*
X104756801Y-89323481D01*
X104763112Y-89314468D01*
X104883048Y-89106732D01*
X104887698Y-89096760D01*
X104969740Y-88871353D01*
X104972587Y-88860726D01*
X104998880Y-88711618D01*
X104923346Y-88621600D01*
X103783009Y-88621599D01*
X103709200Y-88695408D01*
X103709199Y-89835746D01*
X103453200Y-89835746D01*
X103453201Y-88695408D01*
X103453200Y-88695407D01*
X103453200Y-88291791D01*
X103709199Y-88291791D01*
X103783008Y-88365600D01*
X104923346Y-88365601D01*
X104998879Y-88275583D01*
X104988631Y-88217464D01*
X110910200Y-88217464D01*
X110910200Y-88457336D01*
X110911159Y-88468297D01*
X110952813Y-88704526D01*
X110955660Y-88715153D01*
X111037702Y-88940560D01*
X111042352Y-88950532D01*
X111162288Y-89158268D01*
X111168599Y-89167281D01*
X111322787Y-89351034D01*
X111330566Y-89358813D01*
X111514319Y-89513001D01*
X111523332Y-89519312D01*
X111731068Y-89639248D01*
X111741040Y-89643898D01*
X111966447Y-89725940D01*
X111977074Y-89728787D01*
X112213303Y-89770441D01*
X112224264Y-89771400D01*
X112464136Y-89771400D01*
X112475097Y-89770441D01*
X112711326Y-89728787D01*
X112721953Y-89725940D01*
X112947360Y-89643898D01*
X112957332Y-89639248D01*
X113165068Y-89519312D01*
X113174081Y-89513001D01*
X113357834Y-89358813D01*
X113365613Y-89351034D01*
X113519801Y-89167281D01*
X113526112Y-89158268D01*
X113646048Y-88950532D01*
X113650698Y-88940560D01*
X113732740Y-88715153D01*
X113735587Y-88704526D01*
X113777241Y-88468297D01*
X113778200Y-88457336D01*
X113778200Y-88217464D01*
X113777241Y-88206503D01*
X113735587Y-87970274D01*
X113732740Y-87959647D01*
X113650698Y-87734240D01*
X113646048Y-87724268D01*
X113526112Y-87516532D01*
X113519801Y-87507519D01*
X113365613Y-87323766D01*
X113357834Y-87315987D01*
X113174081Y-87161799D01*
X113165068Y-87155488D01*
X112957332Y-87035552D01*
X112947360Y-87030902D01*
X112721953Y-86948860D01*
X112711326Y-86946013D01*
X112475097Y-86904359D01*
X112464136Y-86903400D01*
X112224264Y-86903400D01*
X112213303Y-86904359D01*
X111977074Y-86946013D01*
X111966447Y-86948860D01*
X111741040Y-87030902D01*
X111731068Y-87035552D01*
X111523332Y-87155488D01*
X111514319Y-87161799D01*
X111330566Y-87315987D01*
X111322787Y-87323766D01*
X111168599Y-87507519D01*
X111162288Y-87516532D01*
X111042352Y-87724268D01*
X111037702Y-87734240D01*
X110955660Y-87959647D01*
X110952813Y-87970274D01*
X110911159Y-88206503D01*
X110910200Y-88217464D01*
X104988631Y-88217464D01*
X104972587Y-88126475D01*
X104969740Y-88115847D01*
X104887698Y-87890440D01*
X104883048Y-87880468D01*
X104763112Y-87672732D01*
X104756801Y-87663719D01*
X104602613Y-87479966D01*
X104594834Y-87472187D01*
X104411081Y-87317999D01*
X104402068Y-87311688D01*
X104194332Y-87191752D01*
X104184360Y-87187102D01*
X103958953Y-87105060D01*
X103948326Y-87102213D01*
X103799218Y-87075920D01*
X103709200Y-87151454D01*
X103709199Y-88291791D01*
X103453200Y-88291791D01*
X103453201Y-87151454D01*
X103363183Y-87075921D01*
X103214075Y-87102213D01*
X103203447Y-87105060D01*
X102978040Y-87187102D01*
X102968068Y-87191752D01*
X102760332Y-87311688D01*
X102751319Y-87317999D01*
X102567566Y-87472187D01*
X102559787Y-87479966D01*
X102405599Y-87663719D01*
X102399288Y-87672732D01*
X102279352Y-87880468D01*
X102274702Y-87890440D01*
X102234000Y-88002267D01*
X102234000Y-84487699D01*
X105593763Y-84487699D01*
X105593763Y-86101458D01*
X105595919Y-86117834D01*
X105670737Y-86397059D01*
X105683480Y-86421539D01*
X105814590Y-86577790D01*
X105831479Y-86591961D01*
X106005720Y-86692559D01*
X106026437Y-86700100D01*
X106219138Y-86734078D01*
X106230099Y-86735037D01*
X107843858Y-86735037D01*
X107860234Y-86732881D01*
X108139459Y-86658063D01*
X108163939Y-86645320D01*
X108320190Y-86514210D01*
X108334361Y-86497321D01*
X108434959Y-86323080D01*
X108442500Y-86302363D01*
X108476478Y-86109662D01*
X108477437Y-86098701D01*
X108477437Y-84484942D01*
X108475281Y-84468566D01*
X108400463Y-84189342D01*
X108387720Y-84164862D01*
X108256610Y-84008610D01*
X108239721Y-83994439D01*
X108065480Y-83893841D01*
X108044763Y-83886300D01*
X107895406Y-83859965D01*
X107898423Y-83837044D01*
X107087791Y-83026410D01*
X106983409Y-83026410D01*
X106172777Y-83837044D01*
X106176173Y-83862842D01*
X105931742Y-83928337D01*
X105907262Y-83941080D01*
X105751010Y-84072190D01*
X105736839Y-84089079D01*
X105636241Y-84263320D01*
X105628700Y-84284037D01*
X105594722Y-84476738D01*
X105593763Y-84487699D01*
X102234000Y-84487699D01*
X102234000Y-82673264D01*
X105601600Y-82673264D01*
X105601600Y-82913136D01*
X105602559Y-82924097D01*
X105644213Y-83160326D01*
X105647060Y-83170953D01*
X105729102Y-83396360D01*
X105733752Y-83406332D01*
X105868547Y-83639803D01*
X105991756Y-83656023D01*
X106802390Y-82845391D01*
X106802390Y-82741009D01*
X107268810Y-82741009D01*
X107268810Y-82845391D01*
X108079444Y-83656023D01*
X108202653Y-83639803D01*
X108337448Y-83406332D01*
X108342098Y-83396360D01*
X108424140Y-83170953D01*
X108426987Y-83160326D01*
X108468641Y-82924097D01*
X108469600Y-82913136D01*
X108469600Y-82673264D01*
X108468641Y-82662303D01*
X108426987Y-82426074D01*
X108424140Y-82415447D01*
X108342098Y-82190040D01*
X108337448Y-82180068D01*
X108202653Y-81946597D01*
X108079444Y-81930377D01*
X107268810Y-82741009D01*
X106802390Y-82741009D01*
X105991756Y-81930377D01*
X105868547Y-81946597D01*
X105733752Y-82180068D01*
X105729102Y-82190040D01*
X105647060Y-82415447D01*
X105644213Y-82426074D01*
X105602559Y-82662303D01*
X105601600Y-82673264D01*
X102234000Y-82673264D01*
X102234000Y-81749356D01*
X106172777Y-81749356D01*
X106983409Y-82559990D01*
X107087791Y-82559990D01*
X107898423Y-81749356D01*
X107882203Y-81626147D01*
X107648732Y-81491352D01*
X107638760Y-81486702D01*
X107413353Y-81404660D01*
X107402726Y-81401813D01*
X107166497Y-81360159D01*
X107155536Y-81359200D01*
X106915664Y-81359200D01*
X106904703Y-81360159D01*
X106668474Y-81401813D01*
X106657847Y-81404660D01*
X106432440Y-81486702D01*
X106422468Y-81491352D01*
X106188997Y-81626147D01*
X106172777Y-81749356D01*
X102234000Y-81749356D01*
X102234000Y-79973916D01*
X102307668Y-80016448D01*
X102317640Y-80021098D01*
X102543047Y-80103140D01*
X102553674Y-80105987D01*
X102789903Y-80147641D01*
X102800864Y-80148600D01*
X103040736Y-80148600D01*
X103051697Y-80147641D01*
X103287926Y-80105987D01*
X103298553Y-80103140D01*
X103523960Y-80021098D01*
X103533932Y-80016448D01*
X103741668Y-79896512D01*
X103750681Y-79890201D01*
X103934434Y-79736013D01*
X103942213Y-79728234D01*
X104096401Y-79544481D01*
X104102712Y-79535468D01*
X104222648Y-79327732D01*
X104227298Y-79317760D01*
X104309340Y-79092353D01*
X104312187Y-79081726D01*
X104353841Y-78845497D01*
X104354800Y-78834536D01*
X104354800Y-78594664D01*
X104353841Y-78583703D01*
X104312187Y-78347474D01*
X104309340Y-78336847D01*
X104227298Y-78111440D01*
X104222648Y-78101468D01*
X104102712Y-77893732D01*
X104096401Y-77884719D01*
X103942213Y-77700966D01*
X103934434Y-77693187D01*
X103750681Y-77538999D01*
X103741668Y-77532688D01*
X103533932Y-77412752D01*
X103523960Y-77408102D01*
X103298553Y-77326060D01*
X103287926Y-77323213D01*
X103051697Y-77281559D01*
X103040736Y-77280600D01*
X102800864Y-77280600D01*
X102789903Y-77281559D01*
X102553674Y-77323213D01*
X102543047Y-77326060D01*
X102317640Y-77408102D01*
X102307668Y-77412752D01*
X102234000Y-77455284D01*
X102234000Y-76798916D01*
X102307668Y-76841448D01*
X102317640Y-76846098D01*
X102543047Y-76928140D01*
X102553674Y-76930987D01*
X102702782Y-76957280D01*
X102792800Y-76881746D01*
X103048799Y-76881746D01*
X103138817Y-76957279D01*
X103287925Y-76930987D01*
X103298553Y-76928140D01*
X103523960Y-76846098D01*
X103533932Y-76841448D01*
X103741668Y-76721512D01*
X103750681Y-76715201D01*
X103934434Y-76561013D01*
X103942213Y-76553234D01*
X104096401Y-76369481D01*
X104102712Y-76360468D01*
X104222648Y-76152732D01*
X104227298Y-76142760D01*
X104309340Y-75917353D01*
X104312187Y-75906726D01*
X104338480Y-75757618D01*
X104262946Y-75667600D01*
X103122609Y-75667599D01*
X103048800Y-75741408D01*
X103048799Y-76881746D01*
X102792800Y-76881746D01*
X102792801Y-75741408D01*
X102792800Y-75741407D01*
X102792800Y-75337791D01*
X103048799Y-75337791D01*
X103122608Y-75411600D01*
X104262946Y-75411601D01*
X104338479Y-75321583D01*
X104312187Y-75172475D01*
X104309340Y-75161847D01*
X104227298Y-74936440D01*
X104222648Y-74926468D01*
X104102712Y-74718732D01*
X104096401Y-74709719D01*
X103942213Y-74525966D01*
X103934434Y-74518187D01*
X103750681Y-74363999D01*
X103741668Y-74357688D01*
X103533932Y-74237752D01*
X103523960Y-74233102D01*
X103298553Y-74151060D01*
X103287926Y-74148213D01*
X103138818Y-74121920D01*
X103048800Y-74197454D01*
X103048799Y-75337791D01*
X102792800Y-75337791D01*
X102792801Y-74197454D01*
X102702783Y-74121921D01*
X102553675Y-74148213D01*
X102543047Y-74151060D01*
X102317640Y-74233102D01*
X102307668Y-74237752D01*
X102234000Y-74280284D01*
X102234000Y-73623916D01*
X102307668Y-73666448D01*
X102317640Y-73671098D01*
X102543047Y-73753140D01*
X102553674Y-73755987D01*
X102789903Y-73797641D01*
X102800864Y-73798600D01*
X103040736Y-73798600D01*
X103051697Y-73797641D01*
X103287926Y-73755987D01*
X103298553Y-73753140D01*
X103523960Y-73671098D01*
X103533932Y-73666448D01*
X103741668Y-73546512D01*
X103750681Y-73540201D01*
X103934434Y-73386013D01*
X103942213Y-73378234D01*
X104096401Y-73194481D01*
X104102712Y-73185468D01*
X104222648Y-72977732D01*
X104227298Y-72967760D01*
X104309340Y-72742353D01*
X104312187Y-72731726D01*
X104353841Y-72495497D01*
X104354800Y-72484536D01*
X104354800Y-72244664D01*
X104353841Y-72233703D01*
X104312187Y-71997474D01*
X104309340Y-71986847D01*
X104227298Y-71761440D01*
X104222648Y-71751468D01*
X104102712Y-71543732D01*
X104096401Y-71534719D01*
X103942213Y-71350966D01*
X103934434Y-71343187D01*
X103750681Y-71188999D01*
X103741668Y-71182688D01*
X103631357Y-71119000D01*
X109830243Y-71119000D01*
X109719932Y-71182688D01*
G36*
X120847787Y-71122366D02*
G01*
X120693599Y-71306119D01*
X120687288Y-71315132D01*
X120567352Y-71522868D01*
X120562702Y-71532840D01*
X120480660Y-71758247D01*
X120477813Y-71768874D01*
X120451520Y-71917982D01*
X120527054Y-72008000D01*
X121667392Y-72008001D01*
X121667393Y-72008000D01*
X123211346Y-72008001D01*
X123286879Y-71917983D01*
X123260587Y-71768875D01*
X123257740Y-71758247D01*
X123175698Y-71532840D01*
X123171048Y-71522868D01*
X123051112Y-71315132D01*
X123044801Y-71306119D01*
X122890613Y-71122366D01*
X122887247Y-71119000D01*
X124461000Y-71119000D01*
X124461000Y-82446083D01*
X124445698Y-82404040D01*
X124441048Y-82394068D01*
X124321112Y-82186332D01*
X124314801Y-82177319D01*
X124160613Y-81993566D01*
X124152834Y-81985787D01*
X124029200Y-81882046D01*
X124029200Y-77036305D01*
X124033443Y-77017553D01*
X124034883Y-76999659D01*
X124029200Y-76908054D01*
X124029200Y-76877262D01*
X124028563Y-76868320D01*
X124025339Y-76845809D01*
X124020221Y-76763316D01*
X124016581Y-76745736D01*
X124007342Y-76720142D01*
X124003486Y-76693218D01*
X123998447Y-76675987D01*
X123964238Y-76600745D01*
X123936108Y-76522825D01*
X123927448Y-76506657D01*
X123911913Y-76485663D01*
X123900438Y-76460426D01*
X123890765Y-76445300D01*
X123829033Y-76373656D01*
X123815105Y-76354834D01*
X123809001Y-76347750D01*
X123792450Y-76331200D01*
X123736193Y-76265910D01*
X123722664Y-76254108D01*
X123701898Y-76240648D01*
X120277377Y-72816129D01*
X120282368Y-72800769D01*
X120284679Y-72791142D01*
X120325823Y-72531373D01*
X120326600Y-72521503D01*
X120326600Y-72354017D01*
X120451521Y-72354017D01*
X120477813Y-72503125D01*
X120480660Y-72513753D01*
X120562702Y-72739160D01*
X120567352Y-72749132D01*
X120687288Y-72956868D01*
X120693599Y-72965881D01*
X120847787Y-73149634D01*
X120855566Y-73157413D01*
X121039319Y-73311601D01*
X121048332Y-73317912D01*
X121256068Y-73437848D01*
X121266040Y-73442498D01*
X121491447Y-73524540D01*
X121502074Y-73527387D01*
X121651182Y-73553680D01*
X121741200Y-73478146D01*
X121997199Y-73478146D01*
X122087217Y-73553679D01*
X122236325Y-73527387D01*
X122246953Y-73524540D01*
X122472360Y-73442498D01*
X122482332Y-73437848D01*
X122690068Y-73317912D01*
X122699081Y-73311601D01*
X122882834Y-73157413D01*
X122890613Y-73149634D01*
X123044801Y-72965881D01*
X123051112Y-72956868D01*
X123171048Y-72749132D01*
X123175698Y-72739160D01*
X123257740Y-72513753D01*
X123260587Y-72503126D01*
X123286880Y-72354018D01*
X123211346Y-72264000D01*
X122071009Y-72263999D01*
X121997200Y-72337808D01*
X121997199Y-73478146D01*
X121741200Y-73478146D01*
X121741201Y-72337809D01*
X121667392Y-72264000D01*
X120527054Y-72263999D01*
X120451521Y-72354017D01*
X120326600Y-72354017D01*
X120326600Y-72258497D01*
X120325823Y-72248627D01*
X120284679Y-71988859D01*
X120282368Y-71979231D01*
X120201095Y-71729098D01*
X120197306Y-71719950D01*
X120077904Y-71485610D01*
X120072731Y-71477168D01*
X119918140Y-71264392D01*
X119911710Y-71256863D01*
X119773847Y-71119000D01*
X120851153Y-71119000D01*
X120847787Y-71122366D01*
G37*
X120847787Y-71122366D02*
X120693599Y-71306119D01*
X120687288Y-71315132D01*
X120567352Y-71522868D01*
X120562702Y-71532840D01*
X120480660Y-71758247D01*
X120477813Y-71768874D01*
X120451520Y-71917982D01*
X120527054Y-72008000D01*
X121667392Y-72008001D01*
X121667393Y-72008000D01*
X123211346Y-72008001D01*
X123286879Y-71917983D01*
X123260587Y-71768875D01*
X123257740Y-71758247D01*
X123175698Y-71532840D01*
X123171048Y-71522868D01*
X123051112Y-71315132D01*
X123044801Y-71306119D01*
X122890613Y-71122366D01*
X122887247Y-71119000D01*
X124461000Y-71119000D01*
X124461000Y-82446083D01*
X124445698Y-82404040D01*
X124441048Y-82394068D01*
X124321112Y-82186332D01*
X124314801Y-82177319D01*
X124160613Y-81993566D01*
X124152834Y-81985787D01*
X124029200Y-81882046D01*
X124029200Y-77036305D01*
X124033443Y-77017553D01*
X124034883Y-76999659D01*
X124029200Y-76908054D01*
X124029200Y-76877262D01*
X124028563Y-76868320D01*
X124025339Y-76845809D01*
X124020221Y-76763316D01*
X124016581Y-76745736D01*
X124007342Y-76720142D01*
X124003486Y-76693218D01*
X123998447Y-76675987D01*
X123964238Y-76600745D01*
X123936108Y-76522825D01*
X123927448Y-76506657D01*
X123911913Y-76485663D01*
X123900438Y-76460426D01*
X123890765Y-76445300D01*
X123829033Y-76373656D01*
X123815105Y-76354834D01*
X123809001Y-76347750D01*
X123792450Y-76331200D01*
X123736193Y-76265910D01*
X123722664Y-76254108D01*
X123701898Y-76240648D01*
X120277377Y-72816129D01*
X120282368Y-72800769D01*
X120284679Y-72791142D01*
X120325823Y-72531373D01*
X120326600Y-72521503D01*
X120326600Y-72354017D01*
X120451521Y-72354017D01*
X120477813Y-72503125D01*
X120480660Y-72513753D01*
X120562702Y-72739160D01*
X120567352Y-72749132D01*
X120687288Y-72956868D01*
X120693599Y-72965881D01*
X120847787Y-73149634D01*
X120855566Y-73157413D01*
X121039319Y-73311601D01*
X121048332Y-73317912D01*
X121256068Y-73437848D01*
X121266040Y-73442498D01*
X121491447Y-73524540D01*
X121502074Y-73527387D01*
X121651182Y-73553680D01*
X121741200Y-73478146D01*
X121997199Y-73478146D01*
X122087217Y-73553679D01*
X122236325Y-73527387D01*
X122246953Y-73524540D01*
X122472360Y-73442498D01*
X122482332Y-73437848D01*
X122690068Y-73317912D01*
X122699081Y-73311601D01*
X122882834Y-73157413D01*
X122890613Y-73149634D01*
X123044801Y-72965881D01*
X123051112Y-72956868D01*
X123171048Y-72749132D01*
X123175698Y-72739160D01*
X123257740Y-72513753D01*
X123260587Y-72503126D01*
X123286880Y-72354018D01*
X123211346Y-72264000D01*
X122071009Y-72263999D01*
X121997200Y-72337808D01*
X121997199Y-73478146D01*
X121741200Y-73478146D01*
X121741201Y-72337809D01*
X121667392Y-72264000D01*
X120527054Y-72263999D01*
X120451521Y-72354017D01*
X120326600Y-72354017D01*
X120326600Y-72258497D01*
X120325823Y-72248627D01*
X120284679Y-71988859D01*
X120282368Y-71979231D01*
X120201095Y-71729098D01*
X120197306Y-71719950D01*
X120077904Y-71485610D01*
X120072731Y-71477168D01*
X119918140Y-71264392D01*
X119911710Y-71256863D01*
X119773847Y-71119000D01*
X120851153Y-71119000D01*
X120847787Y-71122366D01*
M02*
