G04 #@! TF.GenerationSoftware,KiCad,Pcbnew,(5.99.0-1165-gc29c3d9cc)*
G04 #@! TF.CreationDate,2020-03-29T18:02:48+03:00*
G04 #@! TF.ProjectId,salero-1,73616c65-726f-42d3-912e-6b696361645f,rev?*
G04 #@! TF.SameCoordinates,Original*
G04 #@! TF.FileFunction,Legend,Bot*
G04 #@! TF.FilePolarity,Positive*
%FSLAX46Y46*%
G04 Gerber Fmt 4.6, Leading zero omitted, Abs format (unit mm)*
G04 Created by KiCad (PCBNEW (5.99.0-1165-gc29c3d9cc)) date 2020-03-29 18:02:48*
%MOMM*%
%LPD*%
G01*
G04 APERTURE LIST*
%ADD10C,0.100000*%
%ADD11C,0.150000*%
%ADD12C,0.127000*%
%ADD13O,2.030400X2.030400*%
%ADD14O,1.700000X1.700000*%
%ADD15C,1.700000*%
%ADD16O,2.640000X2.640000*%
%ADD17C,1.900000*%
%ADD18O,2.300000X2.300000*%
G04 APERTURE END LIST*
D10*
X124034571Y-71857666D02*
X124682190Y-71857666D01*
X124758380Y-71819571D01*
X124796476Y-71781476D01*
X124834571Y-71705285D01*
X124834571Y-71591000D01*
X124796476Y-71514809D01*
X124529809Y-71857666D02*
X124567904Y-71781476D01*
X124567904Y-71629095D01*
X124529809Y-71552904D01*
X124491714Y-71514809D01*
X124415523Y-71476714D01*
X124186952Y-71476714D01*
X124110761Y-71514809D01*
X124072666Y-71552904D01*
X124034571Y-71629095D01*
X124034571Y-71781476D01*
X124072666Y-71857666D01*
X124567904Y-72238619D02*
X124034571Y-72238619D01*
X123767904Y-72238619D02*
X123806000Y-72200523D01*
X123844095Y-72238619D01*
X123806000Y-72276714D01*
X123767904Y-72238619D01*
X123844095Y-72238619D01*
X124034571Y-72505285D02*
X124034571Y-72810047D01*
X123767904Y-72619571D02*
X124453619Y-72619571D01*
X124529809Y-72657666D01*
X124567904Y-72733857D01*
X124567904Y-72810047D01*
X124567904Y-73076714D02*
X123767904Y-73076714D01*
X124567904Y-73419571D02*
X124148857Y-73419571D01*
X124072666Y-73381476D01*
X124034571Y-73305285D01*
X124034571Y-73191000D01*
X124072666Y-73114809D01*
X124110761Y-73076714D01*
X124034571Y-74143380D02*
X124567904Y-74143380D01*
X124034571Y-73800523D02*
X124453619Y-73800523D01*
X124529809Y-73838619D01*
X124567904Y-73914809D01*
X124567904Y-74029095D01*
X124529809Y-74105285D01*
X124491714Y-74143380D01*
X124567904Y-74524333D02*
X123767904Y-74524333D01*
X124072666Y-74524333D02*
X124034571Y-74600523D01*
X124034571Y-74752904D01*
X124072666Y-74829095D01*
X124110761Y-74867190D01*
X124186952Y-74905285D01*
X124415523Y-74905285D01*
X124491714Y-74867190D01*
X124529809Y-74829095D01*
X124567904Y-74752904D01*
X124567904Y-74600523D01*
X124529809Y-74524333D01*
X124491714Y-75248142D02*
X124529809Y-75286238D01*
X124567904Y-75248142D01*
X124529809Y-75210047D01*
X124491714Y-75248142D01*
X124567904Y-75248142D01*
X124529809Y-75971952D02*
X124567904Y-75895761D01*
X124567904Y-75743380D01*
X124529809Y-75667190D01*
X124491714Y-75629095D01*
X124415523Y-75591000D01*
X124186952Y-75591000D01*
X124110761Y-75629095D01*
X124072666Y-75667190D01*
X124034571Y-75743380D01*
X124034571Y-75895761D01*
X124072666Y-75971952D01*
X124567904Y-76429095D02*
X124529809Y-76352904D01*
X124491714Y-76314809D01*
X124415523Y-76276714D01*
X124186952Y-76276714D01*
X124110761Y-76314809D01*
X124072666Y-76352904D01*
X124034571Y-76429095D01*
X124034571Y-76543380D01*
X124072666Y-76619571D01*
X124110761Y-76657666D01*
X124186952Y-76695761D01*
X124415523Y-76695761D01*
X124491714Y-76657666D01*
X124529809Y-76619571D01*
X124567904Y-76543380D01*
X124567904Y-76429095D01*
X124567904Y-77038619D02*
X124034571Y-77038619D01*
X124110761Y-77038619D02*
X124072666Y-77076714D01*
X124034571Y-77152904D01*
X124034571Y-77267190D01*
X124072666Y-77343380D01*
X124148857Y-77381476D01*
X124567904Y-77381476D01*
X124148857Y-77381476D02*
X124072666Y-77419571D01*
X124034571Y-77495761D01*
X124034571Y-77610047D01*
X124072666Y-77686238D01*
X124148857Y-77724333D01*
X124567904Y-77724333D01*
X123729809Y-78676714D02*
X124758380Y-77991000D01*
X124567904Y-78943380D02*
X124034571Y-78943380D01*
X124186952Y-78943380D02*
X124110761Y-78981476D01*
X124072666Y-79019571D01*
X124034571Y-79095761D01*
X124034571Y-79171952D01*
X124567904Y-79552904D02*
X124529809Y-79476714D01*
X124491714Y-79438619D01*
X124415523Y-79400523D01*
X124186952Y-79400523D01*
X124110761Y-79438619D01*
X124072666Y-79476714D01*
X124034571Y-79552904D01*
X124034571Y-79667190D01*
X124072666Y-79743380D01*
X124110761Y-79781476D01*
X124186952Y-79819571D01*
X124415523Y-79819571D01*
X124491714Y-79781476D01*
X124529809Y-79743380D01*
X124567904Y-79667190D01*
X124567904Y-79552904D01*
X124529809Y-80505285D02*
X124567904Y-80429095D01*
X124567904Y-80276714D01*
X124529809Y-80200523D01*
X124491714Y-80162428D01*
X124415523Y-80124333D01*
X124186952Y-80124333D01*
X124110761Y-80162428D01*
X124072666Y-80200523D01*
X124034571Y-80276714D01*
X124034571Y-80429095D01*
X124072666Y-80505285D01*
X124567904Y-80848142D02*
X123767904Y-80848142D01*
X124263142Y-80924333D02*
X124567904Y-81152904D01*
X124034571Y-81152904D02*
X124339333Y-80848142D01*
X124567904Y-81610047D02*
X124529809Y-81533857D01*
X124491714Y-81495761D01*
X124415523Y-81457666D01*
X124186952Y-81457666D01*
X124110761Y-81495761D01*
X124072666Y-81533857D01*
X124034571Y-81610047D01*
X124034571Y-81724333D01*
X124072666Y-81800523D01*
X124110761Y-81838619D01*
X124186952Y-81876714D01*
X124415523Y-81876714D01*
X124491714Y-81838619D01*
X124529809Y-81800523D01*
X124567904Y-81724333D01*
X124567904Y-81610047D01*
X124567904Y-82333857D02*
X124529809Y-82257666D01*
X124453619Y-82219571D01*
X123767904Y-82219571D01*
X124567904Y-82981476D02*
X124148857Y-82981476D01*
X124072666Y-82943380D01*
X124034571Y-82867190D01*
X124034571Y-82714809D01*
X124072666Y-82638619D01*
X124529809Y-82981476D02*
X124567904Y-82905285D01*
X124567904Y-82714809D01*
X124529809Y-82638619D01*
X124453619Y-82600523D01*
X124377428Y-82600523D01*
X124301238Y-82638619D01*
X124263142Y-82714809D01*
X124263142Y-82905285D01*
X124225047Y-82981476D01*
X123729809Y-83933857D02*
X124758380Y-83248142D01*
X124529809Y-84162428D02*
X124567904Y-84238619D01*
X124567904Y-84391000D01*
X124529809Y-84467190D01*
X124453619Y-84505285D01*
X124415523Y-84505285D01*
X124339333Y-84467190D01*
X124301238Y-84391000D01*
X124301238Y-84276714D01*
X124263142Y-84200523D01*
X124186952Y-84162428D01*
X124148857Y-84162428D01*
X124072666Y-84200523D01*
X124034571Y-84276714D01*
X124034571Y-84391000D01*
X124072666Y-84467190D01*
X124567904Y-85191000D02*
X124148857Y-85191000D01*
X124072666Y-85152904D01*
X124034571Y-85076714D01*
X124034571Y-84924333D01*
X124072666Y-84848142D01*
X124529809Y-85191000D02*
X124567904Y-85114809D01*
X124567904Y-84924333D01*
X124529809Y-84848142D01*
X124453619Y-84810047D01*
X124377428Y-84810047D01*
X124301238Y-84848142D01*
X124263142Y-84924333D01*
X124263142Y-85114809D01*
X124225047Y-85191000D01*
X124567904Y-85686238D02*
X124529809Y-85610047D01*
X124453619Y-85571952D01*
X123767904Y-85571952D01*
X124529809Y-86295761D02*
X124567904Y-86219571D01*
X124567904Y-86067190D01*
X124529809Y-85991000D01*
X124453619Y-85952904D01*
X124148857Y-85952904D01*
X124072666Y-85991000D01*
X124034571Y-86067190D01*
X124034571Y-86219571D01*
X124072666Y-86295761D01*
X124148857Y-86333857D01*
X124225047Y-86333857D01*
X124301238Y-85952904D01*
X124567904Y-86676714D02*
X124034571Y-86676714D01*
X124186952Y-86676714D02*
X124110761Y-86714809D01*
X124072666Y-86752904D01*
X124034571Y-86829095D01*
X124034571Y-86905285D01*
X124567904Y-87286238D02*
X124529809Y-87210047D01*
X124491714Y-87171952D01*
X124415523Y-87133857D01*
X124186952Y-87133857D01*
X124110761Y-87171952D01*
X124072666Y-87210047D01*
X124034571Y-87286238D01*
X124034571Y-87400523D01*
X124072666Y-87476714D01*
X124110761Y-87514809D01*
X124186952Y-87552904D01*
X124415523Y-87552904D01*
X124491714Y-87514809D01*
X124529809Y-87476714D01*
X124567904Y-87400523D01*
X124567904Y-87286238D01*
X124263142Y-87895761D02*
X124263142Y-88505285D01*
X124567904Y-89305285D02*
X124567904Y-88848142D01*
X124567904Y-89076714D02*
X123767904Y-89076714D01*
X123882190Y-89000523D01*
X123958380Y-88924333D01*
X123996476Y-88848142D01*
D11*
X107114428Y-93852857D02*
X106581095Y-93662380D01*
X107114428Y-93471904D01*
X107381095Y-93014761D02*
X107381095Y-92938571D01*
X107343000Y-92862380D01*
X107304904Y-92824285D01*
X107228714Y-92786190D01*
X107076333Y-92748095D01*
X106885857Y-92748095D01*
X106733476Y-92786190D01*
X106657285Y-92824285D01*
X106619190Y-92862380D01*
X106581095Y-92938571D01*
X106581095Y-93014761D01*
X106619190Y-93090952D01*
X106657285Y-93129047D01*
X106733476Y-93167142D01*
X106885857Y-93205238D01*
X107076333Y-93205238D01*
X107228714Y-93167142D01*
X107304904Y-93129047D01*
X107343000Y-93090952D01*
X107381095Y-93014761D01*
X106657285Y-92405238D02*
X106619190Y-92367142D01*
X106581095Y-92405238D01*
X106619190Y-92443333D01*
X106657285Y-92405238D01*
X106581095Y-92405238D01*
X106581095Y-91605238D02*
X106581095Y-92062380D01*
X106581095Y-91833809D02*
X107381095Y-91833809D01*
X107266809Y-91910000D01*
X107190619Y-91986190D01*
X107152523Y-92062380D01*
X106016904Y-96595714D02*
X106055000Y-96557619D01*
X106093095Y-96481428D01*
X106093095Y-96290952D01*
X106055000Y-96214761D01*
X106016904Y-96176666D01*
X105940714Y-96138571D01*
X105864523Y-96138571D01*
X105750238Y-96176666D01*
X105293095Y-96633809D01*
X105293095Y-96138571D01*
X106093095Y-95643333D02*
X106093095Y-95567142D01*
X106055000Y-95490952D01*
X106016904Y-95452857D01*
X105940714Y-95414761D01*
X105788333Y-95376666D01*
X105597857Y-95376666D01*
X105445476Y-95414761D01*
X105369285Y-95452857D01*
X105331190Y-95490952D01*
X105293095Y-95567142D01*
X105293095Y-95643333D01*
X105331190Y-95719523D01*
X105369285Y-95757619D01*
X105445476Y-95795714D01*
X105597857Y-95833809D01*
X105788333Y-95833809D01*
X105940714Y-95795714D01*
X106016904Y-95757619D01*
X106055000Y-95719523D01*
X106093095Y-95643333D01*
X106016904Y-95071904D02*
X106055000Y-95033809D01*
X106093095Y-94957619D01*
X106093095Y-94767142D01*
X106055000Y-94690952D01*
X106016904Y-94652857D01*
X105940714Y-94614761D01*
X105864523Y-94614761D01*
X105750238Y-94652857D01*
X105293095Y-95110000D01*
X105293095Y-94614761D01*
X106093095Y-94119523D02*
X106093095Y-94043333D01*
X106055000Y-93967142D01*
X106016904Y-93929047D01*
X105940714Y-93890952D01*
X105788333Y-93852857D01*
X105597857Y-93852857D01*
X105445476Y-93890952D01*
X105369285Y-93929047D01*
X105331190Y-93967142D01*
X105293095Y-94043333D01*
X105293095Y-94119523D01*
X105331190Y-94195714D01*
X105369285Y-94233809D01*
X105445476Y-94271904D01*
X105597857Y-94310000D01*
X105788333Y-94310000D01*
X105940714Y-94271904D01*
X106016904Y-94233809D01*
X106055000Y-94195714D01*
X106093095Y-94119523D01*
X105597857Y-93510000D02*
X105597857Y-92900476D01*
X106093095Y-92367142D02*
X106093095Y-92290952D01*
X106055000Y-92214761D01*
X106016904Y-92176666D01*
X105940714Y-92138571D01*
X105788333Y-92100476D01*
X105597857Y-92100476D01*
X105445476Y-92138571D01*
X105369285Y-92176666D01*
X105331190Y-92214761D01*
X105293095Y-92290952D01*
X105293095Y-92367142D01*
X105331190Y-92443333D01*
X105369285Y-92481428D01*
X105445476Y-92519523D01*
X105597857Y-92557619D01*
X105788333Y-92557619D01*
X105940714Y-92519523D01*
X106016904Y-92481428D01*
X106055000Y-92443333D01*
X106093095Y-92367142D01*
X106093095Y-91833809D02*
X106093095Y-91338571D01*
X105788333Y-91605238D01*
X105788333Y-91490952D01*
X105750238Y-91414761D01*
X105712142Y-91376666D01*
X105635952Y-91338571D01*
X105445476Y-91338571D01*
X105369285Y-91376666D01*
X105331190Y-91414761D01*
X105293095Y-91490952D01*
X105293095Y-91719523D01*
X105331190Y-91795714D01*
X105369285Y-91833809D01*
X105597857Y-90995714D02*
X105597857Y-90386190D01*
X106016904Y-90043333D02*
X106055000Y-90005238D01*
X106093095Y-89929047D01*
X106093095Y-89738571D01*
X106055000Y-89662380D01*
X106016904Y-89624285D01*
X105940714Y-89586190D01*
X105864523Y-89586190D01*
X105750238Y-89624285D01*
X105293095Y-90081428D01*
X105293095Y-89586190D01*
X105293095Y-89205238D02*
X105293095Y-89052857D01*
X105331190Y-88976666D01*
X105369285Y-88938571D01*
X105483571Y-88862380D01*
X105635952Y-88824285D01*
X105940714Y-88824285D01*
X106016904Y-88862380D01*
X106055000Y-88900476D01*
X106093095Y-88976666D01*
X106093095Y-89129047D01*
X106055000Y-89205238D01*
X106016904Y-89243333D01*
X105940714Y-89281428D01*
X105750238Y-89281428D01*
X105674047Y-89243333D01*
X105635952Y-89205238D01*
X105597857Y-89129047D01*
X105597857Y-88976666D01*
X105635952Y-88900476D01*
X105674047Y-88862380D01*
X105750238Y-88824285D01*
X103659857Y-86462571D02*
X103588428Y-86248285D01*
X103588428Y-85891142D01*
X103659857Y-85748285D01*
X103731285Y-85676857D01*
X103874142Y-85605428D01*
X104017000Y-85605428D01*
X104159857Y-85676857D01*
X104231285Y-85748285D01*
X104302714Y-85891142D01*
X104374142Y-86176857D01*
X104445571Y-86319714D01*
X104517000Y-86391142D01*
X104659857Y-86462571D01*
X104802714Y-86462571D01*
X104945571Y-86391142D01*
X105017000Y-86319714D01*
X105088428Y-86176857D01*
X105088428Y-85819714D01*
X105017000Y-85605428D01*
X103588428Y-84319714D02*
X104374142Y-84319714D01*
X104517000Y-84391142D01*
X104588428Y-84534000D01*
X104588428Y-84819714D01*
X104517000Y-84962571D01*
X103659857Y-84319714D02*
X103588428Y-84462571D01*
X103588428Y-84819714D01*
X103659857Y-84962571D01*
X103802714Y-85034000D01*
X103945571Y-85034000D01*
X104088428Y-84962571D01*
X104159857Y-84819714D01*
X104159857Y-84462571D01*
X104231285Y-84319714D01*
X103588428Y-83391142D02*
X103659857Y-83534000D01*
X103802714Y-83605428D01*
X105088428Y-83605428D01*
X103659857Y-82248285D02*
X103588428Y-82391142D01*
X103588428Y-82676857D01*
X103659857Y-82819714D01*
X103802714Y-82891142D01*
X104374142Y-82891142D01*
X104517000Y-82819714D01*
X104588428Y-82676857D01*
X104588428Y-82391142D01*
X104517000Y-82248285D01*
X104374142Y-82176857D01*
X104231285Y-82176857D01*
X104088428Y-82891142D01*
X103588428Y-81534000D02*
X104588428Y-81534000D01*
X104302714Y-81534000D02*
X104445571Y-81462571D01*
X104517000Y-81391142D01*
X104588428Y-81248285D01*
X104588428Y-81105428D01*
X103588428Y-80391142D02*
X103659857Y-80534000D01*
X103731285Y-80605428D01*
X103874142Y-80676857D01*
X104302714Y-80676857D01*
X104445571Y-80605428D01*
X104517000Y-80534000D01*
X104588428Y-80391142D01*
X104588428Y-80176857D01*
X104517000Y-80034000D01*
X104445571Y-79962571D01*
X104302714Y-79891142D01*
X103874142Y-79891142D01*
X103731285Y-79962571D01*
X103659857Y-80034000D01*
X103588428Y-80176857D01*
X103588428Y-80391142D01*
X104159857Y-79248285D02*
X104159857Y-78105428D01*
X103588428Y-76605428D02*
X103588428Y-77462571D01*
X103588428Y-77034000D02*
X105088428Y-77034000D01*
X104874142Y-77176857D01*
X104731285Y-77319714D01*
X104659857Y-77462571D01*
D12*
X111760000Y-74574400D02*
X111760000Y-73304400D01*
X116840000Y-74574400D02*
X116840000Y-73304400D01*
X111760000Y-74574400D02*
X116840000Y-74574400D01*
X111760000Y-73304400D02*
X111760000Y-70764400D01*
X116840000Y-73304400D02*
X116840000Y-70764400D01*
X111760000Y-73304400D02*
X116840000Y-73304400D01*
X116840000Y-70764400D02*
X111760000Y-70764400D01*
X120904000Y-92964000D02*
X120904000Y-89916000D01*
X117856000Y-92964000D02*
X120904000Y-92964000D01*
X117856000Y-89916000D02*
X117856000Y-92964000D01*
X115824000Y-92964000D02*
X115824000Y-89916000D01*
X112776000Y-92964000D02*
X115824000Y-92964000D01*
X112776000Y-89916000D02*
X112776000Y-92964000D01*
X110744000Y-92964000D02*
X110744000Y-89916000D01*
X107696000Y-92964000D02*
X110744000Y-92964000D01*
X107696000Y-89916000D02*
X107696000Y-92964000D01*
X117856000Y-89916000D02*
X120904000Y-89916000D01*
X112776000Y-89916000D02*
X115824000Y-89916000D01*
X107696000Y-89916000D02*
X110744000Y-89916000D01*
X106680000Y-89789000D02*
X121920000Y-89789000D01*
X105410000Y-76835000D02*
X123190000Y-76835000D01*
X114300000Y-85725000D02*
X114300000Y-67945000D01*
X121920000Y-89789000D02*
X121920000Y-81280000D01*
X106680000Y-81280000D02*
X106680000Y-89789000D01*
X105410000Y-76835000D02*
G75*
G03*
X114300000Y-85725000I8890000J0D01*
G01*
X114300000Y-85725000D02*
G75*
G03*
X123190000Y-76835000I0J8890000D01*
G01*
X123190000Y-76835002D02*
G75*
G03*
X114300000Y-67945000I-8889901J101D01*
G01*
X114300002Y-67945000D02*
G75*
G03*
X105410000Y-76835000I-101J-8889901D01*
G01*
X115198000Y-76835000D02*
G75*
G03*
X115198000Y-76835000I-898000J0D01*
G01*
X119380000Y-94488000D02*
X109220000Y-94488000D01*
X109220000Y-97028000D02*
X119380000Y-97028000D01*
X119380000Y-97028000D02*
X119380000Y-94488000D01*
X109220000Y-97028000D02*
X109220000Y-94488000D01*
X109220000Y-93218000D02*
X119380000Y-93218000D01*
X119380000Y-94488000D02*
X119380000Y-93218000D01*
X109220000Y-94488000D02*
X109220000Y-93218000D01*
D11*
X116052523Y-73539400D02*
X116128714Y-73501304D01*
X116243000Y-73501304D01*
X116357285Y-73539400D01*
X116433476Y-73615590D01*
X116471571Y-73691780D01*
X116509666Y-73844161D01*
X116509666Y-73958447D01*
X116471571Y-74110828D01*
X116433476Y-74187019D01*
X116357285Y-74263209D01*
X116243000Y-74301304D01*
X116166809Y-74301304D01*
X116052523Y-74263209D01*
X116014428Y-74225114D01*
X116014428Y-73958447D01*
X116166809Y-73958447D01*
X115671571Y-74301304D02*
X115671571Y-73501304D01*
X115214428Y-74301304D01*
X115214428Y-73501304D01*
X114833476Y-74301304D02*
X114833476Y-73501304D01*
X114643000Y-73501304D01*
X114528714Y-73539400D01*
X114452523Y-73615590D01*
X114414428Y-73691780D01*
X114376333Y-73844161D01*
X114376333Y-73958447D01*
X114414428Y-74110828D01*
X114452523Y-74187019D01*
X114528714Y-74263209D01*
X114643000Y-74301304D01*
X114833476Y-74301304D01*
X113664904Y-73501304D02*
X113398238Y-74301304D01*
X113131571Y-73501304D01*
X112864904Y-73996542D02*
X112255380Y-73996542D01*
X112560142Y-74301304D02*
X112560142Y-73691780D01*
X117926976Y-86117180D02*
X117593642Y-87117180D01*
X117260309Y-86117180D01*
X116784119Y-87117180D02*
X116879357Y-87069561D01*
X116926976Y-87021942D01*
X116974595Y-86926704D01*
X116974595Y-86640990D01*
X116926976Y-86545752D01*
X116879357Y-86498133D01*
X116784119Y-86450514D01*
X116641261Y-86450514D01*
X116546023Y-86498133D01*
X116498404Y-86545752D01*
X116450785Y-86640990D01*
X116450785Y-86926704D01*
X116498404Y-87021942D01*
X116546023Y-87069561D01*
X116641261Y-87117180D01*
X116784119Y-87117180D01*
X115879357Y-87117180D02*
X115974595Y-87069561D01*
X116022214Y-86974323D01*
X116022214Y-86117180D01*
X114784119Y-86831466D02*
X114307928Y-86831466D01*
X114879357Y-87117180D02*
X114546023Y-86117180D01*
X114212690Y-87117180D01*
X113355547Y-87117180D02*
X113926976Y-87117180D01*
X113641261Y-87117180D02*
X113641261Y-86117180D01*
X113736500Y-86260038D01*
X113831738Y-86355276D01*
X113926976Y-86402895D01*
X112736500Y-86117180D02*
X112641261Y-86117180D01*
X112546023Y-86164800D01*
X112498404Y-86212419D01*
X112450785Y-86307657D01*
X112403166Y-86498133D01*
X112403166Y-86736228D01*
X112450785Y-86926704D01*
X112498404Y-87021942D01*
X112546023Y-87069561D01*
X112641261Y-87117180D01*
X112736500Y-87117180D01*
X112831738Y-87069561D01*
X112879357Y-87021942D01*
X112926976Y-86926704D01*
X112974595Y-86736228D01*
X112974595Y-86498133D01*
X112926976Y-86307657D01*
X112879357Y-86212419D01*
X112831738Y-86164800D01*
X112736500Y-86117180D01*
X111784119Y-86117180D02*
X111688880Y-86117180D01*
X111593642Y-86164800D01*
X111546023Y-86212419D01*
X111498404Y-86307657D01*
X111450785Y-86498133D01*
X111450785Y-86736228D01*
X111498404Y-86926704D01*
X111546023Y-87021942D01*
X111593642Y-87069561D01*
X111688880Y-87117180D01*
X111784119Y-87117180D01*
X111879357Y-87069561D01*
X111926976Y-87021942D01*
X111974595Y-86926704D01*
X112022214Y-86736228D01*
X112022214Y-86498133D01*
X111974595Y-86307657D01*
X111926976Y-86212419D01*
X111879357Y-86164800D01*
X111784119Y-86117180D01*
X111022214Y-87117180D02*
X111022214Y-86117180D01*
X110926976Y-86736228D02*
X110641261Y-87117180D01*
X110641261Y-86450514D02*
X111022214Y-86831466D01*
X121132628Y-90938304D02*
X121589771Y-90938304D01*
X121361200Y-90938304D02*
X121361200Y-90138304D01*
X121437390Y-90252590D01*
X121513580Y-90328780D01*
X121589771Y-90366876D01*
X110909047Y-94214904D02*
X110909047Y-93414904D01*
X110528095Y-94214904D02*
X110528095Y-93414904D01*
X110070952Y-94214904D01*
X110070952Y-93414904D01*
X113639523Y-93453000D02*
X113715714Y-93414904D01*
X113830000Y-93414904D01*
X113944285Y-93453000D01*
X114020476Y-93529190D01*
X114058571Y-93605380D01*
X114096666Y-93757761D01*
X114096666Y-93872047D01*
X114058571Y-94024428D01*
X114020476Y-94100619D01*
X113944285Y-94176809D01*
X113830000Y-94214904D01*
X113753809Y-94214904D01*
X113639523Y-94176809D01*
X113601428Y-94138714D01*
X113601428Y-93872047D01*
X113753809Y-93872047D01*
X113258571Y-94214904D02*
X113258571Y-93414904D01*
X112801428Y-94214904D01*
X112801428Y-93414904D01*
X112420476Y-94214904D02*
X112420476Y-93414904D01*
X112230000Y-93414904D01*
X112115714Y-93453000D01*
X112039523Y-93529190D01*
X112001428Y-93605380D01*
X111963333Y-93757761D01*
X111963333Y-93872047D01*
X112001428Y-94024428D01*
X112039523Y-94100619D01*
X112115714Y-94176809D01*
X112230000Y-94214904D01*
X112420476Y-94214904D01*
X116255714Y-94176809D02*
X116141428Y-94214904D01*
X115950952Y-94214904D01*
X115874761Y-94176809D01*
X115836666Y-94138714D01*
X115798571Y-94062523D01*
X115798571Y-93986333D01*
X115836666Y-93910142D01*
X115874761Y-93872047D01*
X115950952Y-93833952D01*
X116103333Y-93795857D01*
X116179523Y-93757761D01*
X116217619Y-93719666D01*
X116255714Y-93643476D01*
X116255714Y-93567285D01*
X116217619Y-93491095D01*
X116179523Y-93453000D01*
X116103333Y-93414904D01*
X115912857Y-93414904D01*
X115798571Y-93453000D01*
X115531904Y-93414904D02*
X115341428Y-94214904D01*
X115189047Y-93643476D01*
X115036666Y-94214904D01*
X114846190Y-93414904D01*
X118910000Y-93414904D02*
X118757619Y-93414904D01*
X118681428Y-93453000D01*
X118605238Y-93529190D01*
X118567142Y-93681571D01*
X118567142Y-93948238D01*
X118605238Y-94100619D01*
X118681428Y-94176809D01*
X118757619Y-94214904D01*
X118910000Y-94214904D01*
X118986190Y-94176809D01*
X119062380Y-94100619D01*
X119100476Y-93948238D01*
X119100476Y-93681571D01*
X119062380Y-93529190D01*
X118986190Y-93453000D01*
X118910000Y-93414904D01*
X118224285Y-93414904D02*
X118224285Y-94062523D01*
X118186190Y-94138714D01*
X118148095Y-94176809D01*
X118071904Y-94214904D01*
X117919523Y-94214904D01*
X117843333Y-94176809D01*
X117805238Y-94138714D01*
X117767142Y-94062523D01*
X117767142Y-93414904D01*
X117500476Y-93414904D02*
X117043333Y-93414904D01*
X117271904Y-94214904D02*
X117271904Y-93414904D01*
%LPC*%
D13*
X115570000Y-72034400D03*
G36*
G01*
X112014800Y-72999600D02*
X112014800Y-71069200D01*
G75*
G02*
X112064800Y-71019200I50000J0D01*
G01*
X113995200Y-71019200D01*
G75*
G02*
X114045200Y-71069200I0J-50000D01*
G01*
X114045200Y-72999600D01*
G75*
G02*
X113995200Y-73049600I-50000J0D01*
G01*
X112064800Y-73049600D01*
G75*
G02*
X112014800Y-72999600I0J50000D01*
G01*
G37*
D14*
X110540800Y-78714600D03*
D15*
X102920800Y-78714600D03*
D16*
X109220000Y-91440000D03*
X114300000Y-91440000D03*
G36*
G01*
X120700000Y-90170000D02*
X120700000Y-92710000D01*
G75*
G02*
X120650000Y-92760000I-50000J0D01*
G01*
X118110000Y-92760000D01*
G75*
G02*
X118060000Y-92710000I0J50000D01*
G01*
X118060000Y-90170000D01*
G75*
G02*
X118110000Y-90120000I50000J0D01*
G01*
X120650000Y-90120000D01*
G75*
G02*
X120700000Y-90170000I0J-50000D01*
G01*
G37*
D14*
X123139200Y-83007200D03*
D15*
X123139200Y-90627200D03*
D14*
X121869200Y-72136000D03*
D15*
X121869200Y-79756000D03*
D14*
X102920800Y-75539600D03*
D15*
X110540800Y-75539600D03*
D14*
X110540800Y-72364600D03*
D15*
X102920800Y-72364600D03*
D14*
X103581200Y-88493600D03*
D15*
X103581200Y-96113600D03*
D13*
X114300000Y-80772000D03*
X114300000Y-78232000D03*
G36*
G01*
X115265200Y-76707200D02*
X113334800Y-76707200D01*
G75*
G02*
X113284800Y-76657200I0J50000D01*
G01*
X113284800Y-74726800D01*
G75*
G02*
X113334800Y-74676800I50000J0D01*
G01*
X115265200Y-74676800D01*
G75*
G02*
X115315200Y-74726800I0J-50000D01*
G01*
X115315200Y-76657200D01*
G75*
G02*
X115265200Y-76707200I-50000J0D01*
G01*
G37*
X118110000Y-95758000D03*
X115570000Y-95758000D03*
X113030000Y-95758000D03*
G36*
G01*
X109474800Y-96723200D02*
X109474800Y-94792800D01*
G75*
G02*
X109524800Y-94742800I50000J0D01*
G01*
X111455200Y-94742800D01*
G75*
G02*
X111505200Y-94792800I0J-50000D01*
G01*
X111505200Y-96723200D01*
G75*
G02*
X111455200Y-96773200I-50000J0D01*
G01*
X109524800Y-96773200D01*
G75*
G02*
X109474800Y-96723200I0J50000D01*
G01*
G37*
D17*
X123571000Y-95377000D03*
G36*
G01*
X120081000Y-96277000D02*
X120081000Y-94477000D01*
G75*
G02*
X120131000Y-94427000I50000J0D01*
G01*
X121931000Y-94427000D01*
G75*
G02*
X121981000Y-94477000I0J-50000D01*
G01*
X121981000Y-96277000D01*
G75*
G02*
X121931000Y-96327000I-50000J0D01*
G01*
X120131000Y-96327000D01*
G75*
G02*
X120081000Y-96277000I0J50000D01*
G01*
G37*
D18*
X118592600Y-72390000D03*
G36*
G01*
X119692600Y-83700000D02*
X117492600Y-83700000D01*
G75*
G02*
X117442600Y-83650000I0J50000D01*
G01*
X117442600Y-81450000D01*
G75*
G02*
X117492600Y-81400000I50000J0D01*
G01*
X119692600Y-81400000D01*
G75*
G02*
X119742600Y-81450000I0J-50000D01*
G01*
X119742600Y-83650000D01*
G75*
G02*
X119692600Y-83700000I-50000J0D01*
G01*
G37*
D15*
X112344200Y-88337400D03*
X112344200Y-83337400D03*
X107035600Y-82793200D03*
G36*
G01*
X107835600Y-86143200D02*
X106235600Y-86143200D01*
G75*
G02*
X106185600Y-86093200I0J50000D01*
G01*
X106185600Y-84493200D01*
G75*
G02*
X106235600Y-84443200I50000J0D01*
G01*
X107835600Y-84443200D01*
G75*
G02*
X107885600Y-84493200I0J-50000D01*
G01*
X107885600Y-86093200D01*
G75*
G02*
X107835600Y-86143200I-50000J0D01*
G01*
G37*
X115417600Y-83341200D03*
X115417600Y-88341200D03*
M02*
