G04 #@! TF.GenerationSoftware,KiCad,Pcbnew,(5.99.0-1165-gc29c3d9cc)*
G04 #@! TF.CreationDate,2020-03-29T18:02:48+03:00*
G04 #@! TF.ProjectId,salero-1,73616c65-726f-42d3-912e-6b696361645f,rev?*
G04 #@! TF.SameCoordinates,Original*
G04 #@! TF.FileFunction,Copper,L1,Top*
G04 #@! TF.FilePolarity,Positive*
%FSLAX46Y46*%
G04 Gerber Fmt 4.6, Leading zero omitted, Abs format (unit mm)*
G04 Created by KiCad (PCBNEW (5.99.0-1165-gc29c3d9cc)) date 2020-03-29 18:02:48*
%MOMM*%
%LPD*%
G01*
G04 APERTURE LIST*
G04 #@! TA.AperFunction,ComponentPad*
%ADD10O,1.930400X1.930400*%
G04 #@! TD*
G04 #@! TA.AperFunction,ComponentPad*
%ADD11R,1.930400X1.930400*%
G04 #@! TD*
G04 #@! TA.AperFunction,ComponentPad*
%ADD12O,1.600000X1.600000*%
G04 #@! TD*
G04 #@! TA.AperFunction,ComponentPad*
%ADD13C,1.600000*%
G04 #@! TD*
G04 #@! TA.AperFunction,ComponentPad*
%ADD14O,2.540000X2.540000*%
G04 #@! TD*
G04 #@! TA.AperFunction,ComponentPad*
%ADD15R,2.540000X2.540000*%
G04 #@! TD*
G04 #@! TA.AperFunction,ComponentPad*
%ADD16C,1.800000*%
G04 #@! TD*
G04 #@! TA.AperFunction,ComponentPad*
%ADD17R,1.800000X1.800000*%
G04 #@! TD*
G04 #@! TA.AperFunction,ComponentPad*
%ADD18O,2.200000X2.200000*%
G04 #@! TD*
G04 #@! TA.AperFunction,ComponentPad*
%ADD19R,2.200000X2.200000*%
G04 #@! TD*
G04 #@! TA.AperFunction,ComponentPad*
%ADD20R,1.600000X1.600000*%
G04 #@! TD*
G04 #@! TA.AperFunction,Conductor*
%ADD21C,0.508000*%
G04 #@! TD*
G04 #@! TA.AperFunction,Conductor*
%ADD22C,0.254000*%
G04 #@! TD*
G04 APERTURE END LIST*
D10*
X115570000Y-72034400D03*
D11*
X113030000Y-72034400D03*
D12*
X110540800Y-78714600D03*
D13*
X102920800Y-78714600D03*
D14*
X109220000Y-91440000D03*
X114300000Y-91440000D03*
D15*
X119380000Y-91440000D03*
D12*
X123139200Y-83007200D03*
D13*
X123139200Y-90627200D03*
D12*
X121869200Y-72136000D03*
D13*
X121869200Y-79756000D03*
D12*
X102920800Y-75539600D03*
D13*
X110540800Y-75539600D03*
D12*
X110540800Y-72364600D03*
D13*
X102920800Y-72364600D03*
D12*
X103581200Y-88493600D03*
D13*
X103581200Y-96113600D03*
D10*
X114300000Y-80772000D03*
X114300000Y-78232000D03*
D11*
X114300000Y-75692000D03*
D10*
X118110000Y-95758000D03*
X115570000Y-95758000D03*
X113030000Y-95758000D03*
D11*
X110490000Y-95758000D03*
D16*
X123571000Y-95377000D03*
D17*
X121031000Y-95377000D03*
D18*
X118592600Y-72390000D03*
D19*
X118592600Y-82550000D03*
D13*
X112344200Y-88337400D03*
X112344200Y-83337400D03*
X107035600Y-82793200D03*
D20*
X107035600Y-85293200D03*
D13*
X115417600Y-83341200D03*
X115417600Y-88341200D03*
D21*
X102920800Y-78714600D02*
X102920800Y-81178400D01*
X102920800Y-81178400D02*
X107035600Y-85293200D01*
X102920800Y-78714600D02*
X104174801Y-77460599D01*
X104174801Y-77460599D02*
X104174801Y-73618601D01*
X104174801Y-73618601D02*
X102920800Y-72364600D01*
X110490000Y-95758000D02*
X103936800Y-95758000D01*
X103936800Y-95758000D02*
X103581200Y-96113600D01*
X123571000Y-95377000D02*
X123571000Y-91059000D01*
X123571000Y-91059000D02*
X123139200Y-90627200D01*
X114300000Y-75692000D02*
X117805200Y-75692000D01*
X117805200Y-75692000D02*
X121869200Y-79756000D01*
X114300000Y-80772000D02*
X114300000Y-81381600D01*
X110540800Y-78714600D02*
X112242600Y-78714600D01*
X112242600Y-78714600D02*
X114300000Y-80772000D01*
X114300000Y-78232000D02*
X115719201Y-79651201D01*
X115719201Y-79651201D02*
X115719201Y-83039599D01*
X115719201Y-83039599D02*
X115417600Y-83341200D01*
X110540800Y-72364600D02*
X110540800Y-75539600D01*
X107035600Y-85293200D02*
X115849400Y-85293200D01*
X115849400Y-85293200D02*
X118592600Y-82550000D01*
X110490000Y-95758000D02*
X110944001Y-95303999D01*
X110944001Y-95303999D02*
X110944001Y-91683429D01*
X110944001Y-91683429D02*
X114286230Y-88341200D01*
X114286230Y-88341200D02*
X115417600Y-88341200D01*
X109220000Y-91440000D02*
X109241600Y-91440000D01*
X109241600Y-91440000D02*
X112344200Y-88337400D01*
X114300000Y-91440000D02*
X118110000Y-95250000D01*
X118110000Y-95250000D02*
X118110000Y-95758000D01*
G36*
X112392989Y-91526919D02*
G01*
X112393437Y-91536259D01*
X112426784Y-91807839D01*
X112428608Y-91817010D01*
X112501729Y-92080677D01*
X112504889Y-92089478D01*
X112616180Y-92339442D01*
X112620606Y-92347679D01*
X112767621Y-92578447D01*
X112773215Y-92585939D01*
X112952726Y-92792442D01*
X112959367Y-92799025D01*
X113167429Y-92976727D01*
X113174969Y-92982256D01*
X113407011Y-93127252D01*
X113415286Y-93131605D01*
X113666212Y-93240711D01*
X113675040Y-93243794D01*
X113939335Y-93314611D01*
X113948521Y-93316355D01*
X114220382Y-93347329D01*
X114229725Y-93347696D01*
X114503178Y-93338148D01*
X114512473Y-93337130D01*
X114781510Y-93287266D01*
X114790552Y-93284885D01*
X114861728Y-93260377D01*
X115772042Y-94170692D01*
X115594770Y-94153935D01*
X115584429Y-94153808D01*
X115332451Y-94171429D01*
X115322229Y-94172993D01*
X115076513Y-94231531D01*
X115066683Y-94234743D01*
X114833827Y-94332627D01*
X114824654Y-94337402D01*
X114610912Y-94472003D01*
X114602642Y-94478212D01*
X114413754Y-94645914D01*
X114406609Y-94653391D01*
X114299627Y-94785503D01*
X114220031Y-94682146D01*
X114213072Y-94674497D01*
X114028337Y-94502229D01*
X114020221Y-94495819D01*
X113809832Y-94356036D01*
X113800778Y-94351038D01*
X113570383Y-94247495D01*
X113560634Y-94244043D01*
X113316423Y-94179519D01*
X113306242Y-94177706D01*
X113240402Y-94171482D01*
X113158000Y-94246461D01*
X113158000Y-95886000D01*
X112902000Y-95886000D01*
X112902000Y-94242957D01*
X112806184Y-94167286D01*
X112536513Y-94231531D01*
X112526683Y-94234743D01*
X112293827Y-94332627D01*
X112284654Y-94337402D01*
X112070912Y-94472003D01*
X112062642Y-94478212D01*
X112025923Y-94510812D01*
X112020063Y-94488942D01*
X112007320Y-94464462D01*
X111876210Y-94308210D01*
X111859321Y-94294039D01*
X111834001Y-94279420D01*
X111834001Y-92052077D01*
X112393899Y-91492179D01*
X112392989Y-91526919D01*
G37*
D22*
X112392989Y-91526919D02*
X112393437Y-91536259D01*
X112426784Y-91807839D01*
X112428608Y-91817010D01*
X112501729Y-92080677D01*
X112504889Y-92089478D01*
X112616180Y-92339442D01*
X112620606Y-92347679D01*
X112767621Y-92578447D01*
X112773215Y-92585939D01*
X112952726Y-92792442D01*
X112959367Y-92799025D01*
X113167429Y-92976727D01*
X113174969Y-92982256D01*
X113407011Y-93127252D01*
X113415286Y-93131605D01*
X113666212Y-93240711D01*
X113675040Y-93243794D01*
X113939335Y-93314611D01*
X113948521Y-93316355D01*
X114220382Y-93347329D01*
X114229725Y-93347696D01*
X114503178Y-93338148D01*
X114512473Y-93337130D01*
X114781510Y-93287266D01*
X114790552Y-93284885D01*
X114861728Y-93260377D01*
X115772042Y-94170692D01*
X115594770Y-94153935D01*
X115584429Y-94153808D01*
X115332451Y-94171429D01*
X115322229Y-94172993D01*
X115076513Y-94231531D01*
X115066683Y-94234743D01*
X114833827Y-94332627D01*
X114824654Y-94337402D01*
X114610912Y-94472003D01*
X114602642Y-94478212D01*
X114413754Y-94645914D01*
X114406609Y-94653391D01*
X114299627Y-94785503D01*
X114220031Y-94682146D01*
X114213072Y-94674497D01*
X114028337Y-94502229D01*
X114020221Y-94495819D01*
X113809832Y-94356036D01*
X113800778Y-94351038D01*
X113570383Y-94247495D01*
X113560634Y-94244043D01*
X113316423Y-94179519D01*
X113306242Y-94177706D01*
X113240402Y-94171482D01*
X113158000Y-94246461D01*
X113158000Y-95886000D01*
X112902000Y-95886000D01*
X112902000Y-94242957D01*
X112806184Y-94167286D01*
X112536513Y-94231531D01*
X112526683Y-94234743D01*
X112293827Y-94332627D01*
X112284654Y-94337402D01*
X112070912Y-94472003D01*
X112062642Y-94478212D01*
X112025923Y-94510812D01*
X112020063Y-94488942D01*
X112007320Y-94464462D01*
X111876210Y-94308210D01*
X111859321Y-94294039D01*
X111834001Y-94279420D01*
X111834001Y-92052077D01*
X112393899Y-91492179D01*
X112392989Y-91526919D01*
G36*
X109719932Y-71182688D02*
G01*
X109710919Y-71188999D01*
X109527166Y-71343187D01*
X109519387Y-71350966D01*
X109365199Y-71534719D01*
X109358888Y-71543732D01*
X109238952Y-71751468D01*
X109234302Y-71761440D01*
X109152260Y-71986847D01*
X109149413Y-71997474D01*
X109107759Y-72233703D01*
X109106800Y-72244664D01*
X109106800Y-72484536D01*
X109107759Y-72495497D01*
X109149413Y-72731726D01*
X109152260Y-72742353D01*
X109234302Y-72967760D01*
X109238952Y-72977732D01*
X109358888Y-73185468D01*
X109365199Y-73194481D01*
X109519387Y-73378234D01*
X109527166Y-73386013D01*
X109650800Y-73489754D01*
X109650801Y-74414445D01*
X109527166Y-74518187D01*
X109519387Y-74525966D01*
X109365199Y-74709719D01*
X109358888Y-74718732D01*
X109238952Y-74926468D01*
X109234302Y-74936440D01*
X109152260Y-75161847D01*
X109149413Y-75172474D01*
X109107759Y-75408703D01*
X109106800Y-75419664D01*
X109106800Y-75659536D01*
X109107759Y-75670497D01*
X109149413Y-75906726D01*
X109152260Y-75917353D01*
X109234302Y-76142760D01*
X109238952Y-76152732D01*
X109358888Y-76360468D01*
X109365199Y-76369481D01*
X109519387Y-76553234D01*
X109527166Y-76561013D01*
X109710919Y-76715201D01*
X109719932Y-76721512D01*
X109927668Y-76841448D01*
X109937640Y-76846098D01*
X110163047Y-76928140D01*
X110173674Y-76930987D01*
X110409903Y-76972641D01*
X110420864Y-76973600D01*
X110660736Y-76973600D01*
X110671697Y-76972641D01*
X110907926Y-76930987D01*
X110918553Y-76928140D01*
X111143960Y-76846098D01*
X111153932Y-76841448D01*
X111361668Y-76721512D01*
X111370681Y-76715201D01*
X111554434Y-76561013D01*
X111562213Y-76553234D01*
X111716401Y-76369481D01*
X111722712Y-76360468D01*
X111842648Y-76152732D01*
X111847298Y-76142760D01*
X111929340Y-75917353D01*
X111932187Y-75906726D01*
X111973841Y-75670497D01*
X111974800Y-75659536D01*
X111974800Y-75419664D01*
X111973841Y-75408703D01*
X111932187Y-75172474D01*
X111929340Y-75161847D01*
X111847298Y-74936440D01*
X111842648Y-74926468D01*
X111722712Y-74718732D01*
X111716401Y-74709719D01*
X111562213Y-74525966D01*
X111554434Y-74518187D01*
X111430800Y-74414446D01*
X111430800Y-73489754D01*
X111554433Y-73386013D01*
X111558227Y-73382220D01*
X111643790Y-73484190D01*
X111660679Y-73498361D01*
X111834920Y-73598959D01*
X111855637Y-73606500D01*
X112048338Y-73640478D01*
X112059299Y-73641437D01*
X114003458Y-73641437D01*
X114019834Y-73639281D01*
X114299059Y-73564463D01*
X114323539Y-73551720D01*
X114479790Y-73420610D01*
X114493961Y-73403721D01*
X114564025Y-73282366D01*
X114756148Y-73416892D01*
X114765077Y-73422110D01*
X114992873Y-73531251D01*
X115002535Y-73534940D01*
X115245098Y-73605412D01*
X115255232Y-73607473D01*
X115357309Y-73619646D01*
X115442000Y-73544454D01*
X115442000Y-71906400D01*
X115698000Y-71906400D01*
X115698000Y-73546701D01*
X115791412Y-73622344D01*
X116026045Y-73572470D01*
X116035950Y-73569499D01*
X116271128Y-73477333D01*
X116280415Y-73472784D01*
X116497382Y-73343446D01*
X116505801Y-73337441D01*
X116698730Y-73174403D01*
X116706055Y-73167103D01*
X116869766Y-72974744D01*
X116875801Y-72966346D01*
X116928262Y-72879035D01*
X116984105Y-73050902D01*
X116987894Y-73060050D01*
X117107296Y-73294390D01*
X117112469Y-73302832D01*
X117267060Y-73515608D01*
X117273490Y-73523137D01*
X117459463Y-73709110D01*
X117466992Y-73715540D01*
X117679768Y-73870131D01*
X117688210Y-73875304D01*
X117922550Y-73994706D01*
X117931698Y-73998495D01*
X118181831Y-74079768D01*
X118191459Y-74082079D01*
X118451227Y-74123223D01*
X118461097Y-74124000D01*
X118724103Y-74124000D01*
X118733973Y-74123223D01*
X118993741Y-74082079D01*
X119003369Y-74079768D01*
X119253502Y-73998495D01*
X119262650Y-73994706D01*
X119496990Y-73875304D01*
X119505432Y-73870131D01*
X119718208Y-73715540D01*
X119725737Y-73709110D01*
X119911710Y-73523137D01*
X119918140Y-73515608D01*
X120072731Y-73302832D01*
X120077904Y-73294390D01*
X120197306Y-73060050D01*
X120201095Y-73050902D01*
X120282368Y-72800769D01*
X120284679Y-72791141D01*
X120325823Y-72531373D01*
X120326600Y-72521503D01*
X120326600Y-72354017D01*
X120451521Y-72354017D01*
X120477813Y-72503125D01*
X120480660Y-72513753D01*
X120562702Y-72739160D01*
X120567352Y-72749132D01*
X120687288Y-72956868D01*
X120693599Y-72965881D01*
X120847787Y-73149634D01*
X120855566Y-73157413D01*
X121039319Y-73311601D01*
X121048332Y-73317912D01*
X121256068Y-73437848D01*
X121266040Y-73442498D01*
X121491447Y-73524540D01*
X121502074Y-73527387D01*
X121651182Y-73553680D01*
X121741200Y-73478146D01*
X121997199Y-73478146D01*
X122087217Y-73553679D01*
X122236325Y-73527387D01*
X122246953Y-73524540D01*
X122472360Y-73442498D01*
X122482332Y-73437848D01*
X122690068Y-73317912D01*
X122699081Y-73311601D01*
X122882834Y-73157413D01*
X122890613Y-73149634D01*
X123044801Y-72965881D01*
X123051112Y-72956868D01*
X123171048Y-72749132D01*
X123175698Y-72739160D01*
X123257740Y-72513753D01*
X123260587Y-72503126D01*
X123286880Y-72354018D01*
X123211346Y-72264000D01*
X122071009Y-72263999D01*
X121997200Y-72337808D01*
X121997199Y-73478146D01*
X121741200Y-73478146D01*
X121741201Y-72337809D01*
X121667392Y-72264000D01*
X120527054Y-72263999D01*
X120451521Y-72354017D01*
X120326600Y-72354017D01*
X120326600Y-72258497D01*
X120325823Y-72248627D01*
X120284679Y-71988859D01*
X120282368Y-71979231D01*
X120201095Y-71729098D01*
X120197306Y-71719950D01*
X120077904Y-71485610D01*
X120072731Y-71477168D01*
X119918140Y-71264392D01*
X119911710Y-71256863D01*
X119773847Y-71119000D01*
X120851153Y-71119000D01*
X120847787Y-71122366D01*
X120693599Y-71306119D01*
X120687288Y-71315132D01*
X120567352Y-71522868D01*
X120562702Y-71532840D01*
X120480660Y-71758247D01*
X120477813Y-71768874D01*
X120451520Y-71917982D01*
X120527054Y-72008000D01*
X121667392Y-72008001D01*
X121667393Y-72008000D01*
X123211346Y-72008001D01*
X123286879Y-71917983D01*
X123260587Y-71768875D01*
X123257740Y-71758247D01*
X123175698Y-71532840D01*
X123171048Y-71522868D01*
X123051112Y-71315132D01*
X123044801Y-71306119D01*
X122890613Y-71122366D01*
X122887247Y-71119000D01*
X124461000Y-71119000D01*
X124461000Y-82446083D01*
X124445698Y-82404040D01*
X124441048Y-82394068D01*
X124321112Y-82186332D01*
X124314801Y-82177319D01*
X124160613Y-81993566D01*
X124152834Y-81985787D01*
X123969081Y-81831599D01*
X123960068Y-81825288D01*
X123752332Y-81705352D01*
X123742360Y-81700702D01*
X123516953Y-81618660D01*
X123506326Y-81615813D01*
X123270097Y-81574159D01*
X123259136Y-81573200D01*
X123019264Y-81573200D01*
X123008303Y-81574159D01*
X122772074Y-81615813D01*
X122761447Y-81618660D01*
X122536040Y-81700702D01*
X122526068Y-81705352D01*
X122318332Y-81825288D01*
X122309319Y-81831599D01*
X122125566Y-81985787D01*
X122117787Y-81993566D01*
X121963599Y-82177319D01*
X121957288Y-82186332D01*
X121837352Y-82394068D01*
X121832702Y-82404040D01*
X121750660Y-82629447D01*
X121747813Y-82640074D01*
X121706159Y-82876303D01*
X121705200Y-82887264D01*
X121705200Y-83127136D01*
X121706159Y-83138097D01*
X121747813Y-83374326D01*
X121750660Y-83384953D01*
X121832702Y-83610360D01*
X121837352Y-83620332D01*
X121957288Y-83828068D01*
X121963599Y-83837081D01*
X122117787Y-84020834D01*
X122125566Y-84028613D01*
X122309319Y-84182801D01*
X122318332Y-84189112D01*
X122526068Y-84309048D01*
X122536040Y-84313698D01*
X122761447Y-84395740D01*
X122772074Y-84398587D01*
X123008303Y-84440241D01*
X123019264Y-84441200D01*
X123259136Y-84441200D01*
X123270097Y-84440241D01*
X123506326Y-84398587D01*
X123516953Y-84395740D01*
X123742360Y-84313698D01*
X123752332Y-84309048D01*
X123960068Y-84189112D01*
X123969081Y-84182801D01*
X124152834Y-84028613D01*
X124160613Y-84020834D01*
X124314801Y-83837081D01*
X124321112Y-83828068D01*
X124441048Y-83620332D01*
X124445698Y-83610360D01*
X124461001Y-83568317D01*
X124461001Y-90066084D01*
X124445698Y-90024040D01*
X124441048Y-90014068D01*
X124321112Y-89806332D01*
X124314801Y-89797319D01*
X124160613Y-89613566D01*
X124152834Y-89605787D01*
X123969081Y-89451599D01*
X123960068Y-89445288D01*
X123752332Y-89325352D01*
X123742360Y-89320702D01*
X123516953Y-89238660D01*
X123506326Y-89235813D01*
X123270097Y-89194159D01*
X123259136Y-89193200D01*
X123019264Y-89193200D01*
X123008303Y-89194159D01*
X122772074Y-89235813D01*
X122761447Y-89238660D01*
X122536040Y-89320702D01*
X122526068Y-89325352D01*
X122318332Y-89445288D01*
X122309319Y-89451599D01*
X122125566Y-89605787D01*
X122117787Y-89613566D01*
X121963599Y-89797319D01*
X121957288Y-89806332D01*
X121837352Y-90014068D01*
X121832702Y-90024040D01*
X121750660Y-90249447D01*
X121747813Y-90260074D01*
X121706159Y-90496303D01*
X121705200Y-90507264D01*
X121705200Y-90747136D01*
X121706159Y-90758097D01*
X121747813Y-90994326D01*
X121750660Y-91004953D01*
X121832702Y-91230360D01*
X121837352Y-91240332D01*
X121957288Y-91448068D01*
X121963599Y-91457081D01*
X122117787Y-91640834D01*
X122125566Y-91648613D01*
X122309319Y-91802801D01*
X122318332Y-91809112D01*
X122526068Y-91929048D01*
X122536040Y-91933698D01*
X122681001Y-91986460D01*
X122681000Y-94127423D01*
X122566311Y-94211056D01*
X122558250Y-94218051D01*
X122518774Y-94258645D01*
X122495863Y-94173142D01*
X122483120Y-94148662D01*
X122352010Y-93992410D01*
X122335121Y-93978239D01*
X122160880Y-93877641D01*
X122140163Y-93870100D01*
X121947462Y-93836122D01*
X121936501Y-93835163D01*
X120122742Y-93835163D01*
X120106366Y-93837319D01*
X119827142Y-93912137D01*
X119802662Y-93924880D01*
X119646410Y-94055990D01*
X119632239Y-94072879D01*
X119531641Y-94247120D01*
X119524100Y-94267837D01*
X119490122Y-94460538D01*
X119489163Y-94471499D01*
X119489163Y-94945778D01*
X119459767Y-94890955D01*
X119454149Y-94882271D01*
X119300031Y-94682146D01*
X119293072Y-94674497D01*
X119108337Y-94502229D01*
X119100221Y-94495819D01*
X118889832Y-94356036D01*
X118880778Y-94351038D01*
X118650383Y-94247495D01*
X118640634Y-94244043D01*
X118396423Y-94179519D01*
X118386241Y-94177706D01*
X118286971Y-94168322D01*
X116121441Y-92002793D01*
X116136043Y-91962675D01*
X116138581Y-91953676D01*
X116193297Y-91684741D01*
X116194543Y-91673809D01*
X116195380Y-91641808D01*
X117468163Y-91641808D01*
X117468163Y-92718258D01*
X117470319Y-92734634D01*
X117545137Y-93013859D01*
X117557880Y-93038339D01*
X117688990Y-93194590D01*
X117705879Y-93208761D01*
X117880120Y-93309359D01*
X117900837Y-93316900D01*
X118093538Y-93350878D01*
X118104499Y-93351837D01*
X119178191Y-93351837D01*
X119252000Y-93278028D01*
X119507999Y-93278028D01*
X119581808Y-93351837D01*
X120658258Y-93351837D01*
X120674634Y-93349681D01*
X120953859Y-93274863D01*
X120978339Y-93262120D01*
X121134590Y-93131010D01*
X121148761Y-93114121D01*
X121249359Y-92939880D01*
X121256900Y-92919163D01*
X121290878Y-92726462D01*
X121291837Y-92715501D01*
X121291837Y-91641809D01*
X121218028Y-91568000D01*
X119581809Y-91567999D01*
X119508000Y-91641808D01*
X119507999Y-93278028D01*
X119252000Y-93278028D01*
X119252001Y-91641809D01*
X119178192Y-91568000D01*
X117541972Y-91567999D01*
X117468163Y-91641808D01*
X116195380Y-91641808D01*
X116204183Y-91305665D01*
X116203511Y-91294683D01*
X116162946Y-91023252D01*
X116160882Y-91014132D01*
X116080883Y-90752468D01*
X116077494Y-90743753D01*
X115959698Y-90496789D01*
X115955058Y-90488671D01*
X115802052Y-90261831D01*
X115796264Y-90254488D01*
X115713805Y-90164499D01*
X117468163Y-90164499D01*
X117468163Y-91238191D01*
X117541972Y-91312000D01*
X119178191Y-91312001D01*
X119252000Y-91238192D01*
X119252000Y-91238191D01*
X119507999Y-91238191D01*
X119581808Y-91312000D01*
X121218028Y-91312001D01*
X121291837Y-91238192D01*
X121291837Y-90161742D01*
X121289681Y-90145366D01*
X121214863Y-89866142D01*
X121202120Y-89841662D01*
X121071010Y-89685410D01*
X121054121Y-89671239D01*
X120879880Y-89570641D01*
X120859163Y-89563100D01*
X120666462Y-89529122D01*
X120655501Y-89528163D01*
X119581809Y-89528163D01*
X119508000Y-89601972D01*
X119507999Y-91238191D01*
X119252000Y-91238191D01*
X119252001Y-89601972D01*
X119178192Y-89528163D01*
X118101742Y-89528163D01*
X118085366Y-89530319D01*
X117806142Y-89605137D01*
X117781662Y-89617880D01*
X117625410Y-89748990D01*
X117611239Y-89765879D01*
X117510641Y-89940120D01*
X117503100Y-89960837D01*
X117469122Y-90153538D01*
X117468163Y-90164499D01*
X115713805Y-90164499D01*
X115611410Y-90052754D01*
X115604599Y-90046347D01*
X115391957Y-89874153D01*
X115384274Y-89868824D01*
X115196789Y-89758387D01*
X115286703Y-89774241D01*
X115297664Y-89775200D01*
X115537536Y-89775200D01*
X115548497Y-89774241D01*
X115784726Y-89732587D01*
X115795353Y-89729740D01*
X116020760Y-89647698D01*
X116030732Y-89643048D01*
X116238468Y-89523112D01*
X116247481Y-89516801D01*
X116431234Y-89362613D01*
X116439013Y-89354834D01*
X116593201Y-89171081D01*
X116599512Y-89162068D01*
X116719448Y-88954332D01*
X116724098Y-88944360D01*
X116806140Y-88718953D01*
X116808987Y-88708326D01*
X116850641Y-88472097D01*
X116851600Y-88461136D01*
X116851600Y-88221264D01*
X116850641Y-88210303D01*
X116808987Y-87974074D01*
X116806140Y-87963447D01*
X116724098Y-87738040D01*
X116719448Y-87728068D01*
X116599512Y-87520332D01*
X116593201Y-87511319D01*
X116439013Y-87327566D01*
X116431234Y-87319787D01*
X116247481Y-87165599D01*
X116238468Y-87159288D01*
X116030732Y-87039352D01*
X116020760Y-87034702D01*
X115795353Y-86952660D01*
X115784726Y-86949813D01*
X115548497Y-86908159D01*
X115537536Y-86907200D01*
X115297664Y-86907200D01*
X115286703Y-86908159D01*
X115050474Y-86949813D01*
X115039847Y-86952660D01*
X114814440Y-87034702D01*
X114804468Y-87039352D01*
X114596732Y-87159288D01*
X114587719Y-87165599D01*
X114403966Y-87319787D01*
X114396187Y-87327567D01*
X114294355Y-87448925D01*
X114257684Y-87451200D01*
X114226892Y-87451200D01*
X114217950Y-87451837D01*
X114195439Y-87455061D01*
X114112946Y-87460179D01*
X114095367Y-87463819D01*
X114069774Y-87473058D01*
X114042847Y-87476914D01*
X114025616Y-87481953D01*
X113950389Y-87516157D01*
X113872455Y-87544291D01*
X113856288Y-87552951D01*
X113835290Y-87568489D01*
X113810055Y-87579962D01*
X113794930Y-87589635D01*
X113723277Y-87651375D01*
X113704463Y-87665297D01*
X113697380Y-87671400D01*
X113680838Y-87687943D01*
X113643600Y-87720029D01*
X113526112Y-87516532D01*
X113519801Y-87507519D01*
X113365613Y-87323766D01*
X113357834Y-87315987D01*
X113174081Y-87161799D01*
X113165068Y-87155488D01*
X112957332Y-87035552D01*
X112947360Y-87030902D01*
X112721953Y-86948860D01*
X112711326Y-86946013D01*
X112475097Y-86904359D01*
X112464136Y-86903400D01*
X112224264Y-86903400D01*
X112213303Y-86904359D01*
X111977074Y-86946013D01*
X111966447Y-86948860D01*
X111741040Y-87030902D01*
X111731068Y-87035552D01*
X111523332Y-87155488D01*
X111514319Y-87161799D01*
X111330566Y-87315987D01*
X111322787Y-87323766D01*
X111168599Y-87507519D01*
X111162288Y-87516532D01*
X111042352Y-87724268D01*
X111037702Y-87734240D01*
X110955660Y-87959647D01*
X110952813Y-87970274D01*
X110911159Y-88206503D01*
X110910200Y-88217464D01*
X110910200Y-88457336D01*
X110911159Y-88468297D01*
X110917679Y-88505272D01*
X109801284Y-89621668D01*
X109797528Y-89620466D01*
X109531470Y-89556590D01*
X109522241Y-89555087D01*
X109249663Y-89531240D01*
X109240313Y-89531118D01*
X108967204Y-89547821D01*
X108957939Y-89549082D01*
X108690299Y-89605971D01*
X108681322Y-89608588D01*
X108425031Y-89704411D01*
X108416539Y-89708325D01*
X108177226Y-89840979D01*
X108169406Y-89846105D01*
X107952330Y-90012675D01*
X107945354Y-90018901D01*
X107755282Y-90215726D01*
X107749303Y-90222915D01*
X107590412Y-90445673D01*
X107585561Y-90453667D01*
X107461341Y-90697463D01*
X107457725Y-90706086D01*
X107370904Y-90965565D01*
X107368602Y-90974628D01*
X107321088Y-91244090D01*
X107320152Y-91253394D01*
X107312989Y-91526919D01*
X107313437Y-91536259D01*
X107346784Y-91807839D01*
X107348608Y-91817010D01*
X107421729Y-92080677D01*
X107424889Y-92089478D01*
X107536180Y-92339442D01*
X107540606Y-92347679D01*
X107687621Y-92578447D01*
X107693215Y-92585939D01*
X107872726Y-92792442D01*
X107879367Y-92799025D01*
X108087429Y-92976727D01*
X108094969Y-92982256D01*
X108327011Y-93127252D01*
X108335286Y-93131605D01*
X108586212Y-93240711D01*
X108595040Y-93243794D01*
X108859335Y-93314611D01*
X108868521Y-93316355D01*
X109140382Y-93347329D01*
X109149725Y-93347696D01*
X109423178Y-93338148D01*
X109432473Y-93337130D01*
X109701510Y-93287266D01*
X109710552Y-93284885D01*
X109969264Y-93195804D01*
X109977855Y-93192113D01*
X110054002Y-93152474D01*
X110054001Y-94150963D01*
X109516542Y-94150963D01*
X109500166Y-94153119D01*
X109220942Y-94227937D01*
X109196462Y-94240680D01*
X109040210Y-94371790D01*
X109026039Y-94388679D01*
X108925441Y-94562920D01*
X108917900Y-94583637D01*
X108883922Y-94776338D01*
X108882963Y-94787299D01*
X108882963Y-94868000D01*
X104291756Y-94868000D01*
X104194332Y-94811752D01*
X104184360Y-94807102D01*
X103958953Y-94725060D01*
X103948326Y-94722213D01*
X103712097Y-94680559D01*
X103701136Y-94679600D01*
X103461264Y-94679600D01*
X103450303Y-94680559D01*
X103214074Y-94722213D01*
X103203447Y-94725060D01*
X102978040Y-94807102D01*
X102968068Y-94811752D01*
X102760332Y-94931688D01*
X102751319Y-94937999D01*
X102567566Y-95092187D01*
X102559787Y-95099966D01*
X102405599Y-95283719D01*
X102399288Y-95292732D01*
X102279352Y-95500468D01*
X102274702Y-95510440D01*
X102234000Y-95622267D01*
X102234000Y-88984933D01*
X102274702Y-89096760D01*
X102279352Y-89106732D01*
X102399288Y-89314468D01*
X102405599Y-89323481D01*
X102559787Y-89507234D01*
X102567566Y-89515013D01*
X102751319Y-89669201D01*
X102760332Y-89675512D01*
X102968068Y-89795448D01*
X102978040Y-89800098D01*
X103203447Y-89882140D01*
X103214074Y-89884987D01*
X103363182Y-89911280D01*
X103453200Y-89835746D01*
X103709199Y-89835746D01*
X103799217Y-89911279D01*
X103948325Y-89884987D01*
X103958953Y-89882140D01*
X104184360Y-89800098D01*
X104194332Y-89795448D01*
X104402068Y-89675512D01*
X104411081Y-89669201D01*
X104594834Y-89515013D01*
X104602613Y-89507234D01*
X104756801Y-89323481D01*
X104763112Y-89314468D01*
X104883048Y-89106732D01*
X104887698Y-89096760D01*
X104969740Y-88871353D01*
X104972587Y-88860726D01*
X104998880Y-88711618D01*
X104923346Y-88621600D01*
X103783009Y-88621599D01*
X103709200Y-88695408D01*
X103709199Y-89835746D01*
X103453200Y-89835746D01*
X103453201Y-88695408D01*
X103453200Y-88695407D01*
X103453200Y-88291791D01*
X103709199Y-88291791D01*
X103783008Y-88365600D01*
X104923346Y-88365601D01*
X104998879Y-88275583D01*
X104972587Y-88126475D01*
X104969740Y-88115847D01*
X104887698Y-87890440D01*
X104883048Y-87880468D01*
X104763112Y-87672732D01*
X104756801Y-87663719D01*
X104602613Y-87479966D01*
X104594834Y-87472187D01*
X104411081Y-87317999D01*
X104402068Y-87311688D01*
X104194332Y-87191752D01*
X104184360Y-87187102D01*
X103958953Y-87105060D01*
X103948326Y-87102213D01*
X103799218Y-87075920D01*
X103709200Y-87151454D01*
X103709199Y-88291791D01*
X103453200Y-88291791D01*
X103453201Y-87151454D01*
X103363183Y-87075921D01*
X103214075Y-87102213D01*
X103203447Y-87105060D01*
X102978040Y-87187102D01*
X102968068Y-87191752D01*
X102760332Y-87311688D01*
X102751319Y-87317999D01*
X102567566Y-87472187D01*
X102559787Y-87479966D01*
X102405599Y-87663719D01*
X102399288Y-87672732D01*
X102279352Y-87880468D01*
X102274702Y-87890440D01*
X102234000Y-88002267D01*
X102234000Y-81745440D01*
X102244897Y-81760166D01*
X102251000Y-81767249D01*
X102267544Y-81783792D01*
X102323808Y-81849090D01*
X102337337Y-81860892D01*
X102358106Y-81874354D01*
X105593763Y-85110012D01*
X105593763Y-86101458D01*
X105595919Y-86117834D01*
X105670737Y-86397059D01*
X105683480Y-86421539D01*
X105814590Y-86577790D01*
X105831479Y-86591961D01*
X106005720Y-86692559D01*
X106026437Y-86700100D01*
X106219138Y-86734078D01*
X106230099Y-86735037D01*
X107843858Y-86735037D01*
X107860234Y-86732881D01*
X108139459Y-86658063D01*
X108163939Y-86645320D01*
X108320190Y-86514210D01*
X108334361Y-86497321D01*
X108434959Y-86323080D01*
X108442500Y-86302363D01*
X108463511Y-86183200D01*
X115749694Y-86183200D01*
X115768446Y-86187443D01*
X115786340Y-86188883D01*
X115877945Y-86183200D01*
X115908737Y-86183200D01*
X115917679Y-86182563D01*
X115940200Y-86179338D01*
X116022684Y-86174221D01*
X116040264Y-86170580D01*
X116065850Y-86161343D01*
X116092782Y-86157486D01*
X116110013Y-86152447D01*
X116185249Y-86118240D01*
X116263174Y-86090108D01*
X116279341Y-86081448D01*
X116300334Y-86065914D01*
X116325576Y-86054437D01*
X116340700Y-86044765D01*
X116412360Y-85983019D01*
X116431166Y-85969103D01*
X116438249Y-85963000D01*
X116454785Y-85946463D01*
X116520090Y-85890193D01*
X116531892Y-85876664D01*
X116545354Y-85855894D01*
X118109412Y-84291837D01*
X119700858Y-84291837D01*
X119717234Y-84289681D01*
X119996459Y-84214863D01*
X120020939Y-84202120D01*
X120177190Y-84071010D01*
X120191361Y-84054121D01*
X120291959Y-83879880D01*
X120299500Y-83859163D01*
X120333478Y-83666462D01*
X120334437Y-83655501D01*
X120334437Y-81441742D01*
X120332281Y-81425366D01*
X120257463Y-81146142D01*
X120244720Y-81121662D01*
X120113610Y-80965410D01*
X120096721Y-80951239D01*
X119922480Y-80850641D01*
X119901763Y-80843100D01*
X119709062Y-80809122D01*
X119698101Y-80808163D01*
X117484342Y-80808163D01*
X117467966Y-80810319D01*
X117188742Y-80885137D01*
X117164262Y-80897880D01*
X117008010Y-81028990D01*
X116993839Y-81045879D01*
X116893241Y-81220120D01*
X116885700Y-81240837D01*
X116851722Y-81433538D01*
X116850763Y-81444499D01*
X116850763Y-83033188D01*
X116824110Y-83059841D01*
X116808987Y-82974074D01*
X116806140Y-82963447D01*
X116724098Y-82738040D01*
X116719448Y-82728068D01*
X116609201Y-82537115D01*
X116609201Y-79750907D01*
X116613444Y-79732155D01*
X116614884Y-79714261D01*
X116609201Y-79622655D01*
X116609201Y-79591863D01*
X116608564Y-79582921D01*
X116605340Y-79560410D01*
X116600222Y-79477917D01*
X116596582Y-79460337D01*
X116587343Y-79434743D01*
X116583487Y-79407819D01*
X116578448Y-79390588D01*
X116544239Y-79315346D01*
X116516109Y-79237426D01*
X116507449Y-79221258D01*
X116491914Y-79200264D01*
X116480439Y-79175027D01*
X116470766Y-79159901D01*
X116409032Y-79088255D01*
X116395104Y-79069433D01*
X116389001Y-79062350D01*
X116372447Y-79045797D01*
X116316192Y-78980511D01*
X116302664Y-78968709D01*
X116281904Y-78955253D01*
X115869107Y-78542456D01*
X115890011Y-78445769D01*
X115891418Y-78433969D01*
X115899385Y-78108013D01*
X115898556Y-78096158D01*
X115857175Y-77846197D01*
X115854655Y-77836167D01*
X115773253Y-77597050D01*
X115769130Y-77587566D01*
X115649767Y-77364955D01*
X115644149Y-77356271D01*
X115545629Y-77228341D01*
X115569059Y-77222063D01*
X115593539Y-77209320D01*
X115749790Y-77078210D01*
X115763961Y-77061321D01*
X115864559Y-76887080D01*
X115872100Y-76866363D01*
X115906078Y-76673662D01*
X115907037Y-76662701D01*
X115907037Y-76582000D01*
X117436552Y-76582000D01*
X120442679Y-79588128D01*
X120436159Y-79625103D01*
X120435200Y-79636064D01*
X120435200Y-79875936D01*
X120436159Y-79886897D01*
X120477813Y-80123126D01*
X120480660Y-80133753D01*
X120562702Y-80359160D01*
X120567352Y-80369132D01*
X120687288Y-80576868D01*
X120693599Y-80585881D01*
X120847787Y-80769634D01*
X120855566Y-80777413D01*
X121039319Y-80931601D01*
X121048332Y-80937912D01*
X121256068Y-81057848D01*
X121266040Y-81062498D01*
X121491447Y-81144540D01*
X121502074Y-81147387D01*
X121738303Y-81189041D01*
X121749264Y-81190000D01*
X121989136Y-81190000D01*
X122000097Y-81189041D01*
X122236326Y-81147387D01*
X122246953Y-81144540D01*
X122472360Y-81062498D01*
X122482332Y-81057848D01*
X122690068Y-80937912D01*
X122699081Y-80931601D01*
X122882834Y-80777413D01*
X122890613Y-80769634D01*
X123044801Y-80585881D01*
X123051112Y-80576868D01*
X123171048Y-80369132D01*
X123175698Y-80359160D01*
X123257740Y-80133753D01*
X123260587Y-80123126D01*
X123302241Y-79886897D01*
X123303200Y-79875936D01*
X123303200Y-79636064D01*
X123302241Y-79625103D01*
X123260587Y-79388874D01*
X123257740Y-79378247D01*
X123175698Y-79152840D01*
X123171048Y-79142868D01*
X123051112Y-78935132D01*
X123044801Y-78926119D01*
X122890613Y-78742366D01*
X122882834Y-78734587D01*
X122699081Y-78580399D01*
X122690068Y-78574088D01*
X122482332Y-78454152D01*
X122472360Y-78449502D01*
X122246953Y-78367460D01*
X122236326Y-78364613D01*
X122000097Y-78322959D01*
X121989136Y-78322000D01*
X121749264Y-78322000D01*
X121738303Y-78322959D01*
X121701328Y-78329479D01*
X118505035Y-75133187D01*
X118494770Y-75116918D01*
X118483134Y-75103246D01*
X118414315Y-75042467D01*
X118392567Y-75020718D01*
X118385793Y-75014845D01*
X118367609Y-75001217D01*
X118305646Y-74946494D01*
X118290641Y-74936637D01*
X118266006Y-74925071D01*
X118244245Y-74908762D01*
X118228498Y-74900140D01*
X118151119Y-74871131D01*
X118076117Y-74835918D01*
X118058561Y-74830609D01*
X118032729Y-74826749D01*
X118006770Y-74817017D01*
X117989235Y-74813162D01*
X117894913Y-74806152D01*
X117871767Y-74802693D01*
X117862442Y-74802000D01*
X117839041Y-74802000D01*
X117753089Y-74795613D01*
X117735177Y-74796834D01*
X117710977Y-74802000D01*
X115907037Y-74802000D01*
X115907037Y-74718542D01*
X115904881Y-74702166D01*
X115830063Y-74422942D01*
X115817320Y-74398462D01*
X115686210Y-74242210D01*
X115669321Y-74228039D01*
X115495080Y-74127441D01*
X115474363Y-74119900D01*
X115281662Y-74085922D01*
X115270701Y-74084963D01*
X113326542Y-74084963D01*
X113310166Y-74087119D01*
X113030942Y-74161937D01*
X113006462Y-74174680D01*
X112850210Y-74305790D01*
X112836039Y-74322679D01*
X112735441Y-74496920D01*
X112727900Y-74517637D01*
X112693922Y-74710338D01*
X112692963Y-74721299D01*
X112692963Y-76665458D01*
X112695119Y-76681834D01*
X112769937Y-76961059D01*
X112782680Y-76985539D01*
X112913790Y-77141790D01*
X112930679Y-77155961D01*
X113055238Y-77227875D01*
X112977647Y-77323693D01*
X112971820Y-77332236D01*
X112847054Y-77551864D01*
X112842699Y-77561244D01*
X112755479Y-77798300D01*
X112752716Y-77808266D01*
X112724256Y-77957460D01*
X112703406Y-77947671D01*
X112681645Y-77931362D01*
X112665898Y-77922740D01*
X112588519Y-77893731D01*
X112513517Y-77858518D01*
X112495961Y-77853209D01*
X112470129Y-77849349D01*
X112444170Y-77839617D01*
X112426635Y-77835762D01*
X112332313Y-77828752D01*
X112309167Y-77825293D01*
X112299842Y-77824600D01*
X112276441Y-77824600D01*
X112190489Y-77818213D01*
X112172577Y-77819434D01*
X112148377Y-77824600D01*
X111665954Y-77824600D01*
X111562213Y-77700966D01*
X111554434Y-77693187D01*
X111370681Y-77538999D01*
X111361668Y-77532688D01*
X111153932Y-77412752D01*
X111143960Y-77408102D01*
X110918553Y-77326060D01*
X110907926Y-77323213D01*
X110671697Y-77281559D01*
X110660736Y-77280600D01*
X110420864Y-77280600D01*
X110409903Y-77281559D01*
X110173674Y-77323213D01*
X110163047Y-77326060D01*
X109937640Y-77408102D01*
X109927668Y-77412752D01*
X109719932Y-77532688D01*
X109710919Y-77538999D01*
X109527166Y-77693187D01*
X109519387Y-77700966D01*
X109365199Y-77884719D01*
X109358888Y-77893732D01*
X109238952Y-78101468D01*
X109234302Y-78111440D01*
X109152260Y-78336847D01*
X109149413Y-78347474D01*
X109107759Y-78583703D01*
X109106800Y-78594664D01*
X109106800Y-78834536D01*
X109107759Y-78845497D01*
X109149413Y-79081726D01*
X109152260Y-79092353D01*
X109234302Y-79317760D01*
X109238952Y-79327732D01*
X109358888Y-79535468D01*
X109365199Y-79544481D01*
X109519387Y-79728234D01*
X109527166Y-79736013D01*
X109710919Y-79890201D01*
X109719932Y-79896512D01*
X109927668Y-80016448D01*
X109937640Y-80021098D01*
X110163047Y-80103140D01*
X110173674Y-80105987D01*
X110409903Y-80147641D01*
X110420864Y-80148600D01*
X110660736Y-80148600D01*
X110671697Y-80147641D01*
X110907926Y-80105987D01*
X110918553Y-80103140D01*
X111143960Y-80021098D01*
X111153932Y-80016448D01*
X111361668Y-79896512D01*
X111370681Y-79890201D01*
X111554434Y-79736013D01*
X111562213Y-79728234D01*
X111665954Y-79604600D01*
X111873952Y-79604600D01*
X112731073Y-80461721D01*
X112705385Y-80596384D01*
X112704286Y-80606667D01*
X112698114Y-80859185D01*
X112698710Y-80869509D01*
X112733864Y-81119643D01*
X112736137Y-81129732D01*
X112811673Y-81370766D01*
X112815564Y-81380348D01*
X112929452Y-81605808D01*
X112934855Y-81614626D01*
X113084038Y-81818458D01*
X113090809Y-81826275D01*
X113271280Y-82003004D01*
X113279237Y-82009610D01*
X113486148Y-82154492D01*
X113495077Y-82159710D01*
X113722873Y-82268851D01*
X113732535Y-82272540D01*
X113975098Y-82343012D01*
X113985232Y-82345073D01*
X114236048Y-82374981D01*
X114246382Y-82375360D01*
X114360428Y-82370181D01*
X114241999Y-82511319D01*
X114235688Y-82520332D01*
X114115752Y-82728068D01*
X114111102Y-82738040D01*
X114029060Y-82963447D01*
X114026213Y-82974074D01*
X113984559Y-83210303D01*
X113983600Y-83221264D01*
X113983600Y-83461136D01*
X113984559Y-83472097D01*
X114026213Y-83708326D01*
X114029060Y-83718953D01*
X114111102Y-83944360D01*
X114115752Y-83954332D01*
X114235688Y-84162068D01*
X114241999Y-84171081D01*
X114396187Y-84354834D01*
X114403966Y-84362613D01*
X114452335Y-84403200D01*
X113304936Y-84403200D01*
X113357834Y-84358813D01*
X113365613Y-84351034D01*
X113519801Y-84167281D01*
X113526112Y-84158268D01*
X113646048Y-83950532D01*
X113650698Y-83940560D01*
X113732740Y-83715153D01*
X113735587Y-83704526D01*
X113777241Y-83468297D01*
X113778200Y-83457336D01*
X113778200Y-83217464D01*
X113777241Y-83206503D01*
X113735587Y-82970274D01*
X113732740Y-82959647D01*
X113650698Y-82734240D01*
X113646048Y-82724268D01*
X113526112Y-82516532D01*
X113519801Y-82507519D01*
X113365613Y-82323766D01*
X113357834Y-82315987D01*
X113174081Y-82161799D01*
X113165068Y-82155488D01*
X112957332Y-82035552D01*
X112947360Y-82030902D01*
X112721953Y-81948860D01*
X112711326Y-81946013D01*
X112475097Y-81904359D01*
X112464136Y-81903400D01*
X112224264Y-81903400D01*
X112213303Y-81904359D01*
X111977074Y-81946013D01*
X111966447Y-81948860D01*
X111741040Y-82030902D01*
X111731068Y-82035552D01*
X111523332Y-82155488D01*
X111514319Y-82161799D01*
X111330566Y-82315987D01*
X111322787Y-82323766D01*
X111168599Y-82507519D01*
X111162288Y-82516532D01*
X111042352Y-82724268D01*
X111037702Y-82734240D01*
X110955660Y-82959647D01*
X110952813Y-82970274D01*
X110911159Y-83206503D01*
X110910200Y-83217464D01*
X110910200Y-83457336D01*
X110911159Y-83468297D01*
X110952813Y-83704526D01*
X110955660Y-83715153D01*
X111037702Y-83940560D01*
X111042352Y-83950532D01*
X111162288Y-84158268D01*
X111168599Y-84167281D01*
X111322787Y-84351034D01*
X111330566Y-84358813D01*
X111383464Y-84403200D01*
X108457766Y-84403200D01*
X108400463Y-84189342D01*
X108387720Y-84164862D01*
X108256610Y-84008610D01*
X108239721Y-83994439D01*
X108065480Y-83893841D01*
X108044763Y-83886300D01*
X107895406Y-83859965D01*
X107898423Y-83837044D01*
X106802389Y-82741009D01*
X107268810Y-82741009D01*
X107268810Y-82845391D01*
X108079444Y-83656023D01*
X108202653Y-83639803D01*
X108337448Y-83406332D01*
X108342098Y-83396360D01*
X108424140Y-83170953D01*
X108426987Y-83160326D01*
X108468641Y-82924097D01*
X108469600Y-82913136D01*
X108469600Y-82673264D01*
X108468641Y-82662303D01*
X108426987Y-82426074D01*
X108424140Y-82415447D01*
X108342098Y-82190040D01*
X108337448Y-82180068D01*
X108202653Y-81946597D01*
X108079444Y-81930377D01*
X107268810Y-82741009D01*
X106802389Y-82741009D01*
X106765485Y-82704105D01*
X105991757Y-81930377D01*
X105868547Y-81946597D01*
X105733752Y-82180068D01*
X105729102Y-82190040D01*
X105647060Y-82415447D01*
X105644213Y-82426074D01*
X105611672Y-82610623D01*
X104750405Y-81749356D01*
X106172777Y-81749356D01*
X106983409Y-82559990D01*
X107087791Y-82559990D01*
X107898423Y-81749356D01*
X107882203Y-81626147D01*
X107648732Y-81491352D01*
X107638760Y-81486702D01*
X107413353Y-81404660D01*
X107402726Y-81401813D01*
X107166497Y-81360159D01*
X107155536Y-81359200D01*
X106915664Y-81359200D01*
X106904703Y-81360159D01*
X106668474Y-81401813D01*
X106657847Y-81404660D01*
X106432440Y-81486702D01*
X106422468Y-81491352D01*
X106188997Y-81626147D01*
X106172777Y-81749356D01*
X104750405Y-81749356D01*
X103810800Y-80809752D01*
X103810800Y-79839754D01*
X103934434Y-79736013D01*
X103942213Y-79728234D01*
X104096401Y-79544481D01*
X104102712Y-79535468D01*
X104222648Y-79327732D01*
X104227298Y-79317760D01*
X104309340Y-79092353D01*
X104312187Y-79081726D01*
X104353841Y-78845497D01*
X104354800Y-78834536D01*
X104354800Y-78594664D01*
X104353841Y-78583703D01*
X104347321Y-78546728D01*
X104733619Y-78160430D01*
X104749882Y-78150169D01*
X104763554Y-78138533D01*
X104824323Y-78069726D01*
X104846083Y-78047966D01*
X104851957Y-78041192D01*
X104865588Y-78023003D01*
X104920307Y-77961046D01*
X104930163Y-77946041D01*
X104941727Y-77921411D01*
X104958040Y-77899644D01*
X104966661Y-77883897D01*
X104995670Y-77806518D01*
X105030883Y-77731516D01*
X105036191Y-77713962D01*
X105040053Y-77688123D01*
X105049783Y-77662167D01*
X105053638Y-77644634D01*
X105060648Y-77550317D01*
X105064108Y-77527165D01*
X105064801Y-77517840D01*
X105064801Y-77494422D01*
X105071188Y-77408488D01*
X105069967Y-77390577D01*
X105064801Y-77366376D01*
X105064801Y-73718307D01*
X105069044Y-73699555D01*
X105070484Y-73681661D01*
X105064801Y-73590055D01*
X105064801Y-73559263D01*
X105064164Y-73550321D01*
X105060940Y-73527810D01*
X105055822Y-73445317D01*
X105052182Y-73427737D01*
X105042943Y-73402143D01*
X105039087Y-73375219D01*
X105034048Y-73357988D01*
X104999839Y-73282746D01*
X104971709Y-73204826D01*
X104963050Y-73188660D01*
X104947514Y-73167664D01*
X104936038Y-73142424D01*
X104926366Y-73127300D01*
X104864627Y-73055649D01*
X104850705Y-73036835D01*
X104844601Y-73029751D01*
X104828058Y-73013209D01*
X104771794Y-72947911D01*
X104758265Y-72936109D01*
X104737496Y-72922647D01*
X104347321Y-72532472D01*
X104353841Y-72495497D01*
X104354800Y-72484536D01*
X104354800Y-72244664D01*
X104353841Y-72233703D01*
X104312187Y-71997474D01*
X104309340Y-71986847D01*
X104227298Y-71761440D01*
X104222648Y-71751468D01*
X104102712Y-71543732D01*
X104096401Y-71534719D01*
X103942213Y-71350966D01*
X103934434Y-71343187D01*
X103750681Y-71188999D01*
X103741668Y-71182688D01*
X103631357Y-71119000D01*
X109830243Y-71119000D01*
X109719932Y-71182688D01*
G37*
X109719932Y-71182688D02*
X109710919Y-71188999D01*
X109527166Y-71343187D01*
X109519387Y-71350966D01*
X109365199Y-71534719D01*
X109358888Y-71543732D01*
X109238952Y-71751468D01*
X109234302Y-71761440D01*
X109152260Y-71986847D01*
X109149413Y-71997474D01*
X109107759Y-72233703D01*
X109106800Y-72244664D01*
X109106800Y-72484536D01*
X109107759Y-72495497D01*
X109149413Y-72731726D01*
X109152260Y-72742353D01*
X109234302Y-72967760D01*
X109238952Y-72977732D01*
X109358888Y-73185468D01*
X109365199Y-73194481D01*
X109519387Y-73378234D01*
X109527166Y-73386013D01*
X109650800Y-73489754D01*
X109650801Y-74414445D01*
X109527166Y-74518187D01*
X109519387Y-74525966D01*
X109365199Y-74709719D01*
X109358888Y-74718732D01*
X109238952Y-74926468D01*
X109234302Y-74936440D01*
X109152260Y-75161847D01*
X109149413Y-75172474D01*
X109107759Y-75408703D01*
X109106800Y-75419664D01*
X109106800Y-75659536D01*
X109107759Y-75670497D01*
X109149413Y-75906726D01*
X109152260Y-75917353D01*
X109234302Y-76142760D01*
X109238952Y-76152732D01*
X109358888Y-76360468D01*
X109365199Y-76369481D01*
X109519387Y-76553234D01*
X109527166Y-76561013D01*
X109710919Y-76715201D01*
X109719932Y-76721512D01*
X109927668Y-76841448D01*
X109937640Y-76846098D01*
X110163047Y-76928140D01*
X110173674Y-76930987D01*
X110409903Y-76972641D01*
X110420864Y-76973600D01*
X110660736Y-76973600D01*
X110671697Y-76972641D01*
X110907926Y-76930987D01*
X110918553Y-76928140D01*
X111143960Y-76846098D01*
X111153932Y-76841448D01*
X111361668Y-76721512D01*
X111370681Y-76715201D01*
X111554434Y-76561013D01*
X111562213Y-76553234D01*
X111716401Y-76369481D01*
X111722712Y-76360468D01*
X111842648Y-76152732D01*
X111847298Y-76142760D01*
X111929340Y-75917353D01*
X111932187Y-75906726D01*
X111973841Y-75670497D01*
X111974800Y-75659536D01*
X111974800Y-75419664D01*
X111973841Y-75408703D01*
X111932187Y-75172474D01*
X111929340Y-75161847D01*
X111847298Y-74936440D01*
X111842648Y-74926468D01*
X111722712Y-74718732D01*
X111716401Y-74709719D01*
X111562213Y-74525966D01*
X111554434Y-74518187D01*
X111430800Y-74414446D01*
X111430800Y-73489754D01*
X111554433Y-73386013D01*
X111558227Y-73382220D01*
X111643790Y-73484190D01*
X111660679Y-73498361D01*
X111834920Y-73598959D01*
X111855637Y-73606500D01*
X112048338Y-73640478D01*
X112059299Y-73641437D01*
X114003458Y-73641437D01*
X114019834Y-73639281D01*
X114299059Y-73564463D01*
X114323539Y-73551720D01*
X114479790Y-73420610D01*
X114493961Y-73403721D01*
X114564025Y-73282366D01*
X114756148Y-73416892D01*
X114765077Y-73422110D01*
X114992873Y-73531251D01*
X115002535Y-73534940D01*
X115245098Y-73605412D01*
X115255232Y-73607473D01*
X115357309Y-73619646D01*
X115442000Y-73544454D01*
X115442000Y-71906400D01*
X115698000Y-71906400D01*
X115698000Y-73546701D01*
X115791412Y-73622344D01*
X116026045Y-73572470D01*
X116035950Y-73569499D01*
X116271128Y-73477333D01*
X116280415Y-73472784D01*
X116497382Y-73343446D01*
X116505801Y-73337441D01*
X116698730Y-73174403D01*
X116706055Y-73167103D01*
X116869766Y-72974744D01*
X116875801Y-72966346D01*
X116928262Y-72879035D01*
X116984105Y-73050902D01*
X116987894Y-73060050D01*
X117107296Y-73294390D01*
X117112469Y-73302832D01*
X117267060Y-73515608D01*
X117273490Y-73523137D01*
X117459463Y-73709110D01*
X117466992Y-73715540D01*
X117679768Y-73870131D01*
X117688210Y-73875304D01*
X117922550Y-73994706D01*
X117931698Y-73998495D01*
X118181831Y-74079768D01*
X118191459Y-74082079D01*
X118451227Y-74123223D01*
X118461097Y-74124000D01*
X118724103Y-74124000D01*
X118733973Y-74123223D01*
X118993741Y-74082079D01*
X119003369Y-74079768D01*
X119253502Y-73998495D01*
X119262650Y-73994706D01*
X119496990Y-73875304D01*
X119505432Y-73870131D01*
X119718208Y-73715540D01*
X119725737Y-73709110D01*
X119911710Y-73523137D01*
X119918140Y-73515608D01*
X120072731Y-73302832D01*
X120077904Y-73294390D01*
X120197306Y-73060050D01*
X120201095Y-73050902D01*
X120282368Y-72800769D01*
X120284679Y-72791141D01*
X120325823Y-72531373D01*
X120326600Y-72521503D01*
X120326600Y-72354017D01*
X120451521Y-72354017D01*
X120477813Y-72503125D01*
X120480660Y-72513753D01*
X120562702Y-72739160D01*
X120567352Y-72749132D01*
X120687288Y-72956868D01*
X120693599Y-72965881D01*
X120847787Y-73149634D01*
X120855566Y-73157413D01*
X121039319Y-73311601D01*
X121048332Y-73317912D01*
X121256068Y-73437848D01*
X121266040Y-73442498D01*
X121491447Y-73524540D01*
X121502074Y-73527387D01*
X121651182Y-73553680D01*
X121741200Y-73478146D01*
X121997199Y-73478146D01*
X122087217Y-73553679D01*
X122236325Y-73527387D01*
X122246953Y-73524540D01*
X122472360Y-73442498D01*
X122482332Y-73437848D01*
X122690068Y-73317912D01*
X122699081Y-73311601D01*
X122882834Y-73157413D01*
X122890613Y-73149634D01*
X123044801Y-72965881D01*
X123051112Y-72956868D01*
X123171048Y-72749132D01*
X123175698Y-72739160D01*
X123257740Y-72513753D01*
X123260587Y-72503126D01*
X123286880Y-72354018D01*
X123211346Y-72264000D01*
X122071009Y-72263999D01*
X121997200Y-72337808D01*
X121997199Y-73478146D01*
X121741200Y-73478146D01*
X121741201Y-72337809D01*
X121667392Y-72264000D01*
X120527054Y-72263999D01*
X120451521Y-72354017D01*
X120326600Y-72354017D01*
X120326600Y-72258497D01*
X120325823Y-72248627D01*
X120284679Y-71988859D01*
X120282368Y-71979231D01*
X120201095Y-71729098D01*
X120197306Y-71719950D01*
X120077904Y-71485610D01*
X120072731Y-71477168D01*
X119918140Y-71264392D01*
X119911710Y-71256863D01*
X119773847Y-71119000D01*
X120851153Y-71119000D01*
X120847787Y-71122366D01*
X120693599Y-71306119D01*
X120687288Y-71315132D01*
X120567352Y-71522868D01*
X120562702Y-71532840D01*
X120480660Y-71758247D01*
X120477813Y-71768874D01*
X120451520Y-71917982D01*
X120527054Y-72008000D01*
X121667392Y-72008001D01*
X121667393Y-72008000D01*
X123211346Y-72008001D01*
X123286879Y-71917983D01*
X123260587Y-71768875D01*
X123257740Y-71758247D01*
X123175698Y-71532840D01*
X123171048Y-71522868D01*
X123051112Y-71315132D01*
X123044801Y-71306119D01*
X122890613Y-71122366D01*
X122887247Y-71119000D01*
X124461000Y-71119000D01*
X124461000Y-82446083D01*
X124445698Y-82404040D01*
X124441048Y-82394068D01*
X124321112Y-82186332D01*
X124314801Y-82177319D01*
X124160613Y-81993566D01*
X124152834Y-81985787D01*
X123969081Y-81831599D01*
X123960068Y-81825288D01*
X123752332Y-81705352D01*
X123742360Y-81700702D01*
X123516953Y-81618660D01*
X123506326Y-81615813D01*
X123270097Y-81574159D01*
X123259136Y-81573200D01*
X123019264Y-81573200D01*
X123008303Y-81574159D01*
X122772074Y-81615813D01*
X122761447Y-81618660D01*
X122536040Y-81700702D01*
X122526068Y-81705352D01*
X122318332Y-81825288D01*
X122309319Y-81831599D01*
X122125566Y-81985787D01*
X122117787Y-81993566D01*
X121963599Y-82177319D01*
X121957288Y-82186332D01*
X121837352Y-82394068D01*
X121832702Y-82404040D01*
X121750660Y-82629447D01*
X121747813Y-82640074D01*
X121706159Y-82876303D01*
X121705200Y-82887264D01*
X121705200Y-83127136D01*
X121706159Y-83138097D01*
X121747813Y-83374326D01*
X121750660Y-83384953D01*
X121832702Y-83610360D01*
X121837352Y-83620332D01*
X121957288Y-83828068D01*
X121963599Y-83837081D01*
X122117787Y-84020834D01*
X122125566Y-84028613D01*
X122309319Y-84182801D01*
X122318332Y-84189112D01*
X122526068Y-84309048D01*
X122536040Y-84313698D01*
X122761447Y-84395740D01*
X122772074Y-84398587D01*
X123008303Y-84440241D01*
X123019264Y-84441200D01*
X123259136Y-84441200D01*
X123270097Y-84440241D01*
X123506326Y-84398587D01*
X123516953Y-84395740D01*
X123742360Y-84313698D01*
X123752332Y-84309048D01*
X123960068Y-84189112D01*
X123969081Y-84182801D01*
X124152834Y-84028613D01*
X124160613Y-84020834D01*
X124314801Y-83837081D01*
X124321112Y-83828068D01*
X124441048Y-83620332D01*
X124445698Y-83610360D01*
X124461001Y-83568317D01*
X124461001Y-90066084D01*
X124445698Y-90024040D01*
X124441048Y-90014068D01*
X124321112Y-89806332D01*
X124314801Y-89797319D01*
X124160613Y-89613566D01*
X124152834Y-89605787D01*
X123969081Y-89451599D01*
X123960068Y-89445288D01*
X123752332Y-89325352D01*
X123742360Y-89320702D01*
X123516953Y-89238660D01*
X123506326Y-89235813D01*
X123270097Y-89194159D01*
X123259136Y-89193200D01*
X123019264Y-89193200D01*
X123008303Y-89194159D01*
X122772074Y-89235813D01*
X122761447Y-89238660D01*
X122536040Y-89320702D01*
X122526068Y-89325352D01*
X122318332Y-89445288D01*
X122309319Y-89451599D01*
X122125566Y-89605787D01*
X122117787Y-89613566D01*
X121963599Y-89797319D01*
X121957288Y-89806332D01*
X121837352Y-90014068D01*
X121832702Y-90024040D01*
X121750660Y-90249447D01*
X121747813Y-90260074D01*
X121706159Y-90496303D01*
X121705200Y-90507264D01*
X121705200Y-90747136D01*
X121706159Y-90758097D01*
X121747813Y-90994326D01*
X121750660Y-91004953D01*
X121832702Y-91230360D01*
X121837352Y-91240332D01*
X121957288Y-91448068D01*
X121963599Y-91457081D01*
X122117787Y-91640834D01*
X122125566Y-91648613D01*
X122309319Y-91802801D01*
X122318332Y-91809112D01*
X122526068Y-91929048D01*
X122536040Y-91933698D01*
X122681001Y-91986460D01*
X122681000Y-94127423D01*
X122566311Y-94211056D01*
X122558250Y-94218051D01*
X122518774Y-94258645D01*
X122495863Y-94173142D01*
X122483120Y-94148662D01*
X122352010Y-93992410D01*
X122335121Y-93978239D01*
X122160880Y-93877641D01*
X122140163Y-93870100D01*
X121947462Y-93836122D01*
X121936501Y-93835163D01*
X120122742Y-93835163D01*
X120106366Y-93837319D01*
X119827142Y-93912137D01*
X119802662Y-93924880D01*
X119646410Y-94055990D01*
X119632239Y-94072879D01*
X119531641Y-94247120D01*
X119524100Y-94267837D01*
X119490122Y-94460538D01*
X119489163Y-94471499D01*
X119489163Y-94945778D01*
X119459767Y-94890955D01*
X119454149Y-94882271D01*
X119300031Y-94682146D01*
X119293072Y-94674497D01*
X119108337Y-94502229D01*
X119100221Y-94495819D01*
X118889832Y-94356036D01*
X118880778Y-94351038D01*
X118650383Y-94247495D01*
X118640634Y-94244043D01*
X118396423Y-94179519D01*
X118386241Y-94177706D01*
X118286971Y-94168322D01*
X116121441Y-92002793D01*
X116136043Y-91962675D01*
X116138581Y-91953676D01*
X116193297Y-91684741D01*
X116194543Y-91673809D01*
X116195380Y-91641808D01*
X117468163Y-91641808D01*
X117468163Y-92718258D01*
X117470319Y-92734634D01*
X117545137Y-93013859D01*
X117557880Y-93038339D01*
X117688990Y-93194590D01*
X117705879Y-93208761D01*
X117880120Y-93309359D01*
X117900837Y-93316900D01*
X118093538Y-93350878D01*
X118104499Y-93351837D01*
X119178191Y-93351837D01*
X119252000Y-93278028D01*
X119507999Y-93278028D01*
X119581808Y-93351837D01*
X120658258Y-93351837D01*
X120674634Y-93349681D01*
X120953859Y-93274863D01*
X120978339Y-93262120D01*
X121134590Y-93131010D01*
X121148761Y-93114121D01*
X121249359Y-92939880D01*
X121256900Y-92919163D01*
X121290878Y-92726462D01*
X121291837Y-92715501D01*
X121291837Y-91641809D01*
X121218028Y-91568000D01*
X119581809Y-91567999D01*
X119508000Y-91641808D01*
X119507999Y-93278028D01*
X119252000Y-93278028D01*
X119252001Y-91641809D01*
X119178192Y-91568000D01*
X117541972Y-91567999D01*
X117468163Y-91641808D01*
X116195380Y-91641808D01*
X116204183Y-91305665D01*
X116203511Y-91294683D01*
X116162946Y-91023252D01*
X116160882Y-91014132D01*
X116080883Y-90752468D01*
X116077494Y-90743753D01*
X115959698Y-90496789D01*
X115955058Y-90488671D01*
X115802052Y-90261831D01*
X115796264Y-90254488D01*
X115713805Y-90164499D01*
X117468163Y-90164499D01*
X117468163Y-91238191D01*
X117541972Y-91312000D01*
X119178191Y-91312001D01*
X119252000Y-91238192D01*
X119252000Y-91238191D01*
X119507999Y-91238191D01*
X119581808Y-91312000D01*
X121218028Y-91312001D01*
X121291837Y-91238192D01*
X121291837Y-90161742D01*
X121289681Y-90145366D01*
X121214863Y-89866142D01*
X121202120Y-89841662D01*
X121071010Y-89685410D01*
X121054121Y-89671239D01*
X120879880Y-89570641D01*
X120859163Y-89563100D01*
X120666462Y-89529122D01*
X120655501Y-89528163D01*
X119581809Y-89528163D01*
X119508000Y-89601972D01*
X119507999Y-91238191D01*
X119252000Y-91238191D01*
X119252001Y-89601972D01*
X119178192Y-89528163D01*
X118101742Y-89528163D01*
X118085366Y-89530319D01*
X117806142Y-89605137D01*
X117781662Y-89617880D01*
X117625410Y-89748990D01*
X117611239Y-89765879D01*
X117510641Y-89940120D01*
X117503100Y-89960837D01*
X117469122Y-90153538D01*
X117468163Y-90164499D01*
X115713805Y-90164499D01*
X115611410Y-90052754D01*
X115604599Y-90046347D01*
X115391957Y-89874153D01*
X115384274Y-89868824D01*
X115196789Y-89758387D01*
X115286703Y-89774241D01*
X115297664Y-89775200D01*
X115537536Y-89775200D01*
X115548497Y-89774241D01*
X115784726Y-89732587D01*
X115795353Y-89729740D01*
X116020760Y-89647698D01*
X116030732Y-89643048D01*
X116238468Y-89523112D01*
X116247481Y-89516801D01*
X116431234Y-89362613D01*
X116439013Y-89354834D01*
X116593201Y-89171081D01*
X116599512Y-89162068D01*
X116719448Y-88954332D01*
X116724098Y-88944360D01*
X116806140Y-88718953D01*
X116808987Y-88708326D01*
X116850641Y-88472097D01*
X116851600Y-88461136D01*
X116851600Y-88221264D01*
X116850641Y-88210303D01*
X116808987Y-87974074D01*
X116806140Y-87963447D01*
X116724098Y-87738040D01*
X116719448Y-87728068D01*
X116599512Y-87520332D01*
X116593201Y-87511319D01*
X116439013Y-87327566D01*
X116431234Y-87319787D01*
X116247481Y-87165599D01*
X116238468Y-87159288D01*
X116030732Y-87039352D01*
X116020760Y-87034702D01*
X115795353Y-86952660D01*
X115784726Y-86949813D01*
X115548497Y-86908159D01*
X115537536Y-86907200D01*
X115297664Y-86907200D01*
X115286703Y-86908159D01*
X115050474Y-86949813D01*
X115039847Y-86952660D01*
X114814440Y-87034702D01*
X114804468Y-87039352D01*
X114596732Y-87159288D01*
X114587719Y-87165599D01*
X114403966Y-87319787D01*
X114396187Y-87327567D01*
X114294355Y-87448925D01*
X114257684Y-87451200D01*
X114226892Y-87451200D01*
X114217950Y-87451837D01*
X114195439Y-87455061D01*
X114112946Y-87460179D01*
X114095367Y-87463819D01*
X114069774Y-87473058D01*
X114042847Y-87476914D01*
X114025616Y-87481953D01*
X113950389Y-87516157D01*
X113872455Y-87544291D01*
X113856288Y-87552951D01*
X113835290Y-87568489D01*
X113810055Y-87579962D01*
X113794930Y-87589635D01*
X113723277Y-87651375D01*
X113704463Y-87665297D01*
X113697380Y-87671400D01*
X113680838Y-87687943D01*
X113643600Y-87720029D01*
X113526112Y-87516532D01*
X113519801Y-87507519D01*
X113365613Y-87323766D01*
X113357834Y-87315987D01*
X113174081Y-87161799D01*
X113165068Y-87155488D01*
X112957332Y-87035552D01*
X112947360Y-87030902D01*
X112721953Y-86948860D01*
X112711326Y-86946013D01*
X112475097Y-86904359D01*
X112464136Y-86903400D01*
X112224264Y-86903400D01*
X112213303Y-86904359D01*
X111977074Y-86946013D01*
X111966447Y-86948860D01*
X111741040Y-87030902D01*
X111731068Y-87035552D01*
X111523332Y-87155488D01*
X111514319Y-87161799D01*
X111330566Y-87315987D01*
X111322787Y-87323766D01*
X111168599Y-87507519D01*
X111162288Y-87516532D01*
X111042352Y-87724268D01*
X111037702Y-87734240D01*
X110955660Y-87959647D01*
X110952813Y-87970274D01*
X110911159Y-88206503D01*
X110910200Y-88217464D01*
X110910200Y-88457336D01*
X110911159Y-88468297D01*
X110917679Y-88505272D01*
X109801284Y-89621668D01*
X109797528Y-89620466D01*
X109531470Y-89556590D01*
X109522241Y-89555087D01*
X109249663Y-89531240D01*
X109240313Y-89531118D01*
X108967204Y-89547821D01*
X108957939Y-89549082D01*
X108690299Y-89605971D01*
X108681322Y-89608588D01*
X108425031Y-89704411D01*
X108416539Y-89708325D01*
X108177226Y-89840979D01*
X108169406Y-89846105D01*
X107952330Y-90012675D01*
X107945354Y-90018901D01*
X107755282Y-90215726D01*
X107749303Y-90222915D01*
X107590412Y-90445673D01*
X107585561Y-90453667D01*
X107461341Y-90697463D01*
X107457725Y-90706086D01*
X107370904Y-90965565D01*
X107368602Y-90974628D01*
X107321088Y-91244090D01*
X107320152Y-91253394D01*
X107312989Y-91526919D01*
X107313437Y-91536259D01*
X107346784Y-91807839D01*
X107348608Y-91817010D01*
X107421729Y-92080677D01*
X107424889Y-92089478D01*
X107536180Y-92339442D01*
X107540606Y-92347679D01*
X107687621Y-92578447D01*
X107693215Y-92585939D01*
X107872726Y-92792442D01*
X107879367Y-92799025D01*
X108087429Y-92976727D01*
X108094969Y-92982256D01*
X108327011Y-93127252D01*
X108335286Y-93131605D01*
X108586212Y-93240711D01*
X108595040Y-93243794D01*
X108859335Y-93314611D01*
X108868521Y-93316355D01*
X109140382Y-93347329D01*
X109149725Y-93347696D01*
X109423178Y-93338148D01*
X109432473Y-93337130D01*
X109701510Y-93287266D01*
X109710552Y-93284885D01*
X109969264Y-93195804D01*
X109977855Y-93192113D01*
X110054002Y-93152474D01*
X110054001Y-94150963D01*
X109516542Y-94150963D01*
X109500166Y-94153119D01*
X109220942Y-94227937D01*
X109196462Y-94240680D01*
X109040210Y-94371790D01*
X109026039Y-94388679D01*
X108925441Y-94562920D01*
X108917900Y-94583637D01*
X108883922Y-94776338D01*
X108882963Y-94787299D01*
X108882963Y-94868000D01*
X104291756Y-94868000D01*
X104194332Y-94811752D01*
X104184360Y-94807102D01*
X103958953Y-94725060D01*
X103948326Y-94722213D01*
X103712097Y-94680559D01*
X103701136Y-94679600D01*
X103461264Y-94679600D01*
X103450303Y-94680559D01*
X103214074Y-94722213D01*
X103203447Y-94725060D01*
X102978040Y-94807102D01*
X102968068Y-94811752D01*
X102760332Y-94931688D01*
X102751319Y-94937999D01*
X102567566Y-95092187D01*
X102559787Y-95099966D01*
X102405599Y-95283719D01*
X102399288Y-95292732D01*
X102279352Y-95500468D01*
X102274702Y-95510440D01*
X102234000Y-95622267D01*
X102234000Y-88984933D01*
X102274702Y-89096760D01*
X102279352Y-89106732D01*
X102399288Y-89314468D01*
X102405599Y-89323481D01*
X102559787Y-89507234D01*
X102567566Y-89515013D01*
X102751319Y-89669201D01*
X102760332Y-89675512D01*
X102968068Y-89795448D01*
X102978040Y-89800098D01*
X103203447Y-89882140D01*
X103214074Y-89884987D01*
X103363182Y-89911280D01*
X103453200Y-89835746D01*
X103709199Y-89835746D01*
X103799217Y-89911279D01*
X103948325Y-89884987D01*
X103958953Y-89882140D01*
X104184360Y-89800098D01*
X104194332Y-89795448D01*
X104402068Y-89675512D01*
X104411081Y-89669201D01*
X104594834Y-89515013D01*
X104602613Y-89507234D01*
X104756801Y-89323481D01*
X104763112Y-89314468D01*
X104883048Y-89106732D01*
X104887698Y-89096760D01*
X104969740Y-88871353D01*
X104972587Y-88860726D01*
X104998880Y-88711618D01*
X104923346Y-88621600D01*
X103783009Y-88621599D01*
X103709200Y-88695408D01*
X103709199Y-89835746D01*
X103453200Y-89835746D01*
X103453201Y-88695408D01*
X103453200Y-88695407D01*
X103453200Y-88291791D01*
X103709199Y-88291791D01*
X103783008Y-88365600D01*
X104923346Y-88365601D01*
X104998879Y-88275583D01*
X104972587Y-88126475D01*
X104969740Y-88115847D01*
X104887698Y-87890440D01*
X104883048Y-87880468D01*
X104763112Y-87672732D01*
X104756801Y-87663719D01*
X104602613Y-87479966D01*
X104594834Y-87472187D01*
X104411081Y-87317999D01*
X104402068Y-87311688D01*
X104194332Y-87191752D01*
X104184360Y-87187102D01*
X103958953Y-87105060D01*
X103948326Y-87102213D01*
X103799218Y-87075920D01*
X103709200Y-87151454D01*
X103709199Y-88291791D01*
X103453200Y-88291791D01*
X103453201Y-87151454D01*
X103363183Y-87075921D01*
X103214075Y-87102213D01*
X103203447Y-87105060D01*
X102978040Y-87187102D01*
X102968068Y-87191752D01*
X102760332Y-87311688D01*
X102751319Y-87317999D01*
X102567566Y-87472187D01*
X102559787Y-87479966D01*
X102405599Y-87663719D01*
X102399288Y-87672732D01*
X102279352Y-87880468D01*
X102274702Y-87890440D01*
X102234000Y-88002267D01*
X102234000Y-81745440D01*
X102244897Y-81760166D01*
X102251000Y-81767249D01*
X102267544Y-81783792D01*
X102323808Y-81849090D01*
X102337337Y-81860892D01*
X102358106Y-81874354D01*
X105593763Y-85110012D01*
X105593763Y-86101458D01*
X105595919Y-86117834D01*
X105670737Y-86397059D01*
X105683480Y-86421539D01*
X105814590Y-86577790D01*
X105831479Y-86591961D01*
X106005720Y-86692559D01*
X106026437Y-86700100D01*
X106219138Y-86734078D01*
X106230099Y-86735037D01*
X107843858Y-86735037D01*
X107860234Y-86732881D01*
X108139459Y-86658063D01*
X108163939Y-86645320D01*
X108320190Y-86514210D01*
X108334361Y-86497321D01*
X108434959Y-86323080D01*
X108442500Y-86302363D01*
X108463511Y-86183200D01*
X115749694Y-86183200D01*
X115768446Y-86187443D01*
X115786340Y-86188883D01*
X115877945Y-86183200D01*
X115908737Y-86183200D01*
X115917679Y-86182563D01*
X115940200Y-86179338D01*
X116022684Y-86174221D01*
X116040264Y-86170580D01*
X116065850Y-86161343D01*
X116092782Y-86157486D01*
X116110013Y-86152447D01*
X116185249Y-86118240D01*
X116263174Y-86090108D01*
X116279341Y-86081448D01*
X116300334Y-86065914D01*
X116325576Y-86054437D01*
X116340700Y-86044765D01*
X116412360Y-85983019D01*
X116431166Y-85969103D01*
X116438249Y-85963000D01*
X116454785Y-85946463D01*
X116520090Y-85890193D01*
X116531892Y-85876664D01*
X116545354Y-85855894D01*
X118109412Y-84291837D01*
X119700858Y-84291837D01*
X119717234Y-84289681D01*
X119996459Y-84214863D01*
X120020939Y-84202120D01*
X120177190Y-84071010D01*
X120191361Y-84054121D01*
X120291959Y-83879880D01*
X120299500Y-83859163D01*
X120333478Y-83666462D01*
X120334437Y-83655501D01*
X120334437Y-81441742D01*
X120332281Y-81425366D01*
X120257463Y-81146142D01*
X120244720Y-81121662D01*
X120113610Y-80965410D01*
X120096721Y-80951239D01*
X119922480Y-80850641D01*
X119901763Y-80843100D01*
X119709062Y-80809122D01*
X119698101Y-80808163D01*
X117484342Y-80808163D01*
X117467966Y-80810319D01*
X117188742Y-80885137D01*
X117164262Y-80897880D01*
X117008010Y-81028990D01*
X116993839Y-81045879D01*
X116893241Y-81220120D01*
X116885700Y-81240837D01*
X116851722Y-81433538D01*
X116850763Y-81444499D01*
X116850763Y-83033188D01*
X116824110Y-83059841D01*
X116808987Y-82974074D01*
X116806140Y-82963447D01*
X116724098Y-82738040D01*
X116719448Y-82728068D01*
X116609201Y-82537115D01*
X116609201Y-79750907D01*
X116613444Y-79732155D01*
X116614884Y-79714261D01*
X116609201Y-79622655D01*
X116609201Y-79591863D01*
X116608564Y-79582921D01*
X116605340Y-79560410D01*
X116600222Y-79477917D01*
X116596582Y-79460337D01*
X116587343Y-79434743D01*
X116583487Y-79407819D01*
X116578448Y-79390588D01*
X116544239Y-79315346D01*
X116516109Y-79237426D01*
X116507449Y-79221258D01*
X116491914Y-79200264D01*
X116480439Y-79175027D01*
X116470766Y-79159901D01*
X116409032Y-79088255D01*
X116395104Y-79069433D01*
X116389001Y-79062350D01*
X116372447Y-79045797D01*
X116316192Y-78980511D01*
X116302664Y-78968709D01*
X116281904Y-78955253D01*
X115869107Y-78542456D01*
X115890011Y-78445769D01*
X115891418Y-78433969D01*
X115899385Y-78108013D01*
X115898556Y-78096158D01*
X115857175Y-77846197D01*
X115854655Y-77836167D01*
X115773253Y-77597050D01*
X115769130Y-77587566D01*
X115649767Y-77364955D01*
X115644149Y-77356271D01*
X115545629Y-77228341D01*
X115569059Y-77222063D01*
X115593539Y-77209320D01*
X115749790Y-77078210D01*
X115763961Y-77061321D01*
X115864559Y-76887080D01*
X115872100Y-76866363D01*
X115906078Y-76673662D01*
X115907037Y-76662701D01*
X115907037Y-76582000D01*
X117436552Y-76582000D01*
X120442679Y-79588128D01*
X120436159Y-79625103D01*
X120435200Y-79636064D01*
X120435200Y-79875936D01*
X120436159Y-79886897D01*
X120477813Y-80123126D01*
X120480660Y-80133753D01*
X120562702Y-80359160D01*
X120567352Y-80369132D01*
X120687288Y-80576868D01*
X120693599Y-80585881D01*
X120847787Y-80769634D01*
X120855566Y-80777413D01*
X121039319Y-80931601D01*
X121048332Y-80937912D01*
X121256068Y-81057848D01*
X121266040Y-81062498D01*
X121491447Y-81144540D01*
X121502074Y-81147387D01*
X121738303Y-81189041D01*
X121749264Y-81190000D01*
X121989136Y-81190000D01*
X122000097Y-81189041D01*
X122236326Y-81147387D01*
X122246953Y-81144540D01*
X122472360Y-81062498D01*
X122482332Y-81057848D01*
X122690068Y-80937912D01*
X122699081Y-80931601D01*
X122882834Y-80777413D01*
X122890613Y-80769634D01*
X123044801Y-80585881D01*
X123051112Y-80576868D01*
X123171048Y-80369132D01*
X123175698Y-80359160D01*
X123257740Y-80133753D01*
X123260587Y-80123126D01*
X123302241Y-79886897D01*
X123303200Y-79875936D01*
X123303200Y-79636064D01*
X123302241Y-79625103D01*
X123260587Y-79388874D01*
X123257740Y-79378247D01*
X123175698Y-79152840D01*
X123171048Y-79142868D01*
X123051112Y-78935132D01*
X123044801Y-78926119D01*
X122890613Y-78742366D01*
X122882834Y-78734587D01*
X122699081Y-78580399D01*
X122690068Y-78574088D01*
X122482332Y-78454152D01*
X122472360Y-78449502D01*
X122246953Y-78367460D01*
X122236326Y-78364613D01*
X122000097Y-78322959D01*
X121989136Y-78322000D01*
X121749264Y-78322000D01*
X121738303Y-78322959D01*
X121701328Y-78329479D01*
X118505035Y-75133187D01*
X118494770Y-75116918D01*
X118483134Y-75103246D01*
X118414315Y-75042467D01*
X118392567Y-75020718D01*
X118385793Y-75014845D01*
X118367609Y-75001217D01*
X118305646Y-74946494D01*
X118290641Y-74936637D01*
X118266006Y-74925071D01*
X118244245Y-74908762D01*
X118228498Y-74900140D01*
X118151119Y-74871131D01*
X118076117Y-74835918D01*
X118058561Y-74830609D01*
X118032729Y-74826749D01*
X118006770Y-74817017D01*
X117989235Y-74813162D01*
X117894913Y-74806152D01*
X117871767Y-74802693D01*
X117862442Y-74802000D01*
X117839041Y-74802000D01*
X117753089Y-74795613D01*
X117735177Y-74796834D01*
X117710977Y-74802000D01*
X115907037Y-74802000D01*
X115907037Y-74718542D01*
X115904881Y-74702166D01*
X115830063Y-74422942D01*
X115817320Y-74398462D01*
X115686210Y-74242210D01*
X115669321Y-74228039D01*
X115495080Y-74127441D01*
X115474363Y-74119900D01*
X115281662Y-74085922D01*
X115270701Y-74084963D01*
X113326542Y-74084963D01*
X113310166Y-74087119D01*
X113030942Y-74161937D01*
X113006462Y-74174680D01*
X112850210Y-74305790D01*
X112836039Y-74322679D01*
X112735441Y-74496920D01*
X112727900Y-74517637D01*
X112693922Y-74710338D01*
X112692963Y-74721299D01*
X112692963Y-76665458D01*
X112695119Y-76681834D01*
X112769937Y-76961059D01*
X112782680Y-76985539D01*
X112913790Y-77141790D01*
X112930679Y-77155961D01*
X113055238Y-77227875D01*
X112977647Y-77323693D01*
X112971820Y-77332236D01*
X112847054Y-77551864D01*
X112842699Y-77561244D01*
X112755479Y-77798300D01*
X112752716Y-77808266D01*
X112724256Y-77957460D01*
X112703406Y-77947671D01*
X112681645Y-77931362D01*
X112665898Y-77922740D01*
X112588519Y-77893731D01*
X112513517Y-77858518D01*
X112495961Y-77853209D01*
X112470129Y-77849349D01*
X112444170Y-77839617D01*
X112426635Y-77835762D01*
X112332313Y-77828752D01*
X112309167Y-77825293D01*
X112299842Y-77824600D01*
X112276441Y-77824600D01*
X112190489Y-77818213D01*
X112172577Y-77819434D01*
X112148377Y-77824600D01*
X111665954Y-77824600D01*
X111562213Y-77700966D01*
X111554434Y-77693187D01*
X111370681Y-77538999D01*
X111361668Y-77532688D01*
X111153932Y-77412752D01*
X111143960Y-77408102D01*
X110918553Y-77326060D01*
X110907926Y-77323213D01*
X110671697Y-77281559D01*
X110660736Y-77280600D01*
X110420864Y-77280600D01*
X110409903Y-77281559D01*
X110173674Y-77323213D01*
X110163047Y-77326060D01*
X109937640Y-77408102D01*
X109927668Y-77412752D01*
X109719932Y-77532688D01*
X109710919Y-77538999D01*
X109527166Y-77693187D01*
X109519387Y-77700966D01*
X109365199Y-77884719D01*
X109358888Y-77893732D01*
X109238952Y-78101468D01*
X109234302Y-78111440D01*
X109152260Y-78336847D01*
X109149413Y-78347474D01*
X109107759Y-78583703D01*
X109106800Y-78594664D01*
X109106800Y-78834536D01*
X109107759Y-78845497D01*
X109149413Y-79081726D01*
X109152260Y-79092353D01*
X109234302Y-79317760D01*
X109238952Y-79327732D01*
X109358888Y-79535468D01*
X109365199Y-79544481D01*
X109519387Y-79728234D01*
X109527166Y-79736013D01*
X109710919Y-79890201D01*
X109719932Y-79896512D01*
X109927668Y-80016448D01*
X109937640Y-80021098D01*
X110163047Y-80103140D01*
X110173674Y-80105987D01*
X110409903Y-80147641D01*
X110420864Y-80148600D01*
X110660736Y-80148600D01*
X110671697Y-80147641D01*
X110907926Y-80105987D01*
X110918553Y-80103140D01*
X111143960Y-80021098D01*
X111153932Y-80016448D01*
X111361668Y-79896512D01*
X111370681Y-79890201D01*
X111554434Y-79736013D01*
X111562213Y-79728234D01*
X111665954Y-79604600D01*
X111873952Y-79604600D01*
X112731073Y-80461721D01*
X112705385Y-80596384D01*
X112704286Y-80606667D01*
X112698114Y-80859185D01*
X112698710Y-80869509D01*
X112733864Y-81119643D01*
X112736137Y-81129732D01*
X112811673Y-81370766D01*
X112815564Y-81380348D01*
X112929452Y-81605808D01*
X112934855Y-81614626D01*
X113084038Y-81818458D01*
X113090809Y-81826275D01*
X113271280Y-82003004D01*
X113279237Y-82009610D01*
X113486148Y-82154492D01*
X113495077Y-82159710D01*
X113722873Y-82268851D01*
X113732535Y-82272540D01*
X113975098Y-82343012D01*
X113985232Y-82345073D01*
X114236048Y-82374981D01*
X114246382Y-82375360D01*
X114360428Y-82370181D01*
X114241999Y-82511319D01*
X114235688Y-82520332D01*
X114115752Y-82728068D01*
X114111102Y-82738040D01*
X114029060Y-82963447D01*
X114026213Y-82974074D01*
X113984559Y-83210303D01*
X113983600Y-83221264D01*
X113983600Y-83461136D01*
X113984559Y-83472097D01*
X114026213Y-83708326D01*
X114029060Y-83718953D01*
X114111102Y-83944360D01*
X114115752Y-83954332D01*
X114235688Y-84162068D01*
X114241999Y-84171081D01*
X114396187Y-84354834D01*
X114403966Y-84362613D01*
X114452335Y-84403200D01*
X113304936Y-84403200D01*
X113357834Y-84358813D01*
X113365613Y-84351034D01*
X113519801Y-84167281D01*
X113526112Y-84158268D01*
X113646048Y-83950532D01*
X113650698Y-83940560D01*
X113732740Y-83715153D01*
X113735587Y-83704526D01*
X113777241Y-83468297D01*
X113778200Y-83457336D01*
X113778200Y-83217464D01*
X113777241Y-83206503D01*
X113735587Y-82970274D01*
X113732740Y-82959647D01*
X113650698Y-82734240D01*
X113646048Y-82724268D01*
X113526112Y-82516532D01*
X113519801Y-82507519D01*
X113365613Y-82323766D01*
X113357834Y-82315987D01*
X113174081Y-82161799D01*
X113165068Y-82155488D01*
X112957332Y-82035552D01*
X112947360Y-82030902D01*
X112721953Y-81948860D01*
X112711326Y-81946013D01*
X112475097Y-81904359D01*
X112464136Y-81903400D01*
X112224264Y-81903400D01*
X112213303Y-81904359D01*
X111977074Y-81946013D01*
X111966447Y-81948860D01*
X111741040Y-82030902D01*
X111731068Y-82035552D01*
X111523332Y-82155488D01*
X111514319Y-82161799D01*
X111330566Y-82315987D01*
X111322787Y-82323766D01*
X111168599Y-82507519D01*
X111162288Y-82516532D01*
X111042352Y-82724268D01*
X111037702Y-82734240D01*
X110955660Y-82959647D01*
X110952813Y-82970274D01*
X110911159Y-83206503D01*
X110910200Y-83217464D01*
X110910200Y-83457336D01*
X110911159Y-83468297D01*
X110952813Y-83704526D01*
X110955660Y-83715153D01*
X111037702Y-83940560D01*
X111042352Y-83950532D01*
X111162288Y-84158268D01*
X111168599Y-84167281D01*
X111322787Y-84351034D01*
X111330566Y-84358813D01*
X111383464Y-84403200D01*
X108457766Y-84403200D01*
X108400463Y-84189342D01*
X108387720Y-84164862D01*
X108256610Y-84008610D01*
X108239721Y-83994439D01*
X108065480Y-83893841D01*
X108044763Y-83886300D01*
X107895406Y-83859965D01*
X107898423Y-83837044D01*
X106802389Y-82741009D01*
X107268810Y-82741009D01*
X107268810Y-82845391D01*
X108079444Y-83656023D01*
X108202653Y-83639803D01*
X108337448Y-83406332D01*
X108342098Y-83396360D01*
X108424140Y-83170953D01*
X108426987Y-83160326D01*
X108468641Y-82924097D01*
X108469600Y-82913136D01*
X108469600Y-82673264D01*
X108468641Y-82662303D01*
X108426987Y-82426074D01*
X108424140Y-82415447D01*
X108342098Y-82190040D01*
X108337448Y-82180068D01*
X108202653Y-81946597D01*
X108079444Y-81930377D01*
X107268810Y-82741009D01*
X106802389Y-82741009D01*
X106765485Y-82704105D01*
X105991757Y-81930377D01*
X105868547Y-81946597D01*
X105733752Y-82180068D01*
X105729102Y-82190040D01*
X105647060Y-82415447D01*
X105644213Y-82426074D01*
X105611672Y-82610623D01*
X104750405Y-81749356D01*
X106172777Y-81749356D01*
X106983409Y-82559990D01*
X107087791Y-82559990D01*
X107898423Y-81749356D01*
X107882203Y-81626147D01*
X107648732Y-81491352D01*
X107638760Y-81486702D01*
X107413353Y-81404660D01*
X107402726Y-81401813D01*
X107166497Y-81360159D01*
X107155536Y-81359200D01*
X106915664Y-81359200D01*
X106904703Y-81360159D01*
X106668474Y-81401813D01*
X106657847Y-81404660D01*
X106432440Y-81486702D01*
X106422468Y-81491352D01*
X106188997Y-81626147D01*
X106172777Y-81749356D01*
X104750405Y-81749356D01*
X103810800Y-80809752D01*
X103810800Y-79839754D01*
X103934434Y-79736013D01*
X103942213Y-79728234D01*
X104096401Y-79544481D01*
X104102712Y-79535468D01*
X104222648Y-79327732D01*
X104227298Y-79317760D01*
X104309340Y-79092353D01*
X104312187Y-79081726D01*
X104353841Y-78845497D01*
X104354800Y-78834536D01*
X104354800Y-78594664D01*
X104353841Y-78583703D01*
X104347321Y-78546728D01*
X104733619Y-78160430D01*
X104749882Y-78150169D01*
X104763554Y-78138533D01*
X104824323Y-78069726D01*
X104846083Y-78047966D01*
X104851957Y-78041192D01*
X104865588Y-78023003D01*
X104920307Y-77961046D01*
X104930163Y-77946041D01*
X104941727Y-77921411D01*
X104958040Y-77899644D01*
X104966661Y-77883897D01*
X104995670Y-77806518D01*
X105030883Y-77731516D01*
X105036191Y-77713962D01*
X105040053Y-77688123D01*
X105049783Y-77662167D01*
X105053638Y-77644634D01*
X105060648Y-77550317D01*
X105064108Y-77527165D01*
X105064801Y-77517840D01*
X105064801Y-77494422D01*
X105071188Y-77408488D01*
X105069967Y-77390577D01*
X105064801Y-77366376D01*
X105064801Y-73718307D01*
X105069044Y-73699555D01*
X105070484Y-73681661D01*
X105064801Y-73590055D01*
X105064801Y-73559263D01*
X105064164Y-73550321D01*
X105060940Y-73527810D01*
X105055822Y-73445317D01*
X105052182Y-73427737D01*
X105042943Y-73402143D01*
X105039087Y-73375219D01*
X105034048Y-73357988D01*
X104999839Y-73282746D01*
X104971709Y-73204826D01*
X104963050Y-73188660D01*
X104947514Y-73167664D01*
X104936038Y-73142424D01*
X104926366Y-73127300D01*
X104864627Y-73055649D01*
X104850705Y-73036835D01*
X104844601Y-73029751D01*
X104828058Y-73013209D01*
X104771794Y-72947911D01*
X104758265Y-72936109D01*
X104737496Y-72922647D01*
X104347321Y-72532472D01*
X104353841Y-72495497D01*
X104354800Y-72484536D01*
X104354800Y-72244664D01*
X104353841Y-72233703D01*
X104312187Y-71997474D01*
X104309340Y-71986847D01*
X104227298Y-71761440D01*
X104222648Y-71751468D01*
X104102712Y-71543732D01*
X104096401Y-71534719D01*
X103942213Y-71350966D01*
X103934434Y-71343187D01*
X103750681Y-71188999D01*
X103741668Y-71182688D01*
X103631357Y-71119000D01*
X109830243Y-71119000D01*
X109719932Y-71182688D01*
G36*
X102307668Y-73666448D02*
G01*
X102317640Y-73671098D01*
X102543047Y-73753140D01*
X102553674Y-73755987D01*
X102789903Y-73797641D01*
X102800864Y-73798600D01*
X103040736Y-73798600D01*
X103051697Y-73797641D01*
X103088672Y-73791121D01*
X103284802Y-73987251D01*
X103284802Y-74147662D01*
X103138818Y-74121920D01*
X103048800Y-74197454D01*
X103048799Y-75337792D01*
X103048800Y-75337793D01*
X103048799Y-76881746D01*
X103138817Y-76957279D01*
X103284801Y-76931538D01*
X103284801Y-77091950D01*
X103088672Y-77288079D01*
X103051697Y-77281559D01*
X103040736Y-77280600D01*
X102800864Y-77280600D01*
X102789903Y-77281559D01*
X102553674Y-77323213D01*
X102543047Y-77326060D01*
X102317640Y-77408102D01*
X102307668Y-77412752D01*
X102234000Y-77455284D01*
X102234000Y-76798916D01*
X102307668Y-76841448D01*
X102317640Y-76846098D01*
X102543047Y-76928140D01*
X102553674Y-76930987D01*
X102702782Y-76957280D01*
X102792800Y-76881746D01*
X102792801Y-75741408D01*
X102792800Y-75741407D01*
X102792801Y-74197454D01*
X102702783Y-74121921D01*
X102553675Y-74148213D01*
X102543047Y-74151060D01*
X102317640Y-74233102D01*
X102307668Y-74237752D01*
X102234000Y-74280284D01*
X102234000Y-73623916D01*
X102307668Y-73666448D01*
G37*
X102307668Y-73666448D02*
X102317640Y-73671098D01*
X102543047Y-73753140D01*
X102553674Y-73755987D01*
X102789903Y-73797641D01*
X102800864Y-73798600D01*
X103040736Y-73798600D01*
X103051697Y-73797641D01*
X103088672Y-73791121D01*
X103284802Y-73987251D01*
X103284802Y-74147662D01*
X103138818Y-74121920D01*
X103048800Y-74197454D01*
X103048799Y-75337792D01*
X103048800Y-75337793D01*
X103048799Y-76881746D01*
X103138817Y-76957279D01*
X103284801Y-76931538D01*
X103284801Y-77091950D01*
X103088672Y-77288079D01*
X103051697Y-77281559D01*
X103040736Y-77280600D01*
X102800864Y-77280600D01*
X102789903Y-77281559D01*
X102553674Y-77323213D01*
X102543047Y-77326060D01*
X102317640Y-77408102D01*
X102307668Y-77412752D01*
X102234000Y-77455284D01*
X102234000Y-76798916D01*
X102307668Y-76841448D01*
X102317640Y-76846098D01*
X102543047Y-76928140D01*
X102553674Y-76930987D01*
X102702782Y-76957280D01*
X102792800Y-76881746D01*
X102792801Y-75741408D01*
X102792800Y-75741407D01*
X102792801Y-74197454D01*
X102702783Y-74121921D01*
X102553675Y-74148213D01*
X102543047Y-74151060D01*
X102317640Y-74233102D01*
X102307668Y-74237752D01*
X102234000Y-74280284D01*
X102234000Y-73623916D01*
X102307668Y-73666448D01*
M02*
